IBM Plex Mono-Thin.ufo
<glyph name="exclam" format="2">
  <advance width="600"/>
  <unicode hex="0021"/>
  <outline>
    <contour>
      <point x="306" y="176" type="line" identifier="vlSqRWSNLz"/>
      <point x="311" y="415" type="line" identifier="VLLwvv7gLX"/>
      <point x="311" y="698" type="line" identifier="5hLGnAnEHQ"/>
      <point x="289" y="698" type="line" identifier="532hdNSog4"/>
      <point x="289" y="415" type="line" identifier="jFhEz8kOgE"/>
      <point x="294" y="176" type="line" identifier="N1Amyc9k1h"/>
    </contour>
    <contour>
      <point x="300" y="-5" type="curve" smooth="yes" identifier="vw66WPaIcw"/>
      <point x="322" y="-5" identifier="8q6aVmjAx8"/>
      <point x="334" y="5" identifier="Oovzd1IaY2"/>
      <point x="334" y="22" type="curve" smooth="yes" identifier="3qZvqW6lem"/>
      <point x="334" y="30" type="line" smooth="yes" identifier="qPL0z001NP"/>
      <point x="334" y="47" identifier="5NDhfmGbkH"/>
      <point x="322" y="57" identifier="LwmcsT4Ar2"/>
      <point x="300" y="57" type="curve" smooth="yes" identifier="qNuOOE7q8c"/>
      <point x="278" y="57" identifier="ENnYnm06TY"/>
      <point x="266" y="47" identifier="a4SBzxgapP"/>
      <point x="266" y="30" type="curve" smooth="yes" identifier="jQpcDXnO1E"/>
      <point x="266" y="22" type="line" smooth="yes" identifier="t4cosqlt8T"/>
      <point x="266" y="5" identifier="Z05hFwp64K"/>
      <point x="278" y="-5" identifier="M5k1A7L1Wp"/>
    </contour>
  </outline>
</glyph>
<glyph name="numbersign" format="2">
  <advance width="600"/>
  <unicode hex="0023"/>
  <outline>
    <contour>
      <point x="140" y="0" type="line" identifier="ApiFSAngIG"/>
      <point x="162" y="0" type="line" identifier="QNzIaCNXwH"/>
      <point x="285" y="698" type="line" identifier="a9BDA1FjiB"/>
      <point x="263" y="698" type="line" identifier="l8w50VH187"/>
      <point x="221" y="459" type="line" identifier="H7OYxmdfA7"/>
      <point x="57" y="459" type="line" identifier="7ENG5TNrvw"/>
      <point x="57" y="440" type="line" identifier="aUm8qIfNhZ"/>
      <point x="218" y="440" type="line" identifier="6YUkYteSm0"/>
      <point x="186" y="258" type="line" identifier="TAB8uI1cJ4"/>
      <point x="22" y="258" type="line" identifier="wWC9o0kjFw"/>
      <point x="22" y="239" type="line" identifier="mspRPFJYu6"/>
      <point x="182" y="239" type="line" identifier="aKGXpEA3Sv"/>
    </contour>
    <contour>
      <point x="315" y="0" type="line" identifier="XopHyYtgp6"/>
      <point x="337" y="0" type="line" identifier="5fGLNWy2iR"/>
      <point x="379" y="239" type="line" identifier="QiP3kjvql8"/>
      <point x="543" y="239" type="line" identifier="FPB9Uf1PPX"/>
      <point x="543" y="258" type="line" identifier="gKC9KhySf3"/>
      <point x="382" y="258" type="line" identifier="6k68F4COba"/>
      <point x="414" y="440" type="line" identifier="0Skf7WrCah"/>
      <point x="578" y="440" type="line" identifier="SGIxA3ryzq"/>
      <point x="578" y="459" type="line" identifier="0LcYa6E4E7"/>
      <point x="418" y="459" type="line" identifier="YOX3zkj6dR"/>
      <point x="460" y="698" type="line" identifier="cHG99QHKzw"/>
      <point x="438" y="698" type="line" identifier="udQNxjfZwh"/>
    </contour>
  </outline>
</glyph>
<glyph name="dollar" format="2">
  <advance width="600"/>
  <unicode hex="0024"/>
  <outline>
    <contour>
      <point x="296" y="-113" type="line" identifier="VMn34wogeo"/>
      <point x="316" y="-113" type="line" identifier="R1fJ2oANem"/>
      <point x="316" y="-12" type="line" identifier="YuB58RfXv5"/>
      <point x="445" y="-8" identifier="KYrrCo6Kgs"/>
      <point x="527" y="55" identifier="wHG2sCArgH"/>
      <point x="527" y="177" type="curve" smooth="yes" identifier="TzCHGAff4V"/>
      <point x="527" y="259" identifier="8jxyOBazif"/>
      <point x="493" y="337" identifier="LxRYSPiPfa"/>
      <point x="346" y="362" type="curve" smooth="yes" identifier="yQdO3UtNyS"/>
      <point x="316" y="367" type="line" identifier="8VKGjsrClC"/>
      <point x="316" y="690" type="line" identifier="lSm33MhB3m"/>
      <point x="405" y="686" identifier="sBcr3O00X8"/>
      <point x="460" y="655" identifier="F9eN2FoYrR"/>
      <point x="499" y="599" type="curve" identifier="UJLFfsPMlC"/>
      <point x="516" y="613" type="line" identifier="06WO61YBFL"/>
      <point x="479" y="667" identifier="YDPbp3tLti"/>
      <point x="419" y="706" identifier="Jn1z6jOmUZ"/>
      <point x="316" y="710" type="curve" identifier="llbt1xZOb3"/>
      <point x="316" y="811" type="line" identifier="nctEil69ls"/>
      <point x="296" y="811" type="line" identifier="KRwzbJpxlt"/>
      <point x="296" y="710" type="line" identifier="qxWgRqUGUg"/>
      <point x="166" y="709" identifier="WQFzIz7oif"/>
      <point x="82" y="652" identifier="Ry7i3zYpns"/>
      <point x="82" y="535" type="curve" smooth="yes" identifier="r1MynmJDdg"/>
      <point x="82" y="453" identifier="LP2A0iSF6J"/>
      <point x="119" y="378" identifier="E3dCcrPuVR"/>
      <point x="260" y="354" type="curve" smooth="yes" identifier="ymHjFfgWvp"/>
      <point x="296" y="348" type="line" identifier="gl1Hxzl4Pc"/>
      <point x="296" y="8" type="line" identifier="AxRjuAdcNY"/>
      <point x="187" y="10" identifier="3BLacOEKDy"/>
      <point x="132" y="52" identifier="4yGrjsLZ2B"/>
      <point x="84" y="115" type="curve" identifier="z1ZcOHcywm"/>
      <point x="66" y="102" type="line" identifier="ffQYN8I9vL"/>
      <point x="115" y="37" identifier="mHWcjIgePh"/>
      <point x="178" y="-10" identifier="G5k3Xd5XHO"/>
      <point x="296" y="-12" type="curve" identifier="7enpHpzQDs"/>
    </contour>
    <contour>
      <point x="104" y="535" type="curve" smooth="yes" identifier="7GMbcJm7zY"/>
      <point x="104" y="638" identifier="4SiptY39Bi"/>
      <point x="176" y="689" identifier="TvaUMwfudv"/>
      <point x="296" y="690" type="curve" identifier="UPcCaF7Iyx"/>
      <point x="296" y="370" type="line" identifier="VR2Pr7iBju"/>
      <point x="265" y="375" type="line" smooth="yes" identifier="dc6zMcEqEv"/>
      <point x="178" y="389" identifier="Zy3hKu9M0G"/>
      <point x="104" y="426" identifier="ihrXQLHvrX"/>
    </contour>
    <contour>
      <point x="505" y="176" type="curve" smooth="yes" identifier="LotS7uaOg5"/>
      <point x="505" y="69" identifier="douoESe6Ru"/>
      <point x="435" y="11" identifier="2OLQ4Iqkfs"/>
      <point x="316" y="8" type="curve" identifier="v0VfneU4SE"/>
      <point x="316" y="345" type="line" identifier="MjtgtrX8pg"/>
      <point x="341" y="341" type="line" smooth="yes" identifier="bD1WWrc7Sm"/>
      <point x="427" y="327" identifier="IUGjLiOZH6"/>
      <point x="505" y="292" identifier="xrNwxC2vVi"/>
    </contour>
  </outline>
</glyph>
<glyph name="percent" format="2">
  <advance width="600"/>
  <unicode hex="0025"/>
  <outline>
    <contour>
      <point x="173" y="376" type="curve" smooth="yes" identifier="WX2MqWdAYI"/>
      <point x="248" y="376" identifier="frQvyRQMqg"/>
      <point x="311" y="424" identifier="TliIS8RXL3"/>
      <point x="311" y="543" type="curve" smooth="yes" identifier="MWGZafHMwF"/>
      <point x="311" y="662" identifier="d83VohfiP3"/>
      <point x="248" y="710" identifier="sBzjSCteVA"/>
      <point x="173" y="710" type="curve" smooth="yes" identifier="5Te3lW57l0"/>
      <point x="98" y="710" identifier="ywco39BxX8"/>
      <point x="35" y="662" identifier="nIk7oIsE03"/>
      <point x="35" y="543" type="curve" smooth="yes" identifier="nMUHbpDBM4"/>
      <point x="35" y="424" identifier="p9KFVo2h9P"/>
      <point x="98" y="376" identifier="UpomtzJ2ig"/>
    </contour>
    <contour>
      <point x="173" y="393" type="curve" smooth="yes" identifier="ij5sf6d35p"/>
      <point x="113" y="393" identifier="uJOyionnNy"/>
      <point x="57" y="432" identifier="zpmPGBBqwF"/>
      <point x="57" y="529" type="curve" smooth="yes" identifier="T9Fvtfgdgk"/>
      <point x="57" y="557" type="line" smooth="yes" identifier="TUaTi3oK2s"/>
      <point x="57" y="654" identifier="HEhzO84GFF"/>
      <point x="113" y="693" identifier="15PVeGHDbM"/>
      <point x="173" y="693" type="curve" smooth="yes" identifier="u11RiIjrd3"/>
      <point x="233" y="693" identifier="125a44gho9"/>
      <point x="289" y="654" identifier="Rz7ZF2W53R"/>
      <point x="289" y="557" type="curve" smooth="yes" identifier="3Fc3xXRvaK"/>
      <point x="289" y="529" type="line" smooth="yes" identifier="bj1FzDuBOi"/>
      <point x="289" y="432" identifier="iRPcyTTkaD"/>
      <point x="233" y="393" identifier="WNj8GJ4WI8"/>
    </contour>
    <contour>
      <point x="372" y="398" type="line" identifier="HxHaoIw04h"/>
      <point x="393" y="398" type="line" identifier="70et4YPJ26"/>
      <point x="572" y="698" type="line" identifier="1Xglg3xcpP"/>
      <point x="551" y="698" type="line" identifier="fQQC39giqO"/>
    </contour>
    <contour>
      <point x="28" y="0" type="line" identifier="lcbpeToOE8"/>
      <point x="49" y="0" type="line" identifier="L2wJIMpUiY"/>
      <point x="228" y="300" type="line" identifier="69tm3XkPfC"/>
      <point x="207" y="300" type="line" identifier="LMB8JGMqnj"/>
    </contour>
    <contour>
      <point x="427" y="-12" type="curve" smooth="yes" identifier="8nJnZYQpWD"/>
      <point x="502" y="-12" identifier="5NrpWruxSC"/>
      <point x="565" y="36" identifier="WrH62s64a8"/>
      <point x="565" y="155" type="curve" smooth="yes" identifier="zCZfidlyJD"/>
      <point x="565" y="274" identifier="DEefWz3X1V"/>
      <point x="502" y="322" identifier="syCSq1FVxt"/>
      <point x="427" y="322" type="curve" smooth="yes" identifier="IOQl4GezuT"/>
      <point x="352" y="322" identifier="15MCMSEBJe"/>
      <point x="289" y="274" identifier="scRyWTLVFj"/>
      <point x="289" y="155" type="curve" smooth="yes" identifier="PQU5HzoIdq"/>
      <point x="289" y="36" identifier="Bto6h1P6ii"/>
      <point x="352" y="-12" identifier="CH3wdo8rUL"/>
    </contour>
    <contour>
      <point x="427" y="5" type="curve" smooth="yes" identifier="OhrtnFD5Vk"/>
      <point x="367" y="5" identifier="Pamlq794oj"/>
      <point x="311" y="44" identifier="ZHUZdVTS7b"/>
      <point x="311" y="141" type="curve" smooth="yes" identifier="lbX9RPox0j"/>
      <point x="311" y="169" type="line" smooth="yes" identifier="XePMt2qHqr"/>
      <point x="311" y="266" identifier="7vxiqjguzA"/>
      <point x="367" y="305" identifier="yxycqdzTAH"/>
      <point x="427" y="305" type="curve" smooth="yes" identifier="zEICqdEDRE"/>
      <point x="487" y="305" identifier="JtU7mUNDPv"/>
      <point x="543" y="266" identifier="5ywMWzrR5l"/>
      <point x="543" y="169" type="curve" smooth="yes" identifier="MUAhlRWnzX"/>
      <point x="543" y="141" type="line" smooth="yes" identifier="yzHmDFFyhk"/>
      <point x="543" y="44" identifier="HgIn0osYGF"/>
      <point x="487" y="5" identifier="dxSv6xNAUt"/>
    </contour>
  </outline>
</glyph>
<glyph name="ampersand" format="2">
  <advance width="600"/>
  <unicode hex="0026"/>
  <outline>
    <contour>
      <point x="229" y="-12" type="curve" smooth="yes" identifier="YKkmPoIdep"/>
      <point x="318" y="-12" identifier="gcosFquP7n"/>
      <point x="384" y="35" identifier="ff2W1TZGZq"/>
      <point x="420" y="108" type="curve" identifier="xwTMQ4DB62"/>
      <point x="423" y="108" type="line" identifier="RuLO2sPmV0"/>
      <point x="516" y="0" type="line" identifier="7nlrgUowLp"/>
      <point x="542" y="0" type="line" identifier="1fjiCpZ99T"/>
      <point x="430" y="131" type="line" identifier="XzPez9yrgS"/>
      <point x="448" y="176" identifier="rijASs3YOa"/>
      <point x="456" y="235" identifier="mV7JgPz4ke"/>
      <point x="462" y="338" type="curve" identifier="hMcQ3GuZT7"/>
      <point x="544" y="338" type="line" identifier="lSCsVONfol"/>
      <point x="544" y="358" type="line" identifier="slyTGWLiG9"/>
      <point x="442" y="358" type="line" identifier="3Oa4eQSqcf"/>
      <point x="436" y="248" identifier="Zegqqzp59P"/>
      <point x="430" y="191" identifier="QrmRg2xPM2"/>
      <point x="415" y="149" type="curve" identifier="zFxSVrjCaG"/>
      <point x="412" y="149" type="line" identifier="Kqo4tucYPn"/>
      <point x="201" y="396" type="line" smooth="yes" identifier="zEia1pzRdL"/>
      <point x="163" y="440" identifier="oL6xNT0j31"/>
      <point x="134" y="492" identifier="cHkkRjnRWk"/>
      <point x="134" y="542" type="curve" smooth="yes" identifier="ef1nERC0d3"/>
      <point x="134" y="556" type="line" smooth="yes" identifier="Xu1c8T3CoU"/>
      <point x="134" y="639" identifier="RAxPH49AoP"/>
      <point x="184" y="690" identifier="2L4HcroOj0"/>
      <point x="265" y="690" type="curve" smooth="yes" identifier="LA7gOsNal6"/>
      <point x="333" y="690" identifier="fGO4B3ZN7c"/>
      <point x="375" y="651" identifier="Kwnk4LroHv"/>
      <point x="399" y="604" type="curve" identifier="LrXKlUd76q"/>
      <point x="418" y="613" type="line" identifier="DuLK8LS8xB"/>
      <point x="394" y="666" identifier="l1lZqnfr6K"/>
      <point x="343" y="710" identifier="heYQPhFGFL"/>
      <point x="265" y="710" type="curve" smooth="yes" identifier="UAxtLsbFKp"/>
      <point x="172" y="710" identifier="C6U9f4v70J"/>
      <point x="111" y="646" identifier="7RSJGUlTuz"/>
      <point x="111" y="552" type="curve" smooth="yes" identifier="mzcxIfwgGD"/>
      <point x="111" y="486" identifier="IBadC3WV5B"/>
      <point x="143" y="431" identifier="smKUiKSafO"/>
      <point x="181" y="387" type="curve" identifier="3Wz73Lb6TE"/>
      <point x="73" y="333" identifier="ut59Qd10uI"/>
      <point x="42" y="255" identifier="U9JZg0C062"/>
      <point x="42" y="174" type="curve" smooth="yes" identifier="kzPVf1PhNL"/>
      <point x="42" y="64" identifier="ds5EE7NkOh"/>
      <point x="111" y="-12" identifier="Dp47delRtH"/>
    </contour>
    <contour>
      <point x="230" y="8" type="curve" smooth="yes" identifier="jJFVzIKK2R"/>
      <point x="125" y="8" identifier="MF1hWzIsJ5"/>
      <point x="65" y="77" identifier="afpFpDXaC9"/>
      <point x="65" y="162" type="curve" smooth="yes" identifier="5YMp8HUlKb"/>
      <point x="65" y="185" type="line" smooth="yes" identifier="z0VKO0c0ld"/>
      <point x="65" y="251" identifier="D6RIE3N8AJ"/>
      <point x="92" y="321" identifier="3njHSvQHla"/>
      <point x="193" y="372" type="curve" identifier="D9Vj9PRIA5"/>
      <point x="406" y="125" type="line" identifier="JviWuK56Kq"/>
      <point x="374" y="54" identifier="EMrJ5dlw0u"/>
      <point x="312" y="8" identifier="P3WZEe5HiV"/>
    </contour>
  </outline>
</glyph>
<glyph name="quotesingle" format="2">
  <advance width="600"/>
  <unicode hex="0027"/>
  <outline>
    <contour>
      <point x="312" y="490" type="line" identifier="9qVuKLcqTL"/>
      <point x="312" y="740" type="line" identifier="tLqKyFoXLu"/>
      <point x="288" y="740" type="line" identifier="n54ze7bRMD"/>
      <point x="288" y="490" type="line" identifier="Wn7AYdpOkL"/>
    </contour>
  </outline>
</glyph>
<glyph name="parenleft" format="2">
  <advance width="600"/>
  <unicode hex="0028"/>
  <outline>
    <contour>
      <point x="238" y="311" type="curve" smooth="yes" identifier="nQdKvz5Hp6"/>
      <point x="238" y="107" identifier="wtQW28MaTp"/>
      <point x="327" y="-48" identifier="QMKJgSxeJf"/>
      <point x="439" y="-138" type="curve" identifier="Y5UlQEoQ3c"/>
      <point x="465" y="-138" type="line" identifier="7PaW7lODFh"/>
      <point x="347" y="-46" identifier="ww2xDygNMP"/>
      <point x="259" y="111" identifier="CRKkh1zErF"/>
      <point x="259" y="294" type="curve" smooth="yes" identifier="e2reHSx1jC"/>
      <point x="259" y="328" type="line" smooth="yes" identifier="1xC6EYwj7g"/>
      <point x="259" y="511" identifier="WKVD9tzMKI"/>
      <point x="347" y="668" identifier="P3vCT366el"/>
      <point x="465" y="760" type="curve" identifier="gFoL4hyUZc"/>
      <point x="439" y="760" type="line" identifier="6kEJGl1TOH"/>
      <point x="327" y="670" identifier="bjO2j6u8cN"/>
      <point x="238" y="515" identifier="wyoX5pZxeW"/>
    </contour>
  </outline>
</glyph>
<glyph name="parenright" format="2">
  <advance width="600"/>
  <unicode hex="0029"/>
  <outline>
    <contour>
      <point x="362" y="311" type="curve" smooth="yes" identifier="hAB9Gfgcwc"/>
      <point x="362" y="515" identifier="STetnvSX2N"/>
      <point x="273" y="670" identifier="fqcoWKa1me"/>
      <point x="161" y="760" type="curve" identifier="t1dy85ynhI"/>
      <point x="135" y="760" type="line" identifier="2y2akvsxdy"/>
      <point x="253" y="668" identifier="CkEaSnLrlA"/>
      <point x="341" y="511" identifier="vIvY6tlMtD"/>
      <point x="341" y="328" type="curve" smooth="yes" identifier="pVHA0qtZMU"/>
      <point x="341" y="294" type="line" smooth="yes" identifier="Wud3bPDcaN"/>
      <point x="341" y="111" identifier="WqUKvR7DOP"/>
      <point x="253" y="-46" identifier="5qa4YqqJWG"/>
      <point x="135" y="-138" type="curve" identifier="wS3YP71BIB"/>
      <point x="161" y="-138" type="line" identifier="Tnpgq9Scu7"/>
      <point x="273" y="-48" identifier="ZbFUr31E0j"/>
      <point x="362" y="107" identifier="QRRMpd0acF"/>
    </contour>
  </outline>
</glyph>
<glyph name="asterisk" format="2">
  <advance width="600"/>
  <unicode hex="002A"/>
  <outline>
    <contour>
      <point x="300" y="269" type="line" identifier="kjlsHGwxHs"/>
      <point x="459" y="51" type="line" identifier="4HzuYSBP0B"/>
      <point x="476" y="63" type="line" identifier="56XWAgF7rU"/>
      <point x="318" y="279" type="line" identifier="JFzhW3rrmf"/>
      <point x="553" y="353" type="line" identifier="TrFIc6xZR7"/>
      <point x="547" y="372" type="line" identifier="Y0zlIUCuqW"/>
      <point x="311" y="298" type="line" identifier="cpHI1VEyyj"/>
      <point x="311" y="549" type="line" identifier="mtkDYfVNlo"/>
      <point x="290" y="549" type="line" identifier="QsQs57ELna"/>
      <point x="290" y="298" type="line" identifier="nHqiGapzty"/>
      <point x="54" y="372" type="line" identifier="Z4QxI4ZXlH"/>
      <point x="48" y="353" type="line" identifier="JTVdWgtMA5"/>
      <point x="283" y="279" type="line" identifier="B5AkiGtJ62"/>
      <point x="125" y="63" type="line" identifier="P4IA3YanwS"/>
      <point x="142" y="51" type="line" identifier="qaeJy4uAdL"/>
    </contour>
  </outline>
</glyph>
<glyph name="plus" format="2">
  <advance width="600"/>
  <unicode hex="002B"/>
  <outline>
    <contour>
      <point x="311" y="62" type="line" identifier="ZQGDp9iHUO"/>
      <point x="311" y="296" type="line" identifier="waYvAIH3od"/>
      <point x="539" y="296" type="line" identifier="JzlIO4LuGj"/>
      <point x="539" y="315" type="line" identifier="xtEw9kh5yl"/>
      <point x="311" y="315" type="line" identifier="Ca03uOmCEB"/>
      <point x="311" y="549" type="line" identifier="BktYg4k3K5"/>
      <point x="290" y="549" type="line" identifier="FxMuCcctGV"/>
      <point x="290" y="315" type="line" identifier="0GAoWAAh3P"/>
      <point x="62" y="315" type="line" identifier="kZuYzZoddw"/>
      <point x="62" y="296" type="line" identifier="ixWKtNRKN8"/>
      <point x="290" y="296" type="line" identifier="BnHQuCSDFK"/>
      <point x="290" y="62" type="line" identifier="NXOZpcBMNX"/>
    </contour>
  </outline>
</glyph>
<glyph name="comma" format="2">
  <advance width="600"/>
  <unicode hex="002C"/>
  <outline>
    <contour>
      <point x="230" y="-172" type="line" identifier="D7uK6wzhUi"/>
      <point x="247" y="-172" type="line" identifier="0vOWqax9nd"/>
      <point x="326" y="78" type="line" identifier="HWGybFzoDY"/>
      <point x="283" y="78" type="line" identifier="3SWcTiPRdR"/>
    </contour>
  </outline>
</glyph>
<glyph name="hyphen" format="2">
  <advance width="600"/>
  <unicode hex="002D"/>
  <outline>
    <contour>
      <point x="432" y="295" type="line" identifier="JB2PHO5s9J"/>
      <point x="432" y="315" type="line" identifier="6dfVUA0nMl"/>
      <point x="168" y="315" type="line" identifier="yrIrSeFd89"/>
      <point x="168" y="295" type="line" identifier="BnO0E42E3U"/>
    </contour>
  </outline>
</glyph>
<glyph name="period" format="2">
  <advance width="600"/>
  <unicode hex="002E"/>
  <outline>
    <contour>
      <point x="300" y="-5" type="curve" smooth="yes" identifier="3vLBUbvNms"/>
      <point x="322" y="-5" identifier="BnJxLT4DnJ"/>
      <point x="334" y="5" identifier="wreDJ2Ckkk"/>
      <point x="334" y="22" type="curve" smooth="yes" identifier="iftGSFkDkE"/>
      <point x="334" y="30" type="line" smooth="yes" identifier="zMl1HCsLjW"/>
      <point x="334" y="47" identifier="bgKCM6xrdb"/>
      <point x="322" y="57" identifier="y7ArorgH4c"/>
      <point x="300" y="57" type="curve" smooth="yes" identifier="AvG3ynbfVU"/>
      <point x="278" y="57" identifier="0pyBFLbgN0"/>
      <point x="266" y="47" identifier="VLlnUClnJ2"/>
      <point x="266" y="30" type="curve" smooth="yes" identifier="bU4fLLJq9m"/>
      <point x="266" y="22" type="line" smooth="yes" identifier="5vSUeUV7Nb"/>
      <point x="266" y="5" identifier="WMcKxaoveW"/>
      <point x="278" y="-5" identifier="pIpW0fLzsh"/>
    </contour>
  </outline>
</glyph>
<glyph name="slash" format="2">
  <advance width="600"/>
  <unicode hex="002F"/>
  <outline>
    <contour>
      <point x="124" y="-138" type="line" identifier="95peVUmP7C"/>
      <point x="495" y="760" type="line" identifier="n9cyQZA8hW"/>
      <point x="476" y="760" type="line" identifier="yZYKN4152A"/>
      <point x="105" y="-138" type="line" identifier="s9dC5lalGo"/>
    </contour>
  </outline>
</glyph>
<glyph name="zero" format="2">
  <advance width="600"/>
  <unicode hex="0030"/>
  <outline>
    <contour>
      <point x="300" y="-12" type="curve" smooth="yes" identifier="4suMjB9OK9"/>
      <point x="446" y="-12" identifier="YurRLo0IsY"/>
      <point x="529" y="93" identifier="UMq8y3W64T"/>
      <point x="529" y="349" type="curve" smooth="yes" identifier="utOLllajnd"/>
      <point x="529" y="605" identifier="oKvzy6mtNM"/>
      <point x="446" y="710" identifier="8dJoNjDwP2"/>
      <point x="300" y="710" type="curve" smooth="yes" identifier="on9y3VgC0y"/>
      <point x="154" y="710" identifier="8LKgB2eOVg"/>
      <point x="71" y="605" identifier="hVwIaA6jaT"/>
      <point x="71" y="349" type="curve" smooth="yes" identifier="5dWAEbBg4c"/>
      <point x="71" y="93" identifier="O5cNZSVVgO"/>
      <point x="154" y="-12" identifier="kqUyiARHzO"/>
    </contour>
    <contour>
      <point x="300" y="8" type="curve" smooth="yes" identifier="3KahJqMrSt"/>
      <point x="167" y="8" identifier="Vp8HicWtUC"/>
      <point x="95" y="112" identifier="2G8jUFPbP3"/>
      <point x="95" y="317" type="curve" smooth="yes" identifier="RvKJITgOf2"/>
      <point x="95" y="381" type="line" smooth="yes" identifier="CJfVceE9RQ"/>
      <point x="95" y="586" identifier="lVnJYvZVPn"/>
      <point x="167" y="690" identifier="uswq0xyEtR"/>
      <point x="300" y="690" type="curve" smooth="yes" identifier="byDyQjJe7Q"/>
      <point x="433" y="690" identifier="AEfqE5NIPF"/>
      <point x="505" y="586" identifier="yXMbDHyE0G"/>
      <point x="505" y="381" type="curve" smooth="yes" identifier="7zpt3Orgcg"/>
      <point x="505" y="317" type="line" smooth="yes" identifier="wczVsAJvWX"/>
      <point x="505" y="112" identifier="MseOw3IZMB"/>
      <point x="433" y="8" identifier="Ihfgo0UDVd"/>
    </contour>
    <contour>
      <point x="300" y="324" type="curve" smooth="yes" identifier="YfObQBj807"/>
      <point x="318" y="324" identifier="YIxRKRFrNy"/>
      <point x="325" y="333" identifier="2F5mmvPxPq"/>
      <point x="325" y="345" type="curve" smooth="yes" identifier="NUiMjrFugl"/>
      <point x="325" y="353" type="line" smooth="yes" identifier="h2o2VSVi0E"/>
      <point x="325" y="365" identifier="xM9DBIEFkr"/>
      <point x="318" y="374" identifier="TCvlctDIPM"/>
      <point x="300" y="374" type="curve" smooth="yes" identifier="0gD8KRwTjg"/>
      <point x="282" y="374" identifier="EfLO7BP4lL"/>
      <point x="275" y="365" identifier="gHVFQibl0Q"/>
      <point x="275" y="353" type="curve" smooth="yes" identifier="oqZpp2x6vD"/>
      <point x="275" y="345" type="line" smooth="yes" identifier="S7CPzXOC29"/>
      <point x="275" y="333" identifier="ZQ3AZKs8Bk"/>
      <point x="282" y="324" identifier="AzikxmJnZl"/>
    </contour>
  </outline>
</glyph>
<glyph name="one" format="2">
  <advance width="600"/>
  <unicode hex="0031"/>
  <outline>
    <contour>
      <point x="550" y="0" type="line" identifier="aaln69doHa"/>
      <point x="550" y="20" type="line" identifier="ZFu5mU6sh5"/>
      <point x="339" y="20" type="line" identifier="ZjRk19pYxj"/>
      <point x="339" y="698" type="line" identifier="aeYNF06voK"/>
      <point x="301" y="698" type="line" identifier="JBiq4aKQJm"/>
      <point x="85" y="517" type="line" identifier="19TkBjeC1v"/>
      <point x="98" y="501" type="line" identifier="r1ukgND7am"/>
      <point x="314" y="682" type="line" identifier="bGv82Tbt2E"/>
      <point x="317" y="682" type="line" identifier="Vg2RC9QPfu"/>
      <point x="317" y="20" type="line" identifier="wSJXIrVorl"/>
      <point x="98" y="20" type="line" identifier="3TaIy43Q2U"/>
      <point x="98" y="0" type="line" identifier="onIkbtAjPF"/>
    </contour>
  </outline>
</glyph>
<glyph name="two" format="2">
  <advance width="600"/>
  <unicode hex="0032"/>
  <outline>
    <contour>
      <point x="521" y="20" type="line" identifier="fKMplaWgB9"/>
      <point x="112" y="20" type="line" identifier="NXuVHGdTeh"/>
      <point x="370" y="279" type="line" smooth="yes" identifier="ykLFsiI5o8"/>
      <point x="445" y="354" identifier="8Hu51KD9gh"/>
      <point x="486" y="427" identifier="SPWc2V7hYL"/>
      <point x="486" y="516" type="curve" smooth="yes" identifier="LaYFSN4a1n"/>
      <point x="486" y="636" identifier="V29KiHWZFH"/>
      <point x="419" y="710" identifier="aBeECvoLOD"/>
      <point x="294" y="710" type="curve" smooth="yes" identifier="3Rfo9bOD9v"/>
      <point x="179" y="710" identifier="sZABI4tYBf"/>
      <point x="112" y="646" identifier="WN1hekY9SJ"/>
      <point x="87" y="555" type="curve" identifier="sLG3mnrn3g"/>
      <point x="107" y="551" type="line" identifier="Xow2ZU5BjP"/>
      <point x="134" y="636" identifier="rmmzJtogs9"/>
      <point x="190" y="690" identifier="dLSJk9SN2X"/>
      <point x="294" y="690" type="curve" smooth="yes" identifier="cgQMYx7js5"/>
      <point x="405" y="690" identifier="6pSePkaY7z"/>
      <point x="462" y="622" identifier="OEPeLxMtRE"/>
      <point x="462" y="532" type="curve" smooth="yes" identifier="Ud0cUgDZI4"/>
      <point x="462" y="502" type="line" smooth="yes" identifier="3VOs6N9EcB"/>
      <point x="462" y="428" identifier="ooxihOghWq"/>
      <point x="423" y="361" identifier="qpIyf1VAgY"/>
      <point x="356" y="294" type="curve" smooth="yes" identifier="X4NMq4xcvE"/>
      <point x="87" y="22" type="line" identifier="AjRUxOIp4D"/>
      <point x="87" y="0" type="line" identifier="rwMF3zuyXR"/>
      <point x="521" y="0" type="line" identifier="Qo5CKOo16n"/>
    </contour>
  </outline>
</glyph>
<glyph name="three" format="2">
  <advance width="600"/>
  <unicode hex="0033"/>
  <outline>
    <contour>
      <point x="186" y="376" type="line" identifier="zBuAZpXobY"/>
      <point x="186" y="356" type="line" identifier="kpC4dymopz"/>
      <point x="282" y="356" type="line" smooth="yes" identifier="gpRph8x7nb"/>
      <point x="395" y="356" identifier="YNf08OpYMt"/>
      <point x="466" y="293" identifier="rVbmcD1HRt"/>
      <point x="466" y="198" type="curve" smooth="yes" identifier="B5vF9Ryjzg"/>
      <point x="466" y="170" type="line" smooth="yes" identifier="8zO4c039pJ"/>
      <point x="466" y="73" identifier="qnWdpx2M15"/>
      <point x="391" y="8" identifier="fcpFVq0QY3"/>
      <point x="283" y="8" type="curve" smooth="yes" identifier="i4v56SdqUR"/>
      <point x="193" y="8" identifier="xeQtoNgiJr"/>
      <point x="131" y="38" identifier="cgAcK36J5N"/>
      <point x="88" y="106" type="curve" identifier="M6Rn5S1rK8"/>
      <point x="70" y="95" type="line" identifier="w6V5Fubrtc"/>
      <point x="116" y="22" identifier="6uRsjFOxiz"/>
      <point x="186" y="-12" identifier="ROSFmXwUms"/>
      <point x="283" y="-12" type="curve" smooth="yes" identifier="bkyuemV2yW"/>
      <point x="410" y="-12" identifier="nx7GDHAig1"/>
      <point x="490" y="64" identifier="bMUFTNKtJd"/>
      <point x="490" y="187" type="curve" smooth="yes" identifier="5aIL9hF5QJ"/>
      <point x="490" y="290" identifier="vIA53m1QNy"/>
      <point x="429" y="353" identifier="HFsL67DKak"/>
      <point x="335" y="365" type="curve" identifier="n8YqIc8Ya1"/>
      <point x="335" y="368" type="line" identifier="U3WbdOii1e"/>
      <point x="417" y="384" identifier="0HQCmtVcba"/>
      <point x="475" y="437" identifier="tUrjIkuwUH"/>
      <point x="475" y="536" type="curve" smooth="yes" identifier="ctdLRm526A"/>
      <point x="475" y="642" identifier="bNKpQLBR54"/>
      <point x="401" y="710" identifier="MY5bJ9wZ4O"/>
      <point x="287" y="710" type="curve" smooth="yes" identifier="iaZUOFWPok"/>
      <point x="187" y="710" identifier="55hR0BQK0U"/>
      <point x="123" y="664" identifier="kBrAed3cZb"/>
      <point x="95" y="599" type="curve" identifier="sZtrmq6eib"/>
      <point x="113" y="591" type="line" identifier="H4m57lQm7b"/>
      <point x="143" y="651" identifier="zQ1QHO10Wl"/>
      <point x="194" y="690" identifier="kiGCKb0YkO"/>
      <point x="287" y="690" type="curve" smooth="yes" identifier="NmKLyR1J47"/>
      <point x="384" y="690" identifier="YSQ1FcjtRG"/>
      <point x="451" y="632" identifier="WZrBOdPFiT"/>
      <point x="451" y="546" type="curve" smooth="yes" identifier="zz9D0ctxd4"/>
      <point x="451" y="522" type="line" smooth="yes" identifier="s0BWh9jpY1"/>
      <point x="451" y="436" identifier="sy5ZE7Gakc"/>
      <point x="381" y="376" identifier="LhCKS43Rnq"/>
      <point x="280" y="376" type="curve" smooth="yes" identifier="vV7MM3SCAg"/>
    </contour>
  </outline>
</glyph>
<glyph name="four" format="2">
  <advance width="600"/>
  <unicode hex="0034"/>
  <outline>
    <contour>
      <point x="433" y="0" type="line" identifier="NiBWgbABkD"/>
      <point x="433" y="160" type="line" identifier="SicZ1ytEgA"/>
      <point x="550" y="160" type="line" identifier="Ik6LqpW3xI"/>
      <point x="550" y="179" type="line" identifier="YmQsj979GY"/>
      <point x="433" y="179" type="line" identifier="9R8F0aPGaE"/>
      <point x="433" y="698" type="line" identifier="rqKbtGftWW"/>
      <point x="407" y="698" type="line" identifier="oMhetb7fvj"/>
      <point x="47" y="181" type="line" identifier="EkzJ2XyXSH"/>
      <point x="47" y="160" type="line" identifier="OjDLTMdtpm"/>
      <point x="412" y="160" type="line" identifier="eySbUbgAL4"/>
      <point x="412" y="0" type="line" identifier="k8LEkTNkXm"/>
    </contour>
    <contour>
      <point x="410" y="670" type="line" identifier="tEBi624QU5"/>
      <point x="412" y="670" type="line" identifier="J2ARClrmNG"/>
      <point x="412" y="179" type="line" identifier="4bDKCVp9FH"/>
      <point x="69" y="179" type="line" identifier="OSJyIHiTKA"/>
    </contour>
  </outline>
</glyph>
<glyph name="five" format="2">
  <advance width="600"/>
  <unicode hex="0035"/>
  <outline>
    <contour>
      <point x="481" y="698" type="line" identifier="VXZcAOHIFj"/>
      <point x="140" y="698" type="line" identifier="3HgPLoem0l"/>
      <point x="114" y="326" type="line" identifier="YiaxAJNalG"/>
      <point x="137" y="323" type="line" identifier="Kwq5CdU6em"/>
      <point x="178" y="371" identifier="5L5wzzAb0n"/>
      <point x="219" y="393" identifier="WdGh3twwAc"/>
      <point x="304" y="393" type="curve" smooth="yes" identifier="cmlLBWZW0g"/>
      <point x="419" y="393" identifier="UA2DI5ojYT"/>
      <point x="481" y="321" identifier="9b0ckSLEZM"/>
      <point x="481" y="216" type="curve" smooth="yes" identifier="gxAMufR8sU"/>
      <point x="481" y="188" type="line" smooth="yes" identifier="UJKu0OdkSk"/>
      <point x="481" y="83" identifier="V5Cy6NJpTW"/>
      <point x="414" y="8" identifier="DeCbht8p8A"/>
      <point x="297" y="8" type="curve" smooth="yes" identifier="cOCAFzpF3u"/>
      <point x="207" y="8" identifier="5wqEqHV94u"/>
      <point x="145" y="38" identifier="PyC1t02x6o"/>
      <point x="102" y="106" type="curve" identifier="nKzFRhWowm"/>
      <point x="84" y="95" type="line" identifier="ah2dQwwWJU"/>
      <point x="130" y="22" identifier="RmAf7JX57L"/>
      <point x="200" y="-12" identifier="PkrsrcQXkT"/>
      <point x="297" y="-12" type="curve" smooth="yes" identifier="nPVKAPBa5G"/>
      <point x="424" y="-12" identifier="1KiyNxuZ4Q"/>
      <point x="505" y="70" identifier="NLC4c9LQ8e"/>
      <point x="505" y="203" type="curve" smooth="yes" identifier="iuRLK4qxEz"/>
      <point x="505" y="334" identifier="MXfuPockuE"/>
      <point x="431" y="413" identifier="uzESvPcg7Z"/>
      <point x="304" y="413" type="curve" smooth="yes" identifier="pe4JROjt4E"/>
      <point x="229" y="413" identifier="7fadBcms2D"/>
      <point x="177" y="395" identifier="NVW9sKTWtm"/>
      <point x="137" y="343" type="curve" identifier="u4s1LhtvGb"/>
      <point x="134" y="344" type="line" identifier="DHgWBnv3FF"/>
      <point x="158" y="678" type="line" identifier="VHfAj9Ibjb"/>
      <point x="481" y="678" type="line" identifier="gv6AyI0D9R"/>
    </contour>
  </outline>
</glyph>
<glyph name="six" format="2">
  <advance width="600"/>
  <unicode hex="0036"/>
  <outline>
    <contour>
      <point x="300" y="-12" type="curve" smooth="yes" identifier="bzgwfRykBU"/>
      <point x="429" y="-12" identifier="5AKd4CXDTy"/>
      <point x="511" y="74" identifier="MkfxX2OqkK"/>
      <point x="511" y="205" type="curve" smooth="yes" identifier="PORLr0sF2n"/>
      <point x="511" y="336" identifier="yLLHAYUJMA"/>
      <point x="428" y="417" identifier="uaBz2PmWOB"/>
      <point x="299" y="417" type="curve" smooth="yes" identifier="h2NULbvSGY"/>
      <point x="217" y="417" identifier="el70d3e9kc"/>
      <point x="151" y="382" identifier="glygXKlYqZ"/>
      <point x="116" y="310" type="curve" identifier="wywBnWwAXQ"/>
      <point x="113" y="311" type="line" identifier="Mvoim1i4xa"/>
      <point x="141" y="477" identifier="q6M9xP37Yt"/>
      <point x="230" y="597" identifier="rSURIas2MB"/>
      <point x="392" y="698" type="curve" identifier="ork8JNNqA0"/>
      <point x="360" y="698" type="line" identifier="L7cwtxcsDC"/>
      <point x="206" y="603" identifier="CEOKixaaIo"/>
      <point x="87" y="452" identifier="AZL1VIYBG7"/>
      <point x="87" y="226" type="curve" smooth="yes" identifier="PyQ1WWN1Xh"/>
      <point x="87" y="93" identifier="1D2tSK9fiF"/>
      <point x="148" y="-12" identifier="C2xGcMTazf"/>
    </contour>
    <contour>
      <point x="299" y="8" type="curve" smooth="yes" identifier="ZV3nXRPX6c"/>
      <point x="183" y="8" identifier="ZrK9dOZzeX"/>
      <point x="111" y="86" identifier="HPwqW5tjMi"/>
      <point x="111" y="190" type="curve" smooth="yes" identifier="5Nd8QrPNzm"/>
      <point x="111" y="218" type="line" smooth="yes" identifier="QGz8Uwm9aB"/>
      <point x="111" y="319" identifier="xCSyfT9HXN"/>
      <point x="180" y="397" identifier="D2ZKMdCU37"/>
      <point x="299" y="397" type="curve" smooth="yes" identifier="wVKqnvHKs0"/>
      <point x="417" y="397" identifier="KOZ9CEKM3i"/>
      <point x="487" y="319" identifier="qWvk5KenPd"/>
      <point x="487" y="218" type="curve" smooth="yes" identifier="rkETa3EqEY"/>
      <point x="487" y="187" type="line" smooth="yes" identifier="psimWR547W"/>
      <point x="487" y="85" identifier="bH3J7hNCRp"/>
      <point x="416" y="8" identifier="Lm1fpIrOqt"/>
    </contour>
  </outline>
</glyph>
<glyph name="seven" format="2">
  <advance width="600"/>
  <unicode hex="0037"/>
  <outline>
    <contour>
      <point x="211" y="0" type="line" identifier="Z2oo4sllvo"/>
      <point x="512" y="678" type="line" identifier="g6fxcqztZ0"/>
      <point x="512" y="698" type="line" identifier="BTnsluTbkL"/>
      <point x="77" y="698" type="line" identifier="Cw1UOaIXVU"/>
      <point x="77" y="512" type="line" identifier="JlnSFpwwTV"/>
      <point x="99" y="512" type="line" identifier="GZbn4KwpSw"/>
      <point x="99" y="678" type="line" identifier="ENDiA7m9je"/>
      <point x="489" y="678" type="line" identifier="hRmdF2o9WJ"/>
      <point x="187" y="0" type="line" identifier="MaDLtVKxBo"/>
    </contour>
  </outline>
</glyph>
<glyph name="eight" format="2">
  <advance width="600"/>
  <unicode hex="0038"/>
  <outline>
    <contour>
      <point x="300" y="-12" type="curve" smooth="yes" identifier="8u9ku0d3RS"/>
      <point x="440" y="-12" identifier="702A6htlU0"/>
      <point x="528" y="64" identifier="FXulOVDMO7"/>
      <point x="528" y="180" type="curve" smooth="yes" identifier="BdsAlFpQF1"/>
      <point x="528" y="279" identifier="bGqNnSn0Cu"/>
      <point x="469" y="348" identifier="GTVvokGpIw"/>
      <point x="374" y="364" type="curve" identifier="3HEFOKyL0Q"/>
      <point x="374" y="368" type="line" identifier="IQdyefydyA"/>
      <point x="454" y="384" identifier="2NVMMpw0AN"/>
      <point x="504" y="445" identifier="51xDjKOZao"/>
      <point x="504" y="535" type="curve" smooth="yes" identifier="ZGeRieygc9"/>
      <point x="504" y="642" identifier="KlY3HKJkOF"/>
      <point x="425" y="710" identifier="pfecmwDsap"/>
      <point x="300" y="710" type="curve" smooth="yes" identifier="VVxgS9MSZi"/>
      <point x="175" y="710" identifier="dzmW5uKNxy"/>
      <point x="96" y="642" identifier="QBGbsCJo6p"/>
      <point x="96" y="535" type="curve" smooth="yes" identifier="2Av9lqW252"/>
      <point x="96" y="445" identifier="e13GYrERXE"/>
      <point x="146" y="384" identifier="MvygRPxqFZ"/>
      <point x="226" y="368" type="curve" identifier="KEyFqPM7kH"/>
      <point x="226" y="364" type="line" identifier="r4SgEqWukE"/>
      <point x="131" y="348" identifier="blkFAoJsnr"/>
      <point x="72" y="279" identifier="zl2CaDBOfM"/>
      <point x="72" y="180" type="curve" smooth="yes" identifier="mJBzElNeQD"/>
      <point x="72" y="64" identifier="M0k3VJOU3K"/>
      <point x="160" y="-12" identifier="Zk3wBEK8im"/>
    </contour>
    <contour>
      <point x="300" y="8" type="curve" smooth="yes" identifier="4324kZ2H7Q"/>
      <point x="176" y="8" identifier="feaCKI99cc"/>
      <point x="96" y="74" identifier="BhtuAe2ZDI"/>
      <point x="96" y="169" type="curve" smooth="yes" identifier="2xg8fSQBip"/>
      <point x="96" y="195" type="line" smooth="yes" identifier="gjCS5ODrMN"/>
      <point x="96" y="290" identifier="k1UqAAOknt"/>
      <point x="176" y="356" identifier="oKyhYh3iPn"/>
      <point x="300" y="356" type="curve" smooth="yes" identifier="vOiweVgn6d"/>
      <point x="424" y="356" identifier="fTAQBIxLc2"/>
      <point x="504" y="290" identifier="uZVoht7EsE"/>
      <point x="504" y="195" type="curve" smooth="yes" identifier="8ivP2KJQWz"/>
      <point x="504" y="169" type="line" smooth="yes" identifier="awGXOfqNam"/>
      <point x="504" y="74" identifier="WgQ91jI5Qh"/>
      <point x="424" y="8" identifier="5NZNoH2gBE"/>
    </contour>
    <contour>
      <point x="300" y="376" type="curve" smooth="yes" identifier="oMu7jRoycq"/>
      <point x="191" y="376" identifier="bKtG7O8ssN"/>
      <point x="120" y="434" identifier="0UQzObgaaQ"/>
      <point x="120" y="521" type="curve" smooth="yes" identifier="jepRvtwU1F"/>
      <point x="120" y="545" type="line" smooth="yes" identifier="GVsZ9AWoL6"/>
      <point x="120" y="632" identifier="xQTMeWHZ5y"/>
      <point x="191" y="690" identifier="CBUnpjWGP2"/>
      <point x="300" y="690" type="curve" smooth="yes" identifier="LrebwYggBG"/>
      <point x="409" y="690" identifier="7lSZGHZ1WW"/>
      <point x="480" y="632" identifier="cM0Mj46Wji"/>
      <point x="480" y="545" type="curve" smooth="yes" identifier="vHQ6deyPKl"/>
      <point x="480" y="521" type="line" smooth="yes" identifier="ImPW2DmdL9"/>
      <point x="480" y="434" identifier="CVoAFBefDJ"/>
      <point x="409" y="376" identifier="IiNOk3Ojbp"/>
    </contour>
  </outline>
</glyph>
<glyph name="nine" format="2">
  <advance width="600"/>
  <unicode hex="0039"/>
  <outline>
    <contour>
      <point x="516" y="472" type="curve" smooth="yes" identifier="HkPv58PKPU"/>
      <point x="516" y="605" identifier="dXioBi44d2"/>
      <point x="455" y="710" identifier="V0MoBob9I0"/>
      <point x="303" y="710" type="curve" smooth="yes" identifier="GgVOMMrrp6"/>
      <point x="174" y="710" identifier="PWbpuejNUk"/>
      <point x="92" y="624" identifier="3M16YUY1XE"/>
      <point x="92" y="493" type="curve" smooth="yes" identifier="G6d3QvhGMR"/>
      <point x="92" y="362" identifier="oA5pIF3LIY"/>
      <point x="175" y="281" identifier="lxb58htjhL"/>
      <point x="304" y="281" type="curve" smooth="yes" identifier="syroqMO6F4"/>
      <point x="386" y="281" identifier="8kp5rXiaZT"/>
      <point x="452" y="316" identifier="fhCmnTQluB"/>
      <point x="487" y="388" type="curve" identifier="uSYyt98rxm"/>
      <point x="490" y="387" type="line" identifier="UAIAcDx8Vc"/>
      <point x="462" y="221" identifier="D3326jLk4v"/>
      <point x="373" y="101" identifier="8IPiQZJba6"/>
      <point x="211" y="0" type="curve" identifier="G9C38ensWB"/>
      <point x="243" y="0" type="line" identifier="nqsTDREeh3"/>
      <point x="397" y="95" identifier="Zz09txtTmb"/>
      <point x="516" y="246" identifier="faQ89x1eAf"/>
    </contour>
    <contour>
      <point x="304" y="301" type="curve" smooth="yes" identifier="CTI0aUhs0z"/>
      <point x="186" y="301" identifier="2xjO6MBOyA"/>
      <point x="116" y="379" identifier="lgegGExCEo"/>
      <point x="116" y="480" type="curve" smooth="yes" identifier="Vyp3Ljs2pU"/>
      <point x="116" y="511" type="line" smooth="yes" identifier="XRowptNujJ"/>
      <point x="116" y="613" identifier="TxtrTA2XBe"/>
      <point x="187" y="690" identifier="CqgNk7BSfR"/>
      <point x="304" y="690" type="curve" smooth="yes" identifier="NnltEzX3wn"/>
      <point x="420" y="690" identifier="iQlCo63abb"/>
      <point x="492" y="612" identifier="b7C1dhGRRZ"/>
      <point x="492" y="508" type="curve" smooth="yes" identifier="A5A2L8Ejdb"/>
      <point x="492" y="480" type="line" smooth="yes" identifier="WYrkxEPTs3"/>
      <point x="492" y="379" identifier="Tr490QtwwU"/>
      <point x="423" y="301" identifier="pQOQhwE0Ex"/>
    </contour>
  </outline>
</glyph>
<glyph name="less" format="2">
  <advance width="600"/>
  <unicode hex="003C"/>
  <outline>
    <contour>
      <point x="515" y="38" type="line" identifier="9e4cHxrX2c"/>
      <point x="515" y="61" type="line" identifier="ob9MISwXyv"/>
      <point x="108" y="304" type="line" identifier="mFtLR078cY"/>
      <point x="108" y="306" type="line" identifier="8iA8WQCoh0"/>
      <point x="515" y="549" type="line" identifier="5eXNT9crL8"/>
      <point x="515" y="572" type="line" identifier="TvhBUgNjca"/>
      <point x="85" y="314" type="line" identifier="MyFx7EsGF6"/>
      <point x="85" y="296" type="line" identifier="SD9XHwaiOF"/>
    </contour>
  </outline>
</glyph>
<glyph name="equal" format="2">
  <advance width="600"/>
  <unicode hex="003D"/>
  <outline>
    <contour>
      <point x="538" y="385" type="line" identifier="cSmBvbVOAk"/>
      <point x="538" y="404" type="line" identifier="qZhA38554E"/>
      <point x="62" y="404" type="line" identifier="S9t0x3tzyk"/>
      <point x="62" y="385" type="line" identifier="w6ncLSuFPk"/>
    </contour>
    <contour>
      <point x="538" y="207" type="line" identifier="XZ64iAQS5T"/>
      <point x="538" y="226" type="line" identifier="Sx3LAvM9Cg"/>
      <point x="62" y="226" type="line" identifier="jbuEfcOffE"/>
      <point x="62" y="207" type="line" identifier="7ljyaZteAG"/>
    </contour>
  </outline>
</glyph>
<glyph name="greater" format="2">
  <advance width="600"/>
  <unicode hex="003E"/>
  <outline>
    <contour>
      <point x="85" y="38" type="line" identifier="wv42WWegio"/>
      <point x="515" y="296" type="line" identifier="w8sfSrIP3Y"/>
      <point x="515" y="314" type="line" identifier="tr22OIj1WS"/>
      <point x="85" y="572" type="line" identifier="xmcjcXH1Uo"/>
      <point x="85" y="549" type="line" identifier="0HCItXxmmR"/>
      <point x="492" y="306" type="line" identifier="PCq6Lkaqwk"/>
      <point x="492" y="304" type="line" identifier="21P69Y8mmX"/>
      <point x="85" y="61" type="line" identifier="wdaV31uRmS"/>
    </contour>
  </outline>
</glyph>
<glyph name="question" format="2">
  <advance width="600"/>
  <unicode hex="003F"/>
  <outline>
    <contour>
      <point x="290" y="176" type="line" identifier="ARGLD5EhFi"/>
      <point x="290" y="330" type="line" identifier="OTuyJIWKi2"/>
      <point x="423" y="342" identifier="a7nsCaCH8C"/>
      <point x="497" y="415" identifier="NDW0dnKs4a"/>
      <point x="497" y="531" type="curve" smooth="yes" identifier="FiayNORO0M"/>
      <point x="497" y="638" identifier="hl7wbV0nNg"/>
      <point x="425" y="710" identifier="F76bfujBTO"/>
      <point x="306" y="710" type="curve" smooth="yes" identifier="Zb6TjsRTU6"/>
      <point x="196" y="710" identifier="4Ycws6jCxJ"/>
      <point x="128" y="654" identifier="VHbckSIeQU"/>
      <point x="101" y="559" type="curve" identifier="rd5Nem8GEw"/>
      <point x="121" y="554" type="line" identifier="hHKHbzNcDL"/>
      <point x="146" y="641" identifier="cAi4WZ1G0U"/>
      <point x="204" y="691" identifier="Bte2kSMtCJ"/>
      <point x="306" y="691" type="curve" smooth="yes" identifier="G3bv1N9qS4"/>
      <point x="412" y="691" identifier="vVvcxg5O2U"/>
      <point x="474" y="630" identifier="Xwh139XePk"/>
      <point x="474" y="542" type="curve" smooth="yes" identifier="6hSB1Eka7f"/>
      <point x="474" y="516" type="line" smooth="yes" identifier="hfTZNBGsmG"/>
      <point x="474" y="419" identifier="2gbRYkmJcO"/>
      <point x="399" y="351" identifier="vGVRuurh7Z"/>
      <point x="268" y="349" type="curve" identifier="Tn0y6PC0EQ"/>
      <point x="268" y="176" type="line" identifier="kkrWlNMj4g"/>
    </contour>
    <contour>
      <point x="279" y="-5" type="curve" smooth="yes" identifier="NnKBvHaV7y"/>
      <point x="301" y="-5" identifier="dbJ8LqSL3w"/>
      <point x="313" y="5" identifier="kj95LrT42v"/>
      <point x="313" y="22" type="curve" smooth="yes" identifier="XE0crR4dEG"/>
      <point x="313" y="30" type="line" smooth="yes" identifier="2fwYwfT0K7"/>
      <point x="313" y="47" identifier="0bRQs8gcuh"/>
      <point x="301" y="57" identifier="FCmHrUBD0w"/>
      <point x="279" y="57" type="curve" smooth="yes" identifier="IQnFpdAUEP"/>
      <point x="257" y="57" identifier="BaWTQHRcvM"/>
      <point x="245" y="47" identifier="euCwWbQfxa"/>
      <point x="245" y="30" type="curve" smooth="yes" identifier="j7eWTAFMnD"/>
      <point x="245" y="22" type="line" smooth="yes" identifier="LlMRQQsz4d"/>
      <point x="245" y="5" identifier="r1PfIMrR22"/>
      <point x="257" y="-5" identifier="cgLgUxjgWH"/>
    </contour>
  </outline>
</glyph>
<glyph name="at" format="2">
  <advance width="600"/>
  <unicode hex="0040"/>
  <outline>
    <contour>
      <point x="471" y="-87" type="line" identifier="0U99QUYDJy"/>
      <point x="322" y="-87" type="line" smooth="yes" identifier="J81SE6IQ3R"/>
      <point x="151" y="-87" identifier="bOvuKWrUnA"/>
      <point x="115" y="58" identifier="upyjDxge0M"/>
      <point x="115" y="272" type="curve" smooth="yes" identifier="LhDMyC8HyE"/>
      <point x="115" y="317" type="line" smooth="yes" identifier="EkoyOM6o26"/>
      <point x="115" y="582" identifier="QOmqwaqHbv"/>
      <point x="169" y="691" identifier="hKkroKeOCj"/>
      <point x="302" y="691" type="curve" smooth="yes" identifier="MPHXKrlqSN"/>
      <point x="430" y="691" identifier="gtRjiIOTu8"/>
      <point x="472" y="591" identifier="l83TOj4XTC"/>
      <point x="472" y="463" type="curve" smooth="yes" identifier="MT5W98aDOl"/>
      <point x="472" y="432" type="line" identifier="VB7ZmXDrs0"/>
      <point x="469" y="432" type="line" identifier="hBUFVToNMe"/>
      <point x="451" y="472" identifier="peUvIXkzQh"/>
      <point x="419" y="499" identifier="TQdfgEW7rv"/>
      <point x="362" y="499" type="curve" smooth="yes" identifier="qVagFjJpXT"/>
      <point x="273" y="499" identifier="3TzTYBpvm6"/>
      <point x="222" y="440" identifier="jiWeNKgwyD"/>
      <point x="222" y="293" type="curve" smooth="yes" identifier="udBZKbApkQ"/>
      <point x="222" y="146" identifier="mikbwemf2K"/>
      <point x="273" y="87" identifier="CY2GuIgAjm"/>
      <point x="362" y="87" type="curve" smooth="yes" identifier="khmvdFUINO"/>
      <point x="419" y="87" identifier="6CR1dFohBR"/>
      <point x="451" y="114" identifier="XwCOHUcuNk"/>
      <point x="469" y="154" type="curve" identifier="VztydVEXus"/>
      <point x="472" y="154" type="line" identifier="5x1CQ4Xg2Z"/>
      <point x="472" y="95" type="line" identifier="plvODPXVSw"/>
      <point x="492" y="95" type="line" identifier="QJDvolBGyf"/>
      <point x="492" y="463" type="line" smooth="yes" identifier="IrZL0VEu0V"/>
      <point x="492" y="592" identifier="89g07OWNMA"/>
      <point x="449" y="710" identifier="lmGkErXvrj"/>
      <point x="301" y="710" type="curve" smooth="yes" identifier="yGf33uARoR"/>
      <point x="150" y="710" identifier="FZOXAIyU36"/>
      <point x="93" y="588" identifier="gFRvHSawAP"/>
      <point x="93" y="293" type="curve" smooth="yes" identifier="T4yKQUa5Az"/>
      <point x="93" y="50" identifier="6H1z9ljDgL"/>
      <point x="131" y="-106" identifier="vPKTX3Wure"/>
      <point x="322" y="-106" type="curve" smooth="yes" identifier="707IiPcuyB"/>
      <point x="471" y="-106" type="line" identifier="UD8INEg8HS"/>
    </contour>
    <contour>
      <point x="365" y="105" type="curve" smooth="yes" identifier="BWr4BFQ7Ff"/>
      <point x="293" y="105" identifier="TKP3t2LKsy"/>
      <point x="244" y="150" identifier="JjS9OAjiiO"/>
      <point x="244" y="277" type="curve" smooth="yes" identifier="4uKpWSgO8L"/>
      <point x="244" y="309" type="line" smooth="yes" identifier="1HwutHR7Gm"/>
      <point x="244" y="436" identifier="5pNqlB89Yh"/>
      <point x="293" y="481" identifier="eh9vhvREZQ"/>
      <point x="365" y="481" type="curve" smooth="yes" identifier="nbsuBM2pmN"/>
      <point x="431" y="481" identifier="5SBl5B7Fra"/>
      <point x="472" y="436" identifier="1aonjoLBuY"/>
      <point x="472" y="365" type="curve" smooth="yes" identifier="zuUpcvHsK2"/>
      <point x="472" y="221" type="line" smooth="yes" identifier="ie7R99ZAXP"/>
      <point x="472" y="150" identifier="ehyBXWLdCm"/>
      <point x="431" y="105" identifier="8hf0SnYSj8"/>
    </contour>
  </outline>
</glyph>
<glyph name="A" format="2">
  <advance width="600"/>
  <unicode hex="0041"/>
  <anchor x="300.0" y="0.0" name="bottom"/>
  <anchor x="548.0" y="0.0" name="bottomright"/>
  <anchor x="300.0" y="698.0" name="top"/>
  <outline>
    <contour>
      <point x="548" y="0" type="line" identifier="2rDMchFXAR"/>
      <point x="315" y="698" type="line" identifier="wQz539lNgc"/>
      <point x="285" y="698" type="line" identifier="hckB7NJ4DU"/>
      <point x="52" y="0" type="line" identifier="FXVFkS1YE1"/>
      <point x="75" y="0" type="line" identifier="WgpQ3dBLXE"/>
      <point x="153" y="234" type="line" identifier="KwE4ShQhPX"/>
      <point x="447" y="234" type="line" identifier="asj93pgjrt"/>
      <point x="525" y="0" type="line" identifier="AzqNO5k5tD"/>
    </contour>
    <contour>
      <point x="441" y="253" type="line" identifier="W2JsV6ikGY"/>
      <point x="159" y="253" type="line" identifier="XYhamwysNm"/>
      <point x="298" y="673" type="line" identifier="TlqmtBpPqH"/>
      <point x="301" y="673" type="line" identifier="I8CNJDbmGJ"/>
    </contour>
  </outline>
</glyph>
<glyph name="B" format="2">
  <advance width="600"/>
  <unicode hex="0042"/>
  <anchor x="294.0" y="0.0" name="bottom"/>
  <anchor x="274.0" y="698.0" name="top"/>
  <outline>
    <contour>
      <point x="98" y="0" type="line" identifier="VbFXqqxPmj"/>
      <point x="342" y="0" type="line" smooth="yes" identifier="A1T6wzVY9I"/>
      <point x="456" y="0" identifier="phOQlgo7l1"/>
      <point x="516" y="72" identifier="X12bU2RPV9"/>
      <point x="516" y="182" type="curve" smooth="yes" identifier="b4cw68rbj2"/>
      <point x="516" y="277" identifier="vGozRUGzqJ"/>
      <point x="473" y="341" identifier="qaN6Dw4FUi"/>
      <point x="387" y="357" type="curve" identifier="Ln390ULioY"/>
      <point x="387" y="359" type="line" identifier="mNPdmxJKIN"/>
      <point x="448" y="379" identifier="o9VySsBnCO"/>
      <point x="484" y="430" identifier="auT7YajnzH"/>
      <point x="484" y="521" type="curve" smooth="yes" identifier="veU7S1wecw"/>
      <point x="484" y="637" identifier="Ym4Wco8eSK"/>
      <point x="423" y="698" identifier="TC0UGH6MBg"/>
      <point x="320" y="698" type="curve" smooth="yes" identifier="9iTJvbh0Gl"/>
      <point x="98" y="698" type="line" identifier="bQLbF1HmEr"/>
    </contour>
    <contour>
      <point x="120" y="20" type="line" identifier="pKWmk7SMbR"/>
      <point x="120" y="344" type="line" identifier="iF9Bt2rMG1"/>
      <point x="342" y="344" type="line" smooth="yes" identifier="pcuKSl1rtv"/>
      <point x="445" y="344" identifier="4WrJ88k1Ul"/>
      <point x="492" y="276" identifier="4l5nZWBNyo"/>
      <point x="492" y="203" type="curve" smooth="yes" identifier="r9kUX3gX40"/>
      <point x="492" y="161" type="line" smooth="yes" identifier="wM7suTF0aw"/>
      <point x="492" y="88" identifier="l2lZ8ApZ1e"/>
      <point x="445" y="20" identifier="R1Dn1hLQxk"/>
      <point x="342" y="20" type="curve" smooth="yes" identifier="IgR3ZcqDlM"/>
    </contour>
    <contour>
      <point x="120" y="364" type="line" identifier="zMpUBL4Re3"/>
      <point x="120" y="678" type="line" identifier="5FjJIhUpTB"/>
      <point x="320" y="678" type="line" smooth="yes" identifier="OjIRLQ4Enf"/>
      <point x="416" y="678" identifier="35mJ0iKTAz"/>
      <point x="460" y="614" identifier="ycBBYEr60s"/>
      <point x="460" y="542" type="curve" smooth="yes" identifier="uOjkdzONrx"/>
      <point x="460" y="500" type="line" smooth="yes" identifier="L6ond0h2f8"/>
      <point x="460" y="428" identifier="Zyu2ZNtJTf"/>
      <point x="416" y="364" identifier="XKWuVJ8ywP"/>
      <point x="320" y="364" type="curve" smooth="yes" identifier="HtLu3nKtKC"/>
    </contour>
  </outline>
</glyph>
<glyph name="C" format="2">
  <advance width="600"/>
  <unicode hex="0043"/>
  <anchor x="313.0" y="0.0" name="bottom"/>
  <anchor x="325.0" y="698.0" name="top"/>
  <outline>
    <contour>
      <point x="325" y="-12" type="curve" smooth="yes" identifier="1nloZZX6fh"/>
      <point x="419" y="-12" identifier="Y3HOdfiXRX"/>
      <point x="488" y="43" identifier="PMhdabykI2"/>
      <point x="518" y="129" type="curve" identifier="rZTLL66MK7"/>
      <point x="499" y="136" type="line" identifier="wyRUCd1Fro"/>
      <point x="472" y="57" identifier="E9qNLsEWiS"/>
      <point x="410" y="8" identifier="M1xwa1AV4g"/>
      <point x="325" y="8" type="curve" smooth="yes" identifier="0C68YnTeMj"/>
      <point x="180" y="8" identifier="o77VFlz5an"/>
      <point x="103" y="112" identifier="BGaETRiKGO"/>
      <point x="103" y="317" type="curve" smooth="yes" identifier="rOG5DWOzKJ"/>
      <point x="103" y="381" type="line" smooth="yes" identifier="sFU1cRARTE"/>
      <point x="103" y="586" identifier="lNBF8mTUsq"/>
      <point x="180" y="690" identifier="tkdJOIeU1O"/>
      <point x="325" y="690" type="curve" smooth="yes" identifier="qhravOOkls"/>
      <point x="410" y="690" identifier="K1P5SZV9No"/>
      <point x="472" y="641" identifier="kU7ZENZsML"/>
      <point x="499" y="562" type="curve" identifier="2PgkUV8aV4"/>
      <point x="518" y="569" type="line" identifier="d27bgzzbFL"/>
      <point x="488" y="655" identifier="SotbOaTHko"/>
      <point x="419" y="710" identifier="wy3ZVg9guU"/>
      <point x="325" y="710" type="curve" smooth="yes" identifier="e7WKpYb2ep"/>
      <point x="167" y="710" identifier="cACC5dMSW6"/>
      <point x="79" y="605" identifier="WXytiOIK1n"/>
      <point x="79" y="349" type="curve" smooth="yes" identifier="qw5he05L5g"/>
      <point x="79" y="93" identifier="FNEriTfXxR"/>
      <point x="167" y="-12" identifier="25btCfyLwr"/>
    </contour>
  </outline>
</glyph>
<glyph name="D" format="2">
  <advance width="600"/>
  <unicode hex="0044"/>
  <anchor x="277.0" y="0.0" name="bottom"/>
  <anchor x="277.0" y="698.0" name="top"/>
  <outline>
    <contour>
      <point x="108" y="0" type="line" identifier="yo78k71Iou"/>
      <point x="290" y="0" type="line" smooth="yes" identifier="LYHigeTI6X"/>
      <point x="457" y="0" identifier="gQYUCnG5qQ"/>
      <point x="528" y="118" identifier="T8ZD7bUyno"/>
      <point x="528" y="349" type="curve" smooth="yes" identifier="colTV0JJ5Q"/>
      <point x="528" y="580" identifier="fYJU4oIH2N"/>
      <point x="457" y="698" identifier="HHoehIqNQ2"/>
      <point x="290" y="698" type="curve" smooth="yes" identifier="gyX7rHrX9T"/>
      <point x="108" y="698" type="line" identifier="6nLxk8lZUv"/>
    </contour>
    <contour>
      <point x="130" y="20" type="line" identifier="gSCL3abufQ"/>
      <point x="130" y="678" type="line" identifier="SACzgGyFOL"/>
      <point x="291" y="678" type="line" smooth="yes" identifier="KQIWITknRn"/>
      <point x="440" y="678" identifier="tfIB2c5adk"/>
      <point x="504" y="566" identifier="UY9jdfO2pk"/>
      <point x="504" y="381" type="curve" smooth="yes" identifier="uB0PmZGTTR"/>
      <point x="504" y="317" type="line" smooth="yes" identifier="BOs3dIfrkt"/>
      <point x="504" y="132" identifier="vNpVmny1Ew"/>
      <point x="440" y="20" identifier="SaGeJuqkZ2"/>
      <point x="291" y="20" type="curve" smooth="yes" identifier="yydGjnmJgk"/>
    </contour>
  </outline>
</glyph>
<glyph name="E" format="2">
  <advance width="600"/>
  <unicode hex="0045"/>
  <anchor x="307.0" y="0.0" name="bottom"/>
  <anchor x="514.0" y="0.0" name="bottomright"/>
  <anchor x="309.0" y="698.0" name="top"/>
  <outline>
    <contour>
      <point x="514" y="0" type="line" identifier="wYEsH5OA35"/>
      <point x="514" y="20" type="line" identifier="XxJCRNMJ09"/>
      <point x="130" y="20" type="line" identifier="anIDjthzYC"/>
      <point x="130" y="344" type="line" identifier="gtnl1C1CgY"/>
      <point x="500" y="344" type="line" identifier="b2ahTcBBW2"/>
      <point x="500" y="364" type="line" identifier="1ZF5QTGGbv"/>
      <point x="130" y="364" type="line" identifier="VlL4NDZeFt"/>
      <point x="130" y="678" type="line" identifier="Gj8BVYddka"/>
      <point x="514" y="678" type="line" identifier="0Vym2sLmEb"/>
      <point x="514" y="698" type="line" identifier="vqNfGlgxv8"/>
      <point x="108" y="698" type="line" identifier="MvhpDn7LOW"/>
      <point x="108" y="0" type="line" identifier="fHNbbohsZZ"/>
    </contour>
  </outline>
</glyph>
<glyph name="F" format="2">
  <advance width="600"/>
  <unicode hex="0046"/>
  <anchor x="119.0" y="0.0" name="bottom"/>
  <anchor x="309.0" y="698.0" name="top"/>
  <outline>
    <contour>
      <point x="130" y="0" type="line" identifier="PGKhNcYVLc"/>
      <point x="130" y="344" type="line" identifier="amBBsld1DT"/>
      <point x="490" y="344" type="line" identifier="s6Zi6sqa47"/>
      <point x="490" y="364" type="line" identifier="Zu0meahhan"/>
      <point x="130" y="364" type="line" identifier="0Z39QTcbu2"/>
      <point x="130" y="678" type="line" identifier="1TuIbdZqKd"/>
      <point x="518" y="678" type="line" identifier="AtNkQvD77n"/>
      <point x="518" y="698" type="line" identifier="sPnroWy0Aa"/>
      <point x="108" y="698" type="line" identifier="EUgYIKQHKM"/>
      <point x="108" y="0" type="line" identifier="wwsUYuAnj6"/>
    </contour>
  </outline>
</glyph>
<glyph name="G" format="2">
  <advance width="600"/>
  <unicode hex="0047"/>
  <anchor x="304.0" y="0.0" name="bottom"/>
  <anchor x="313.0" y="698.0" name="top"/>
  <outline>
    <contour>
      <point x="491" y="0" type="line" identifier="xNYutAHdxG"/>
      <point x="513" y="0" type="line" identifier="8ZIcrEUWnG"/>
      <point x="513" y="315" type="line" identifier="MCjMtHmM2k"/>
      <point x="313" y="315" type="line" identifier="bBvG92HYFT"/>
      <point x="313" y="295" type="line" identifier="Da39uwnuPa"/>
      <point x="491" y="295" type="line" identifier="zBXXZr4sI9"/>
      <point x="491" y="195" type="line" smooth="yes" identifier="uATp5f4t8e"/>
      <point x="491" y="86" identifier="jKCwVniERP"/>
      <point x="424" y="8" identifier="pbXq9OBHW2"/>
      <point x="313" y="8" type="curve" smooth="yes" identifier="cUhx1MIESw"/>
      <point x="174" y="8" identifier="84lGeRUsYt"/>
      <point x="99" y="112" identifier="9lSxfkTD33"/>
      <point x="99" y="317" type="curve" smooth="yes" identifier="1YOaFDiqxV"/>
      <point x="99" y="381" type="line" smooth="yes" identifier="gI0PDT3ttP"/>
      <point x="99" y="586" identifier="e8ucbisASu"/>
      <point x="174" y="690" identifier="51iElwrWTi"/>
      <point x="313" y="690" type="curve" smooth="yes" identifier="ZtvSGjRG0p"/>
      <point x="396" y="690" identifier="95cXjNCYtn"/>
      <point x="458" y="641" identifier="ufR82tL01f"/>
      <point x="484" y="562" type="curve" identifier="XFQR7YxlyW"/>
      <point x="503" y="569" type="line" identifier="934Vxip1T2"/>
      <point x="474" y="655" identifier="Fyj72IdrEO"/>
      <point x="405" y="710" identifier="QFHdBGR31x"/>
      <point x="313" y="710" type="curve" smooth="yes" identifier="0usAFNgWQe"/>
      <point x="161" y="710" identifier="5MDaxbkvNF"/>
      <point x="75" y="605" identifier="Rsisfd5IZf"/>
      <point x="75" y="349" type="curve" smooth="yes" identifier="fnrcmxVRVh"/>
      <point x="75" y="93" identifier="uz4E4W1Vvt"/>
      <point x="161" y="-12" identifier="4dgd7jynDj"/>
      <point x="313" y="-12" type="curve" smooth="yes" identifier="NiKFZBpiAA"/>
      <point x="417" y="-12" identifier="ELwmugF9vL"/>
      <point x="461" y="38" identifier="4d7mJ1208U"/>
      <point x="488" y="103" type="curve" identifier="TDGR27sBsD"/>
      <point x="491" y="103" type="line" identifier="Tdeo14D9D0"/>
    </contour>
  </outline>
</glyph>
<glyph name="H" format="2">
  <advance width="600"/>
  <unicode hex="0048"/>
  <anchor x="300.0" y="0.0" name="bottom"/>
  <anchor x="300.0" y="698.0" name="top"/>
  <outline>
    <contour>
      <point x="480" y="0" type="line" identifier="Phg3U4MujD"/>
      <point x="502" y="0" type="line" identifier="zmIjEBwpv0"/>
      <point x="502" y="698" type="line" identifier="99aAs8SHBJ"/>
      <point x="480" y="698" type="line" identifier="AwPlcnPphO"/>
      <point x="480" y="364" type="line" identifier="3VtCUHgeiq"/>
      <point x="120" y="364" type="line" identifier="dcdnIWQHCE"/>
      <point x="120" y="698" type="line" identifier="9Q1KsYFLNU"/>
      <point x="98" y="698" type="line" identifier="cntnwNjlKN"/>
      <point x="98" y="0" type="line" identifier="CvrrdtPYcW"/>
      <point x="120" y="0" type="line" identifier="baQZMnUouw"/>
      <point x="120" y="344" type="line" identifier="VsQZ78Le9G"/>
      <point x="480" y="344" type="line" identifier="cQBYwe8MXq"/>
    </contour>
  </outline>
</glyph>
<glyph name="I" format="2">
  <advance width="600"/>
  <unicode hex="0049"/>
  <anchor x="300.0" y="0.0" name="bottom"/>
  <anchor x="508.0" y="0.0" name="bottomright"/>
  <anchor x="300.0" y="698.0" name="top"/>
  <outline>
    <contour>
      <point x="508" y="0" type="line" identifier="uj5cYmgmuG"/>
      <point x="508" y="19" type="line" identifier="PMnIP9y4FL"/>
      <point x="311" y="19" type="line" identifier="Q6ZfVQGjn7"/>
      <point x="311" y="679" type="line" identifier="rS7bdXVwCs"/>
      <point x="508" y="679" type="line" identifier="KZkN5eeP1T"/>
      <point x="508" y="698" type="line" identifier="QrEXbIBGU7"/>
      <point x="92" y="698" type="line" identifier="6oSlmbti3I"/>
      <point x="92" y="679" type="line" identifier="glkucHOi6B"/>
      <point x="289" y="679" type="line" identifier="9kb7wR2iQo"/>
      <point x="289" y="19" type="line" identifier="mgcXvWRnC0"/>
      <point x="92" y="19" type="line" identifier="KwqFuJgFsu"/>
      <point x="92" y="0" type="line" identifier="61Y7XAUsWi"/>
    </contour>
  </outline>
</glyph>
<glyph name="J" format="2">
  <advance width="600"/>
  <unicode hex="004A"/>
  <anchor x="279.0" y="0.0" name="bottom"/>
  <anchor x="306.0" y="698.0" name="top"/>
  <outline>
    <contour>
      <point x="157" y="698" type="line" identifier="VhRtPJfXoZ"/>
      <point x="157" y="678" type="line" identifier="Bg4pCSyV9W"/>
      <point x="439" y="678" type="line" identifier="i9b0MhyZYy"/>
      <point x="439" y="191" type="line" smooth="yes" identifier="nWpOGamxhk"/>
      <point x="439" y="73" identifier="2mvBylbquA"/>
      <point x="379" y="8" identifier="H5j9PK4f1J"/>
      <point x="277" y="8" type="curve" smooth="yes" identifier="pB3xqZbzjM"/>
      <point x="187" y="8" identifier="OyKUXawbCk"/>
      <point x="134" y="53" identifier="xLenHo23RB"/>
      <point x="117" y="124" type="curve" identifier="6n8nTdwsuK"/>
      <point x="96" y="119" type="line" identifier="Zp8AfTgVy3"/>
      <point x="114" y="37" identifier="WEqAQM0tZ4"/>
      <point x="181" y="-12" identifier="8vPGFfA5pk"/>
      <point x="277" y="-12" type="curve" smooth="yes" identifier="1lFYNGNClX"/>
      <point x="389" y="-12" identifier="eWKmUbSRLu"/>
      <point x="461" y="60" identifier="xH716MiK1L"/>
      <point x="461" y="189" type="curve" smooth="yes" identifier="IFhfQPpU30"/>
      <point x="461" y="698" type="line" identifier="hzNiMOYfMe"/>
    </contour>
  </outline>
</glyph>
<glyph name="K" format="2">
  <advance width="600"/>
  <unicode hex="004B"/>
  <anchor x="323.0" y="0.0" name="bottom"/>
  <anchor x="313.0" y="698.0" name="top"/>
  <outline>
    <contour>
      <point x="522" y="0" type="line" identifier="XshBulSam4"/>
      <point x="548" y="0" type="line" identifier="OKmDZFbaP2"/>
      <point x="280" y="403" type="line" identifier="DrOyXp61br"/>
      <point x="545" y="698" type="line" identifier="DtHw8ZWmkT"/>
      <point x="519" y="698" type="line" identifier="6WNG0HW0Tk"/>
      <point x="269" y="421" type="line" identifier="bIjmIOdI96"/>
      <point x="132" y="269" type="line" identifier="r4x6UgKk4m"/>
      <point x="130" y="269" type="line" identifier="TgzfQZXjop"/>
      <point x="130" y="698" type="line" identifier="pyEFGUFFoH"/>
      <point x="108" y="698" type="line" identifier="q8tmMmndf0"/>
      <point x="108" y="0" type="line" identifier="Q5yIkg14kz"/>
      <point x="130" y="0" type="line" identifier="cd0qpDfQow"/>
      <point x="130" y="239" type="line" identifier="W32QH13Zsj"/>
      <point x="264" y="387" type="line" identifier="Q6itfKvgrX"/>
    </contour>
  </outline>
</glyph>
<glyph name="L" format="2">
  <advance width="600"/>
  <unicode hex="004C"/>
  <anchor x="337.0" y="0.0" name="bottom"/>
  <anchor x="156.0" y="698.0" name="top"/>
  <anchor x="273.0" y="740.0" name="topright"/>
  <outline>
    <contour>
      <point x="528" y="0" type="line" identifier="lpBCA7YAgl"/>
      <point x="528" y="20" type="line" identifier="u8Dgb7dcb7"/>
      <point x="168" y="20" type="line" identifier="ZFm4S3KSh5"/>
      <point x="168" y="698" type="line" identifier="3SPIc6xcF7"/>
      <point x="146" y="698" type="line" identifier="GlDrNZ1OCd"/>
      <point x="146" y="0" type="line" identifier="1DaZWdp081"/>
    </contour>
  </outline>
</glyph>
<glyph name="M" format="2">
  <advance width="600"/>
  <unicode hex="004D"/>
  <anchor x="300.0" y="0.0" name="bottom"/>
  <anchor x="300.0" y="698.0" name="top"/>
  <outline>
    <contour>
      <point x="494" y="0" type="line" identifier="KsPspskzxh"/>
      <point x="515" y="0" type="line" identifier="lDEOVHmlW1"/>
      <point x="515" y="698" type="line" identifier="tqentaN8OF"/>
      <point x="483" y="698" type="line" identifier="FfvlvNdBlw"/>
      <point x="302" y="295" type="line" identifier="LLKNkVoWu7"/>
      <point x="299" y="295" type="line" identifier="beAXpv0TZf"/>
      <point x="117" y="698" type="line" identifier="deedElLVQH"/>
      <point x="85" y="698" type="line" identifier="3cG1CSI6CR"/>
      <point x="85" y="0" type="line" identifier="jMdV4b1mBY"/>
      <point x="106" y="0" type="line" identifier="JIxortuhYs"/>
      <point x="106" y="667" type="line" identifier="3Vo16Z5pKH"/>
      <point x="109" y="667" type="line" identifier="aoNcfV0E0Z"/>
      <point x="300" y="245" type="line" identifier="wbQ9eiNHS1"/>
      <point x="491" y="667" type="line" identifier="9f8aawkToj"/>
      <point x="494" y="667" type="line" identifier="mRLFjSJzKY"/>
    </contour>
  </outline>
</glyph>
<glyph name="N" format="2">
  <advance width="600"/>
  <unicode hex="004E"/>
  <anchor x="300.0" y="0.0" name="bottom"/>
  <anchor x="300.0" y="698.0" name="top"/>
  <outline>
    <contour>
      <point x="470" y="0" type="line" identifier="4LkmKzETW7"/>
      <point x="502" y="0" type="line" identifier="ziIG5pDlvN"/>
      <point x="502" y="698" type="line" identifier="7Io6TENZhW"/>
      <point x="481" y="698" type="line" identifier="hA8pjGt5lm"/>
      <point x="481" y="30" type="line" identifier="GvSFcQ8uF3"/>
      <point x="478" y="30" type="line" identifier="zFghWTSTqc"/>
      <point x="130" y="698" type="line" identifier="9or9iNJ8O6"/>
      <point x="98" y="698" type="line" identifier="D29NtHLJMx"/>
      <point x="98" y="0" type="line" identifier="bAb0p90ivX"/>
      <point x="119" y="0" type="line" identifier="heRlbqLSS2"/>
      <point x="119" y="668" type="line" identifier="uc95nMRttK"/>
      <point x="122" y="668" type="line" identifier="qN7eLhi3Y0"/>
    </contour>
  </outline>
</glyph>
<glyph name="O" format="2">
  <advance width="600"/>
  <unicode hex="004F"/>
  <anchor x="300.0" y="0.0" name="bottom"/>
  <anchor x="300.0" y="698.0" name="top"/>
  <outline>
    <contour>
      <point x="300" y="-12" type="curve" smooth="yes" identifier="0V7aVqeFrF"/>
      <point x="446" y="-12" identifier="w9JNzmvg1w"/>
      <point x="529" y="93" identifier="Yba6YWRGZ6"/>
      <point x="529" y="349" type="curve" smooth="yes" identifier="oSsFbeXbS6"/>
      <point x="529" y="605" identifier="5ADKMY0rDu"/>
      <point x="446" y="710" identifier="fvpXq846uf"/>
      <point x="300" y="710" type="curve" smooth="yes" identifier="FMjfze3D0d"/>
      <point x="154" y="710" identifier="KhlemsZGyv"/>
      <point x="71" y="605" identifier="p5iwynYTtI"/>
      <point x="71" y="349" type="curve" smooth="yes" identifier="oGJBNbNHTG"/>
      <point x="71" y="93" identifier="7KNjFOFD0i"/>
      <point x="154" y="-12" identifier="QGWjfl9MMy"/>
    </contour>
    <contour>
      <point x="300" y="8" type="curve" smooth="yes" identifier="kdcdgp44P1"/>
      <point x="167" y="8" identifier="ZiBAMnTms5"/>
      <point x="95" y="112" identifier="FcqGWN8mCD"/>
      <point x="95" y="317" type="curve" smooth="yes" identifier="EEmhTqZOKd"/>
      <point x="95" y="381" type="line" smooth="yes" identifier="rQq8rBFiLs"/>
      <point x="95" y="586" identifier="X20LJini0h"/>
      <point x="167" y="690" identifier="w9rVsyWq7o"/>
      <point x="300" y="690" type="curve" smooth="yes" identifier="a760XRfCST"/>
      <point x="433" y="690" identifier="NTavxEtaWJ"/>
      <point x="505" y="586" identifier="EDtYXntIYg"/>
      <point x="505" y="381" type="curve" smooth="yes" identifier="2dIkuKNDr9"/>
      <point x="505" y="317" type="line" smooth="yes" identifier="4ZiG4cJyH9"/>
      <point x="505" y="112" identifier="3W0SpIPvtz"/>
      <point x="433" y="8" identifier="tWG2OvAIy2"/>
    </contour>
  </outline>
</glyph>
<glyph name="P" format="2">
  <advance width="600"/>
  <unicode hex="0050"/>
  <anchor x="115.0" y="0.0" name="bottom"/>
  <anchor x="300.0" y="698.0" name="top"/>
  <outline>
    <contour>
      <point x="130" y="0" type="line" identifier="CYkuuBJhR4"/>
      <point x="130" y="322" type="line" identifier="hlzet6kZTd"/>
      <point x="352" y="322" type="line" smooth="yes" identifier="O3aIItBv0C"/>
      <point x="466" y="322" identifier="lA1dmpH1Tn"/>
      <point x="526" y="396" identifier="5bxbF6KV5j"/>
      <point x="526" y="510" type="curve" smooth="yes" identifier="raYFjiupST"/>
      <point x="526" y="624" identifier="FJO07x5AvG"/>
      <point x="466" y="698" identifier="6WMRxAkbWB"/>
      <point x="352" y="698" type="curve" smooth="yes" identifier="7JyRBJM7l0"/>
      <point x="108" y="698" type="line" identifier="SpL8pIBLEO"/>
      <point x="108" y="0" type="line" identifier="pBbbOtzfyG"/>
    </contour>
    <contour>
      <point x="130" y="678" type="line" identifier="lDSHSwaqJj"/>
      <point x="352" y="678" type="line" smooth="yes" identifier="Xt7vgIBHJH"/>
      <point x="455" y="678" identifier="qbYr2SpOdR"/>
      <point x="502" y="607" identifier="PA1o81LN3r"/>
      <point x="502" y="531" type="curve" smooth="yes" identifier="jWj4O2BxfQ"/>
      <point x="502" y="489" type="line" smooth="yes" identifier="oX4kIfZtpp"/>
      <point x="502" y="413" identifier="RJBSNPf4rD"/>
      <point x="455" y="342" identifier="qSNwpHorRo"/>
      <point x="352" y="342" type="curve" smooth="yes" identifier="lkEuJ8d1E4"/>
      <point x="130" y="342" type="line" identifier="8B0u3IZgkU"/>
    </contour>
  </outline>
</glyph>
<glyph name="Q" format="2">
  <advance width="600"/>
  <unicode hex="0051"/>
  <anchor x="300.0" y="698.0" name="top"/>
  <outline>
    <contour>
      <point x="475" y="-116" type="line" identifier="PzTuoQtExd"/>
      <point x="311" y="-116" type="line" identifier="NV5WsMB64u"/>
      <point x="311" y="-12" type="line" identifier="2VJbu4Th4m"/>
      <point x="450" y="-6" identifier="gRDV3ap6wJ"/>
      <point x="529" y="99" identifier="M50ESwHUHT"/>
      <point x="529" y="349" type="curve" smooth="yes" identifier="FfAAwjlAtt"/>
      <point x="529" y="605" identifier="tlh8fE8QPN"/>
      <point x="446" y="710" identifier="2zBlg3XMO6"/>
      <point x="300" y="710" type="curve" smooth="yes" identifier="rB0e8DcGDc"/>
      <point x="154" y="710" identifier="u16zcZet1i"/>
      <point x="71" y="605" identifier="CoQuewx0zq"/>
      <point x="71" y="349" type="curve" smooth="yes" identifier="4BlR5Y6Jv0"/>
      <point x="71" y="99" identifier="u24kKcVWne"/>
      <point x="149" y="-6" identifier="yCugZe8mf4"/>
      <point x="289" y="-12" type="curve" identifier="oFn68k1IVT"/>
      <point x="289" y="-107" type="line" smooth="yes" identifier="gVnDaDFXPW"/>
      <point x="289" y="-127" identifier="1R7RRb05Cp"/>
      <point x="299" y="-136" identifier="SfSL8DZmIx"/>
      <point x="319" y="-136" type="curve" identifier="ijbZUIkwNM"/>
      <point x="475" y="-136" type="line" identifier="kfVHidcq0A"/>
    </contour>
    <contour>
      <point x="300" y="8" type="curve" smooth="yes" identifier="WpQx6AfjOI"/>
      <point x="167" y="8" identifier="NEYxcoyt6i"/>
      <point x="95" y="112" identifier="2lAkaU7kKu"/>
      <point x="95" y="317" type="curve" smooth="yes" identifier="P9Cz5u5Yrh"/>
      <point x="95" y="381" type="line" smooth="yes" identifier="vUsv59hkiQ"/>
      <point x="95" y="586" identifier="bCaRztQthb"/>
      <point x="167" y="690" identifier="IAPETizGc7"/>
      <point x="300" y="690" type="curve" smooth="yes" identifier="w7NNAqGedh"/>
      <point x="433" y="690" identifier="RNAEC7aHDz"/>
      <point x="505" y="586" identifier="xrQUUOe6qD"/>
      <point x="505" y="381" type="curve" smooth="yes" identifier="dGN4oN9c9t"/>
      <point x="505" y="317" type="line" smooth="yes" identifier="PgzePMfBRX"/>
      <point x="505" y="112" identifier="SqLx2NVACX"/>
      <point x="433" y="8" identifier="eIQ8yOqY7x"/>
    </contour>
  </outline>
</glyph>
<glyph name="R" format="2">
  <advance width="600"/>
  <unicode hex="0052"/>
  <anchor x="302.0" y="0.0" name="bottom"/>
  <anchor x="299.0" y="698.0" name="top"/>
  <outline>
    <contour>
      <point x="130" y="322" type="line" identifier="EzRIH8QwsI"/>
      <point x="289" y="322" type="line" identifier="WW5ewCCUCm"/>
      <point x="495" y="0" type="line" identifier="VKudWtcJx0"/>
      <point x="521" y="0" type="line" identifier="9iTXMUe5xK"/>
      <point x="314" y="322" type="line" identifier="7Aedm8cpAS"/>
      <point x="352" y="322" type="line" smooth="yes" identifier="xNUNpl1A1T"/>
      <point x="466" y="322" identifier="Gp77gPWRtj"/>
      <point x="526" y="396" identifier="ERl2n5Ef21"/>
      <point x="526" y="510" type="curve" smooth="yes" identifier="OjyYGnSPh3"/>
      <point x="526" y="624" identifier="GsV6keWp4q"/>
      <point x="466" y="698" identifier="52VQ83d2T0"/>
      <point x="352" y="698" type="curve" smooth="yes" identifier="jYpPqz2ksS"/>
      <point x="108" y="698" type="line" identifier="xEpA2Ol6Qe"/>
      <point x="108" y="0" type="line" identifier="lf6rNRqVw7"/>
      <point x="130" y="0" type="line" identifier="pt4YIafrOj"/>
    </contour>
    <contour>
      <point x="130" y="342" type="line" identifier="jYP9P0vtLn"/>
      <point x="130" y="678" type="line" identifier="2TyQXBEZhY"/>
      <point x="352" y="678" type="line" smooth="yes" identifier="jLjleekcYx"/>
      <point x="455" y="678" identifier="hvQqolBpwz"/>
      <point x="502" y="607" identifier="0SQl5TlGmq"/>
      <point x="502" y="531" type="curve" smooth="yes" identifier="gYxdC49SAQ"/>
      <point x="502" y="489" type="line" smooth="yes" identifier="WrmxJ0HyIU"/>
      <point x="502" y="413" identifier="B4i7k9L7rZ"/>
      <point x="455" y="342" identifier="IQLycgFpzo"/>
      <point x="352" y="342" type="curve" smooth="yes" identifier="7U8NsPlA6J"/>
    </contour>
  </outline>
</glyph>
<glyph name="S" format="2">
  <advance width="600"/>
  <unicode hex="0053"/>
  <anchor x="302.0" y="0.0" name="bottom"/>
  <anchor x="292.0" y="698.0" name="top"/>
  <outline>
    <contour>
      <point x="304" y="-12" type="curve" smooth="yes" identifier="G5C6G7nX6c"/>
      <point x="440" y="-12" identifier="PPnCP6hyy4"/>
      <point x="527" y="52" identifier="qR3ZxV1m1S"/>
      <point x="527" y="177" type="curve" smooth="yes" identifier="Tho98zovsv"/>
      <point x="527" y="259" identifier="Yvv3KeFfTV"/>
      <point x="492" y="338" identifier="EWdBmGsser"/>
      <point x="345" y="362" type="curve" smooth="yes" identifier="GbCxVFVzj8"/>
      <point x="265" y="375" type="line" smooth="yes" identifier="kOWXdS7p3V"/>
      <point x="178" y="389" identifier="IFlh0QzC1K"/>
      <point x="104" y="426" identifier="dglUyDM8XK"/>
      <point x="104" y="535" type="curve" smooth="yes" identifier="sdfTWSHsdw"/>
      <point x="104" y="639" identifier="TSStvTzDFS"/>
      <point x="177" y="690" identifier="eozM8xA2KA"/>
      <point x="297" y="690" type="curve" smooth="yes" identifier="vGVn0NRGa2"/>
      <point x="397" y="690" identifier="kfhLvyyR5C"/>
      <point x="458" y="659" identifier="UJ4dL0AmZV"/>
      <point x="499" y="599" type="curve" identifier="MWn3d0OwJc"/>
      <point x="516" y="613" type="line" identifier="RJsGpc26ml"/>
      <point x="477" y="670" identifier="G3JxAFC79d"/>
      <point x="413" y="710" identifier="Lf3iJ3zk5s"/>
      <point x="299" y="710" type="curve" smooth="yes" identifier="ZyW4ivxdZu"/>
      <point x="168" y="710" identifier="B1XqTKNr74"/>
      <point x="82" y="653" identifier="0Abgtoezke"/>
      <point x="82" y="535" type="curve" smooth="yes" identifier="yr8vPh8RQM"/>
      <point x="82" y="453" identifier="oGsjurhxxV"/>
      <point x="120" y="377" identifier="HAhk8YYljx"/>
      <point x="261" y="354" type="curve" smooth="yes" identifier="rVfmUsXD5O"/>
      <point x="341" y="341" type="line" smooth="yes" identifier="iJcJrWgpvi"/>
      <point x="427" y="327" identifier="COg3Jss5kv"/>
      <point x="505" y="292" identifier="DFKcrAb55p"/>
      <point x="505" y="176" type="curve" smooth="yes" identifier="ZRUcaLe982"/>
      <point x="505" y="66" identifier="V5NEAw5S9H"/>
      <point x="431" y="8" identifier="NFrtaasifc"/>
      <point x="304" y="8" type="curve" smooth="yes" identifier="relTPnxBcK"/>
      <point x="190" y="8" identifier="ZQ3K2YyHmq"/>
      <point x="133" y="51" identifier="Vt7uBTiqS6"/>
      <point x="84" y="115" type="curve" identifier="0FHTXOcdHY"/>
      <point x="66" y="102" type="line" identifier="UL42XtuEHw"/>
      <point x="116" y="36" identifier="pvV4Kv8Zx7"/>
      <point x="181" y="-12" identifier="YWLxISpAuv"/>
    </contour>
  </outline>
</glyph>
<glyph name="T" format="2">
  <advance width="600"/>
  <unicode hex="0054"/>
  <anchor x="300.0" y="0.0" name="bottom"/>
  <anchor x="300.0" y="698.0" name="top"/>
  <outline>
    <contour>
      <point x="559" y="678" type="line" identifier="zRU67z8i08"/>
      <point x="559" y="698" type="line" identifier="k0Y0AT61WS"/>
      <point x="41" y="698" type="line" identifier="KZjktWaIYT"/>
      <point x="41" y="678" type="line" identifier="eUfxdq3p00"/>
      <point x="289" y="678" type="line" identifier="k7jeoWXEDd"/>
      <point x="289" y="0" type="line" identifier="Zzpi66GfBN"/>
      <point x="311" y="0" type="line" identifier="GbWfg8bqS2"/>
      <point x="311" y="678" type="line" identifier="8EzocDMe7w"/>
    </contour>
  </outline>
</glyph>
<glyph name="U" format="2">
  <advance width="600"/>
  <unicode hex="0055"/>
  <anchor x="300.0" y="0.0" name="bottom"/>
  <anchor x="390.0" y="0.0" name="bottomright"/>
  <anchor x="300.0" y="698.0" name="top"/>
  <outline>
    <contour>
      <point x="98" y="698" type="line" identifier="FBWq90dIEb"/>
      <point x="98" y="273" type="line" smooth="yes" identifier="jMJJqUjzru"/>
      <point x="98" y="54" identifier="oNbxKB4e6b"/>
      <point x="147" y="-12" identifier="tYpypj6Sf0"/>
      <point x="300" y="-12" type="curve" smooth="yes" identifier="WlYmkH9LQg"/>
      <point x="453" y="-12" identifier="GR5DMweKAC"/>
      <point x="502" y="54" identifier="VBTLydodY7"/>
      <point x="502" y="273" type="curve" smooth="yes" identifier="p7wq99LWSS"/>
      <point x="502" y="698" type="line" identifier="CD8dB6BPfL"/>
      <point x="480" y="698" type="line" identifier="EVkvv5Z9bK"/>
      <point x="480" y="273" type="line" smooth="yes" identifier="RilCElZWip"/>
      <point x="480" y="67" identifier="OmFV5GLFSy"/>
      <point x="440" y="8" identifier="vcL6sMiE55"/>
      <point x="300" y="8" type="curve" smooth="yes" identifier="nCrrCr7l4J"/>
      <point x="160" y="8" identifier="Z8XE6ZLEeM"/>
      <point x="120" y="67" identifier="5BmteA2d3M"/>
      <point x="120" y="273" type="curve" smooth="yes" identifier="YtrJbuZxBV"/>
      <point x="120" y="698" type="line" identifier="KiSq6ONln5"/>
    </contour>
  </outline>
</glyph>
<glyph name="V" format="2">
  <advance width="600"/>
  <unicode hex="0056"/>
  <anchor x="300.0" y="0.0" name="bottom"/>
  <anchor x="300.0" y="698.0" name="top"/>
  <outline>
    <contour>
      <point x="315" y="0" type="line" identifier="eOIjHVnSjH"/>
      <point x="545" y="698" type="line" identifier="eqQSfXoy6X"/>
      <point x="523" y="698" type="line" identifier="PAMQvFLFjq"/>
      <point x="302" y="25" type="line" identifier="YRd1Z7GVKe"/>
      <point x="299" y="25" type="line" identifier="nc86JYTjOd"/>
      <point x="79" y="698" type="line" identifier="5yXlKziIR4"/>
      <point x="55" y="698" type="line" identifier="VJV5PXtpdK"/>
      <point x="285" y="0" type="line" identifier="OWnil7wiAS"/>
    </contour>
  </outline>
</glyph>
<glyph name="W" format="2">
  <advance width="600"/>
  <unicode hex="0057"/>
  <anchor x="300.0" y="0.0" name="bottom"/>
  <anchor x="300.0" y="698.0" name="top"/>
  <outline>
    <contour>
      <point x="164" y="0" type="line" identifier="V8F8FUuFC0"/>
      <point x="299" y="454" type="line" identifier="wfiXafRtbs"/>
      <point x="302" y="454" type="line" identifier="QIOO1hKDzN"/>
      <point x="436" y="0" type="line" identifier="zhoLqLAceO"/>
      <point x="474" y="0" type="line" identifier="CwgI2tvHbh"/>
      <point x="542" y="698" type="line" identifier="YMc6dtzFJq"/>
      <point x="522" y="698" type="line" identifier="5OkKNMShcP"/>
      <point x="456" y="22" type="line" identifier="I5myUBiPCb"/>
      <point x="452" y="22" type="line" identifier="uo0ZDHyYYz"/>
      <point x="314" y="484" type="line" identifier="6OiR6XZbNG"/>
      <point x="287" y="484" type="line" identifier="bHX4uoWRxM"/>
      <point x="149" y="22" type="line" identifier="LDF8VHEOFc"/>
      <point x="145" y="22" type="line" identifier="L0VLqUGO7e"/>
      <point x="79" y="698" type="line" identifier="jFBUGKgWl2"/>
      <point x="58" y="698" type="line" identifier="8Ecz0IxF3L"/>
      <point x="126" y="0" type="line" identifier="Xm6g5pcWup"/>
    </contour>
  </outline>
</glyph>
<glyph name="X" format="2">
  <advance width="600"/>
  <unicode hex="0058"/>
  <anchor x="300.0" y="0.0" name="bottom"/>
  <anchor x="300.0" y="698.0" name="top"/>
  <outline>
    <contour>
      <point x="314" y="357" type="line" identifier="aoKf83V1OB"/>
      <point x="542" y="698" type="line" identifier="riejH5be94"/>
      <point x="516" y="698" type="line" identifier="Ja6jOhf307"/>
      <point x="302" y="375" type="line" identifier="LPzyL41EGb"/>
      <point x="299" y="375" type="line" identifier="OKHx1bHQSW"/>
      <point x="85" y="698" type="line" identifier="GxIq4acUT3"/>
      <point x="58" y="698" type="line" identifier="gBEu4LM3LA"/>
      <point x="287" y="354" type="line" identifier="NJelxKK8Dy"/>
      <point x="49" y="0" type="line" identifier="gW5YcZbwZe"/>
      <point x="75" y="0" type="line" identifier="hjNSKOJHod"/>
      <point x="299" y="336" type="line" identifier="0K2tiut4Pw"/>
      <point x="302" y="336" type="line" identifier="IVped6eTJz"/>
      <point x="524" y="0" type="line" identifier="yhuLLjpdri"/>
      <point x="551" y="0" type="line" identifier="yVnKKsPoht"/>
    </contour>
  </outline>
</glyph>
<glyph name="Y" format="2">
  <advance width="600"/>
  <unicode hex="0059"/>
  <anchor x="300.0" y="0.0" name="bottom"/>
  <anchor x="300.0" y="698.0" name="top"/>
  <outline>
    <contour>
      <point x="311" y="0" type="line" identifier="Y7ZgxrekJW"/>
      <point x="311" y="294" type="line" identifier="vJWiXcJ9KN"/>
      <point x="572" y="698" type="line" identifier="wSEx5xsWBM"/>
      <point x="548" y="698" type="line" identifier="DAdus0hmeY"/>
      <point x="302" y="318" type="line" identifier="FJxVeJHQUN"/>
      <point x="299" y="318" type="line" identifier="TaWEBEsHwl"/>
      <point x="53" y="698" type="line" identifier="XYxL8gMGMl"/>
      <point x="28" y="698" type="line" identifier="v7E7WfhwZW"/>
      <point x="289" y="294" type="line" identifier="j8FdQYeGDu"/>
      <point x="289" y="0" type="line" identifier="dcHZWRJXb6"/>
    </contour>
  </outline>
</glyph>
<glyph name="Z" format="2">
  <advance width="600"/>
  <unicode hex="005A"/>
  <anchor x="301.0" y="0.0" name="bottom"/>
  <anchor x="300.0" y="698.0" name="top"/>
  <outline>
    <contour>
      <point x="552" y="20" type="line" identifier="8kUeHRKEdd"/>
      <point x="72" y="20" type="line" identifier="ssGZ09S5pI"/>
      <point x="529" y="676" type="line" identifier="9HB4UDEyec"/>
      <point x="529" y="698" type="line" identifier="R1Xfya8tD3"/>
      <point x="71" y="698" type="line" identifier="v3FQUJ7epe"/>
      <point x="71" y="678" type="line" identifier="xjbBpcxZeF"/>
      <point x="505" y="678" type="line" identifier="QbrGvFq63W"/>
      <point x="48" y="22" type="line" identifier="kvsgDjOCdv"/>
      <point x="48" y="0" type="line" identifier="E9ke3NQEqi"/>
      <point x="552" y="0" type="line" identifier="PtMihWDKQp"/>
    </contour>
  </outline>
</glyph>
<glyph name="bracketleft" format="2">
  <advance width="600"/>
  <unicode hex="005B"/>
  <outline>
    <contour>
      <point x="503" y="-138" type="line" identifier="O0wDaJFElY"/>
      <point x="503" y="-120" type="line" identifier="2m1GxajFTj"/>
      <point x="285" y="-120" type="line" identifier="cGAZroJGGD"/>
      <point x="285" y="742" type="line" identifier="RPbnvOxkcY"/>
      <point x="503" y="742" type="line" identifier="wz5OPK7LL9"/>
      <point x="503" y="760" type="line" identifier="tGRlXD6PXl"/>
      <point x="265" y="760" type="line" identifier="t9XsQrLuE2"/>
      <point x="265" y="-138" type="line" identifier="gs8k6GkGm0"/>
    </contour>
  </outline>
</glyph>
<glyph name="backslash" format="2">
  <advance width="600"/>
  <unicode hex="005C"/>
  <outline>
    <contour>
      <point x="495" y="-138" type="line" identifier="Xrj5u9wYtS"/>
      <point x="124" y="760" type="line" identifier="y0XMXeATuO"/>
      <point x="105" y="760" type="line" identifier="rgsE1PX5tH"/>
      <point x="476" y="-138" type="line" identifier="K5iXHMgGHm"/>
    </contour>
  </outline>
</glyph>
<glyph name="bracketright" format="2">
  <advance width="600"/>
  <unicode hex="005D"/>
  <outline>
    <contour>
      <point x="97" y="760" type="line" identifier="x79i2epWl0"/>
      <point x="97" y="742" type="line" identifier="8ZmgSa9ZxT"/>
      <point x="315" y="742" type="line" identifier="rE6Hq9kbaJ"/>
      <point x="315" y="-120" type="line" identifier="7M6wlMfLPn"/>
      <point x="97" y="-120" type="line" identifier="TqQoSsl0ii"/>
      <point x="97" y="-138" type="line" identifier="eXYP9qqlTt"/>
      <point x="335" y="-138" type="line" identifier="jb4AhvZHVW"/>
      <point x="335" y="760" type="line" identifier="x3G0Ycr4vb"/>
    </contour>
  </outline>
</glyph>
<glyph name="asciicircum" format="2">
  <advance width="600"/>
  <unicode hex="005E"/>
  <outline>
    <contour>
      <point x="532" y="332" type="line" identifier="x3c2FfmEYd"/>
      <point x="311" y="698" type="line" identifier="U2WqiHlcO5"/>
      <point x="289" y="698" type="line" identifier="zWJyj5UjNF"/>
      <point x="68" y="332" type="line" identifier="QXDK4Yvl4j"/>
      <point x="86" y="322" type="line" identifier="hSNXdIVR4N"/>
      <point x="299" y="676" type="line" identifier="VIooG3SEH9"/>
      <point x="301" y="676" type="line" identifier="nDwrBeccWj"/>
      <point x="514" y="322" type="line" identifier="tuzL1iDLqP"/>
    </contour>
  </outline>
</glyph>
<glyph name="underscore" format="2">
  <advance width="600"/>
  <unicode hex="005F"/>
  <outline>
    <contour>
      <point x="540" y="-141" type="line" identifier="KJYSEKWdqs"/>
      <point x="540" y="-122" type="line" identifier="XNkMhsk5Cn"/>
      <point x="60" y="-122" type="line" identifier="lX3WAVvmwL"/>
      <point x="60" y="-141" type="line" identifier="qMANTucteR"/>
    </contour>
  </outline>
</glyph>
<glyph name="grave" format="2">
  <advance width="600"/>
  <unicode hex="0060"/>
  <anchor x="300.0" y="516.0" name="_top"/>
  <outline>
    <contour>
      <point x="317" y="597" type="line" identifier="I1uyyRMvuw"/>
      <point x="332" y="607" type="line" identifier="wdcxCDl5oz"/>
      <point x="221" y="761" type="line" identifier="Bms42PDUgF"/>
      <point x="202" y="749" type="line" identifier="o1DySaWL4p"/>
    </contour>
  </outline>
</glyph>
<glyph name="a" format="2">
  <advance width="600"/>
  <unicode hex="0061"/>
  <anchor x="275.0" y="0.0" name="bottom"/>
  <anchor x="531.0" y="0.0" name="bottomright"/>
  <anchor x="275.0" y="516.0" name="top"/>
  <outline>
    <contour>
      <point x="531" y="0" type="line" identifier="6ek680Jtzn"/>
      <point x="531" y="19" type="line" identifier="fCzxyxTpUW"/>
      <point x="446" y="19" type="line" identifier="Loi172EeYG"/>
      <point x="446" y="359" type="line" smooth="yes" identifier="vugHlLMT5r"/>
      <point x="446" y="466" identifier="rbJ2G1PcnS"/>
      <point x="383" y="528" identifier="5A5OM7xukv"/>
      <point x="275" y="528" type="curve" smooth="yes" identifier="TQXweDGLhQ"/>
      <point x="183" y="528" identifier="zQsirnqnFI"/>
      <point x="124" y="486" identifier="XoYThZrf5m"/>
      <point x="95" y="420" type="curve" identifier="C6YjEbr789"/>
      <point x="112" y="410" type="line" identifier="EpMXltCkWu"/>
      <point x="141" y="479" identifier="XaCAFBm6hO"/>
      <point x="202" y="509" identifier="UokbAqVABW"/>
      <point x="275" y="509" type="curve" smooth="yes" identifier="di0aMtX1NX"/>
      <point x="368" y="509" identifier="G1crWOcHYn"/>
      <point x="425" y="460" identifier="KQCgbNYOoP"/>
      <point x="425" y="356" type="curve" smooth="yes" identifier="c3pFIgfN9D"/>
      <point x="425" y="275" type="line" identifier="WGeyt9nznL"/>
      <point x="275" y="275" type="line" smooth="yes" identifier="mNN5f2eE0v"/>
      <point x="123" y="275" identifier="ygDXkRJznj"/>
      <point x="78" y="214" identifier="GnqFvvyTlR"/>
      <point x="78" y="130" type="curve" smooth="yes" identifier="IkSRR7yNdQ"/>
      <point x="78" y="39" identifier="eTnHHJMnZv"/>
      <point x="139" y="-12" identifier="3CDPF8QAO9"/>
      <point x="249" y="-12" type="curve" smooth="yes" identifier="YBfMkJoZ3T"/>
      <point x="346" y="-12" identifier="EZup06IJjZ"/>
      <point x="397" y="29" identifier="T1ZbX1PDkb"/>
      <point x="422" y="77" type="curve" identifier="Q6OVeEPCHL"/>
      <point x="425" y="77" type="line" identifier="WTqAEQvUPM"/>
      <point x="425" y="29" type="line" smooth="yes" identifier="i5jiyD13pg"/>
      <point x="425" y="9" identifier="gaj3q3jqwg"/>
      <point x="434" y="0" identifier="5s73H29pnS"/>
      <point x="454" y="0" type="curve" smooth="yes" identifier="xzcdwKzD9f"/>
    </contour>
    <contour>
      <point x="249" y="7" type="curve" smooth="yes" identifier="Daic5JmsH1"/>
      <point x="162" y="7" identifier="Yc2nMeYLNB"/>
      <point x="101" y="45" identifier="vZLWLy8blp"/>
      <point x="101" y="114" type="curve" smooth="yes" identifier="EUS825gtET"/>
      <point x="101" y="146" type="line" smooth="yes" identifier="pwwvZHnCyx"/>
      <point x="101" y="212" identifier="dJb1QID2Uc"/>
      <point x="150" y="257" identifier="Ss6vxgx9T4"/>
      <point x="276" y="257" type="curve" smooth="yes" identifier="tOQwEfB6JU"/>
      <point x="425" y="257" type="line" identifier="BgWERIpHRK"/>
      <point x="425" y="148" type="line" smooth="yes" identifier="QeDpd06Hlw"/>
      <point x="425" y="54" identifier="4d9sVUETrT"/>
      <point x="343" y="7" identifier="maBQFfcWpl"/>
    </contour>
  </outline>
</glyph>
<glyph name="b" format="2">
  <advance width="600"/>
  <unicode hex="0062"/>
  <anchor x="310.0" y="0.0" name="bottom"/>
  <outline>
    <contour>
      <point x="125" y="0" type="line" identifier="UDMjdbmBui"/>
      <point x="146" y="0" type="line" identifier="FIivm6lE9K"/>
      <point x="146" y="78" type="line" identifier="FDgII5Xyg1"/>
      <point x="149" y="78" type="line" identifier="Jb6vwlw25E"/>
      <point x="170" y="34" identifier="Yp2WyV7d3i"/>
      <point x="223" y="-12" identifier="XFfssbtP2E"/>
      <point x="310" y="-12" type="curve" smooth="yes" identifier="R2PQs1hTpv"/>
      <point x="442" y="-12" identifier="DTcufXxgZt"/>
      <point x="520" y="79" identifier="Y4hSZw0k7Q"/>
      <point x="520" y="258" type="curve" smooth="yes" identifier="qogpdRl6WO"/>
      <point x="520" y="437" identifier="FwhSjTyjx4"/>
      <point x="442" y="528" identifier="ionWGFl4Xf"/>
      <point x="310" y="528" type="curve" smooth="yes" identifier="rYOcdWkZzY"/>
      <point x="223" y="528" identifier="lYw8vDRzU7"/>
      <point x="170" y="482" identifier="5qa64SuwqZ"/>
      <point x="149" y="438" type="curve" identifier="zxAWmwQEEJ"/>
      <point x="146" y="438" type="line" identifier="u9KJM7lQ7u"/>
      <point x="146" y="740" type="line" identifier="R3TRlsGEcI"/>
      <point x="125" y="740" type="line" identifier="6TT9f73oyD"/>
    </contour>
    <contour>
      <point x="310" y="7" type="curve" smooth="yes" identifier="hHVLmi8YzR"/>
      <point x="224" y="7" identifier="6DDD6fevke"/>
      <point x="146" y="62" identifier="tPzQVi7dAv"/>
      <point x="146" y="143" type="curve" smooth="yes" identifier="uIXrXcPT4S"/>
      <point x="146" y="373" type="line" smooth="yes" identifier="Y3kSq1i8Ki"/>
      <point x="146" y="454" identifier="LoUZuXVWDp"/>
      <point x="224" y="509" identifier="GA6JVgdBWc"/>
      <point x="310" y="509" type="curve" smooth="yes" identifier="cUwdcEQ22V"/>
      <point x="430" y="509" identifier="pEoMfwKRlO"/>
      <point x="497" y="422" identifier="8jzuwlS3hv"/>
      <point x="497" y="282" type="curve" smooth="yes" identifier="Pl9zXUFPyL"/>
      <point x="497" y="234" type="line" smooth="yes" identifier="MTYZUYxQZu"/>
      <point x="497" y="94" identifier="ABwVtP4HSD"/>
      <point x="430" y="7" identifier="ZQNRhPAGR4"/>
    </contour>
  </outline>
</glyph>
<glyph name="c" format="2">
  <advance width="600"/>
  <unicode hex="0063"/>
  <anchor x="316.0" y="0.0" name="bottom"/>
  <anchor x="320.0" y="516.0" name="top"/>
  <outline>
    <contour>
      <point x="322" y="-12" type="curve" smooth="yes" identifier="uFQBfP1o7D"/>
      <point x="415" y="-12" identifier="gX2hKWrGQF"/>
      <point x="477" y="40" identifier="LIOaaA1VAq"/>
      <point x="503" y="102" type="curve" identifier="NA5DPyvzwh"/>
      <point x="485" y="110" type="line" identifier="HL0KzEGE6h"/>
      <point x="457" y="48" identifier="N1FGMSEDCm"/>
      <point x="402" y="7" identifier="M2nbGYRTaW"/>
      <point x="322" y="7" type="curve" smooth="yes" identifier="AoZ9oWPuZ2"/>
      <point x="201" y="7" identifier="FqWStTikIF"/>
      <point x="133" y="94" identifier="hKc31PGZYY"/>
      <point x="133" y="234" type="curve" smooth="yes" identifier="W0wSu0FGNi"/>
      <point x="133" y="282" type="line" smooth="yes" identifier="aTEkDwTgSw"/>
      <point x="133" y="422" identifier="9GAUUlOVrF"/>
      <point x="201" y="509" identifier="AgqUTt1cwM"/>
      <point x="322" y="509" type="curve" smooth="yes" identifier="aR2ZK3j66S"/>
      <point x="398" y="509" identifier="UDe6bkvgWh"/>
      <point x="452" y="474" identifier="rjgr7YaUMv"/>
      <point x="477" y="410" type="curve" identifier="o030AfrHLh"/>
      <point x="496" y="416" type="line" identifier="sj5jqUoQhB"/>
      <point x="473" y="481" identifier="stzYeshEM5"/>
      <point x="412" y="528" identifier="oJADfHukvA"/>
      <point x="322" y="528" type="curve" smooth="yes" identifier="fd5l3Z1u1e"/>
      <point x="189" y="528" identifier="OgJjG14iGp"/>
      <point x="110" y="437" identifier="VdZMjp1HoU"/>
      <point x="110" y="258" type="curve" smooth="yes" identifier="uu0E6n5E2T"/>
      <point x="110" y="79" identifier="UX60xEOb00"/>
      <point x="189" y="-12" identifier="fX5C7m6Q7f"/>
    </contour>
  </outline>
</glyph>
<glyph name="d" format="2">
  <advance width="600"/>
  <unicode hex="0064"/>
  <anchor x="285.0" y="0.0" name="bottom"/>
  <anchor x="545.0" y="740.0" name="topright"/>
  <outline>
    <contour>
      <point x="454" y="0" type="line" identifier="UpqbvvQkHC"/>
      <point x="475" y="0" type="line" identifier="XUOG5O3ETO"/>
      <point x="475" y="740" type="line" identifier="tF6M347Mo5"/>
      <point x="454" y="740" type="line" identifier="pOkiNa1bIx"/>
      <point x="454" y="438" type="line" identifier="uIbnufhcaD"/>
      <point x="451" y="438" type="line" identifier="8NUCE3bQIo"/>
      <point x="430" y="482" identifier="D0cDmbJoqa"/>
      <point x="377" y="528" identifier="OXLecbNl03"/>
      <point x="290" y="528" type="curve" smooth="yes" identifier="vTIOyRntSv"/>
      <point x="158" y="528" identifier="n40bGlfgYc"/>
      <point x="80" y="437" identifier="4fN1Awni0Z"/>
      <point x="80" y="258" type="curve" smooth="yes" identifier="ZIaqAkptjX"/>
      <point x="80" y="79" identifier="ysFG0k621O"/>
      <point x="158" y="-12" identifier="80uLs1T9qk"/>
      <point x="290" y="-12" type="curve" smooth="yes" identifier="IbaURIC0nk"/>
      <point x="377" y="-12" identifier="8Ftxk7vv7r"/>
      <point x="430" y="34" identifier="GB5xcXYo7R"/>
      <point x="451" y="78" type="curve" identifier="ldg0yl2kBa"/>
      <point x="454" y="78" type="line" identifier="asebL4b1FR"/>
    </contour>
    <contour>
      <point x="290" y="7" type="curve" smooth="yes" identifier="UP23KKlUJV"/>
      <point x="170" y="7" identifier="mvbWJHJ7O3"/>
      <point x="103" y="94" identifier="DXBwPKPmnj"/>
      <point x="103" y="234" type="curve" smooth="yes" identifier="aYNbWxngpM"/>
      <point x="103" y="282" type="line" smooth="yes" identifier="0C1BOFf7me"/>
      <point x="103" y="422" identifier="pQ8JOTxU56"/>
      <point x="170" y="509" identifier="srcyIZnYC3"/>
      <point x="290" y="509" type="curve" smooth="yes" identifier="guevi0KOp0"/>
      <point x="376" y="509" identifier="rXlmSBDHUp"/>
      <point x="454" y="454" identifier="1o09IBvwF4"/>
      <point x="454" y="373" type="curve" smooth="yes" identifier="LwQMWeVexi"/>
      <point x="454" y="143" type="line" smooth="yes" identifier="w2NkNFy7Tr"/>
      <point x="454" y="62" identifier="qAfMfooAgR"/>
      <point x="376" y="7" identifier="gMhC7JGwMY"/>
    </contour>
  </outline>
</glyph>
<glyph name="e" format="2">
  <advance width="600"/>
  <unicode hex="0065"/>
  <anchor x="306.0" y="0.0" name="bottom"/>
  <anchor x="384.0" y="0.0" name="bottomright"/>
  <anchor x="302.0" y="516.0" name="top"/>
  <outline>
    <contour>
      <point x="306" y="-12" type="curve" smooth="yes" identifier="Hlj2mqakwB"/>
      <point x="406" y="-12" identifier="jX5yNVyT1T"/>
      <point x="473" y="40" identifier="27MYBt8CJl"/>
      <point x="503" y="124" type="curve" identifier="st6k3TlmbV"/>
      <point x="485" y="131" type="line" identifier="K6oTd983if"/>
      <point x="454" y="48" identifier="A17SKFl5JC"/>
      <point x="392" y="7" identifier="itFrewZPxn"/>
      <point x="306" y="7" type="curve" smooth="yes" identifier="hlOAeDC6cO"/>
      <point x="183" y="7" identifier="dfZSgFmGF8"/>
      <point x="115" y="94" identifier="6ERzKhMnKK"/>
      <point x="115" y="234" type="curve" smooth="yes" identifier="9igSfqDO63"/>
      <point x="115" y="260" type="line" identifier="qZwG9clAcT"/>
      <point x="511" y="260" type="line" identifier="vQQQh7aFZu"/>
      <point x="511" y="267" type="line" smooth="yes" identifier="6fO0NMbj6O"/>
      <point x="511" y="426" identifier="EvUZ7ksMCW"/>
      <point x="439" y="528" identifier="93fb2Z4mbF"/>
      <point x="302" y="528" type="curve" smooth="yes" identifier="eN7aWANNlm"/>
      <point x="170" y="528" identifier="4AhMsAwohP"/>
      <point x="92" y="437" identifier="bHvzvtQQCt"/>
      <point x="92" y="258" type="curve" smooth="yes" identifier="YgjXYJboD6"/>
      <point x="92" y="79" identifier="ILBeEPwygi"/>
      <point x="171" y="-12" identifier="k3hV4svusA"/>
    </contour>
    <contour>
      <point x="302" y="509" type="curve" smooth="yes" identifier="mB3fEAKCd4"/>
      <point x="422" y="509" identifier="MA4i1SH43O"/>
      <point x="489" y="422" identifier="AIeEItstno"/>
      <point x="489" y="282" type="curve" smooth="yes" identifier="oos0hSIWTK"/>
      <point x="489" y="278" type="line" identifier="8bYWgIBOUp"/>
      <point x="115" y="278" type="line" identifier="KmNP7wk5GF"/>
      <point x="115" y="282" type="line" smooth="yes" identifier="fBt00Eo9Hs"/>
      <point x="115" y="422" identifier="1ygEoddG5M"/>
      <point x="182" y="509" identifier="bo8czTHAW8"/>
    </contour>
  </outline>
</glyph>
<glyph name="f" format="2">
  <advance width="600"/>
  <unicode hex="0066"/>
  <anchor x="299.0" y="0.0" name="bottom"/>
  <outline>
    <contour>
      <point x="94" y="0" type="line" identifier="WWTQvvtGQG"/>
      <point x="510" y="0" type="line" identifier="cnyIfeJ2ak"/>
      <point x="510" y="19" type="line" identifier="mBZXblWdaX"/>
      <point x="307" y="19" type="line" identifier="HqXELrr0l6"/>
      <point x="307" y="497" type="line" identifier="x23tKMkFzM"/>
      <point x="533" y="497" type="line" identifier="xFWh6oSetx"/>
      <point x="533" y="516" type="line" identifier="jrJG8puXvR"/>
      <point x="307" y="516" type="line" identifier="Cqup65Ofjv"/>
      <point x="307" y="721" type="line" identifier="jSLwdgQIbG"/>
      <point x="533" y="721" type="line" identifier="EztupeHafM"/>
      <point x="533" y="740" type="line" identifier="otsbQTI21I"/>
      <point x="316" y="740" type="line" smooth="yes" identifier="CUlqvtnW4n"/>
      <point x="296" y="740" identifier="hjYInFlKd1"/>
      <point x="287" y="731" identifier="l2e6mclqDB"/>
      <point x="287" y="711" type="curve" smooth="yes" identifier="QEEyKD4ziM"/>
      <point x="287" y="516" type="line" identifier="enu60cHziA"/>
      <point x="84" y="516" type="line" identifier="RO69udK1Hy"/>
      <point x="84" y="497" type="line" identifier="CZbwPKL88h"/>
      <point x="287" y="497" type="line" identifier="egx2SK9q9a"/>
      <point x="287" y="19" type="line" identifier="GpqB7GiAp2"/>
      <point x="94" y="19" type="line" identifier="JqS3BabceB"/>
    </contour>
  </outline>
</glyph>
<glyph name="g" format="2">
  <advance width="600"/>
  <unicode hex="0067"/>
  <anchor x="305.0" y="516.0" name="top"/>
  <outline>
    <contour>
      <point x="543" y="-63" type="curve" smooth="yes" identifier="mBSa8mTY9J"/>
      <point x="543" y="9" identifier="dpD073evCq"/>
      <point x="495" y="55" identifier="8w9WyIbiHP"/>
      <point x="380" y="55" type="curve" smooth="yes" identifier="u7ZsIGId51"/>
      <point x="245" y="55" type="line" smooth="yes" identifier="XfLP0vzddn"/>
      <point x="175" y="55" identifier="5s5g4e0Hez"/>
      <point x="158" y="83" identifier="IgybViYv0h"/>
      <point x="158" y="111" type="curve" smooth="yes" identifier="lFg3b1VnrJ"/>
      <point x="158" y="149" identifier="zgm2EnGN6k"/>
      <point x="189" y="175" identifier="QaaMmSZrLj"/>
      <point x="249" y="191" type="curve" identifier="MZ3gFeeuxe"/>
      <point x="269" y="187" identifier="inNFQgXOYC"/>
      <point x="285" y="184" identifier="cNApOdoPO2"/>
      <point x="305" y="184" type="curve" smooth="yes" identifier="eAeqT7q6W5"/>
      <point x="408" y="184" identifier="h1LNh0Mscs"/>
      <point x="478" y="252" identifier="Sd2stnWos8"/>
      <point x="478" y="356" type="curve" smooth="yes" identifier="hOmpaiZ3sz"/>
      <point x="478" y="406" identifier="5obERNJ79u"/>
      <point x="462" y="448" identifier="8VMIkBBzxD"/>
      <point x="435" y="477" type="curve" identifier="pUUMISrMDv"/>
      <point x="435" y="542" type="line" identifier="VTaxp1qFua"/>
      <point x="556" y="542" type="line" identifier="PSeMaz3SZO"/>
      <point x="556" y="561" type="line" identifier="dN2a6KCtgW"/>
      <point x="445" y="561" type="line" smooth="yes" identifier="KCjIHDJelj"/>
      <point x="425" y="561" identifier="cxOQMJRwnD"/>
      <point x="416" y="553" identifier="4aRmHSHMgf"/>
      <point x="416" y="534" type="curve" smooth="yes" identifier="ZpVax1d9ja"/>
      <point x="416" y="494" type="line" identifier="hyDVJYoKUC"/>
      <point x="387" y="516" identifier="BH29hENzaa"/>
      <point x="350" y="528" identifier="RKEOg0yoam"/>
      <point x="305" y="528" type="curve" smooth="yes" identifier="dcAJvwksgh"/>
      <point x="198" y="528" identifier="Gi7Nb0nAb8"/>
      <point x="132" y="460" identifier="JGtEj75od8"/>
      <point x="132" y="356" type="curve" smooth="yes" identifier="TyhVm4uMIX"/>
      <point x="132" y="279" identifier="TAhuGsDfoH"/>
      <point x="166" y="226" identifier="J9AH1jqHPo"/>
      <point x="223" y="201" type="curve" identifier="HgcJU83USC"/>
      <point x="223" y="198" type="line" identifier="cGdh119LuM"/>
      <point x="179" y="185" identifier="7Z7KFGaJor"/>
      <point x="138" y="157" identifier="UkFKR537Hu"/>
      <point x="138" y="110" type="curve" smooth="yes" identifier="g29qUhfAnB"/>
      <point x="138" y="78" identifier="SlOFhXXREl"/>
      <point x="154" y="54" identifier="FLpuHOpvxz"/>
      <point x="191" y="43" type="curve" identifier="oLNnF1b2TP"/>
      <point x="191" y="40" type="line" identifier="H3pLA5Gw9I"/>
      <point x="128" y="20" identifier="hqLcInIcIG"/>
      <point x="90" y="-20" identifier="H8s2YUDLwH"/>
      <point x="90" y="-81" type="curve" smooth="yes" identifier="iDjVmDTYvW"/>
      <point x="90" y="-160" identifier="ZFA2BcbCSl"/>
      <point x="154" y="-212" identifier="uqFBmVs7kT"/>
      <point x="304" y="-212" type="curve" smooth="yes" identifier="jg2EOzSGZS"/>
      <point x="456" y="-212" identifier="4pRKGkv7YX"/>
      <point x="543" y="-165" identifier="qQ8W1L0z3b"/>
    </contour>
    <contour>
      <point x="521" y="-64" type="curve" smooth="yes" identifier="35xiHrIiCc"/>
      <point x="521" y="-153" identifier="PjeEIDquhj"/>
      <point x="443" y="-193" identifier="rAxdHH2nWH"/>
      <point x="328" y="-193" type="curve" smooth="yes" identifier="m5HuE5oBtD"/>
      <point x="279" y="-193" type="line" smooth="yes" identifier="mDSu6P9pie"/>
      <point x="178" y="-193" identifier="Rr5Ofc00XR"/>
      <point x="114" y="-152" identifier="kqIJ80RaIW"/>
      <point x="114" y="-82" type="curve" smooth="yes" identifier="Gf3fOcVmkl"/>
      <point x="114" y="-17" identifier="jd54PKfLCq"/>
      <point x="159" y="19" identifier="JX0cBkjHCK"/>
      <point x="222" y="35" type="curve" identifier="1dZWIR9nnt"/>
      <point x="377" y="35" type="line" smooth="yes" identifier="55FIS3JbSn"/>
      <point x="485" y="35" identifier="8c7lO7yxRh"/>
      <point x="521" y="-2" identifier="9JFYF3dmRb"/>
    </contour>
    <contour>
      <point x="305" y="203" type="curve" smooth="yes" identifier="ndmwSZUDO5"/>
      <point x="212" y="203" identifier="i0aqcb5elZ"/>
      <point x="156" y="261" identifier="3WDyCvvGw1"/>
      <point x="156" y="337" type="curve" smooth="yes" identifier="hQM0npPm4q"/>
      <point x="156" y="375" type="line" smooth="yes" identifier="C17eEHEvgd"/>
      <point x="156" y="451" identifier="cXOfXLK3Q7"/>
      <point x="210" y="509" identifier="Bwh8yLYjUk"/>
      <point x="305" y="509" type="curve" smooth="yes" identifier="UtjTomhykR"/>
      <point x="400" y="509" identifier="QgfdV8PU5f"/>
      <point x="454" y="451" identifier="h0n4Kcoo5Y"/>
      <point x="454" y="375" type="curve" smooth="yes" identifier="q4j9WDfwQh"/>
      <point x="454" y="337" type="line" smooth="yes" identifier="ClHc9uoRjR"/>
      <point x="454" y="261" identifier="hbJBorlmm0"/>
      <point x="400" y="203" identifier="JSHy6HTKq9"/>
    </contour>
  </outline>
</glyph>
<glyph name="h" format="2">
  <advance width="600"/>
  <unicode hex="0068"/>
  <anchor x="305.0" y="0.0" name="bottom"/>
  <anchor x="138.0" y="698.0" name="top"/>
  <outline>
    <contour>
      <point x="127" y="0" type="line" identifier="kbpAglyuMk"/>
      <point x="148" y="0" type="line" identifier="MSzXdAipQz"/>
      <point x="148" y="372" type="line" smooth="yes" identifier="FjNyfXPaJI"/>
      <point x="148" y="464" identifier="3E1LIQGPCF"/>
      <point x="223" y="509" identifier="pjmvCijZNm"/>
      <point x="306" y="509" type="curve" smooth="yes" identifier="W1fvlN9EFn"/>
      <point x="406" y="509" identifier="D5acwypDY0"/>
      <point x="462" y="456" identifier="NiNDIMqHk6"/>
      <point x="462" y="333" type="curve" smooth="yes" identifier="LShZyTty2u"/>
      <point x="462" y="0" type="line" identifier="ZPJhasRJfJ"/>
      <point x="483" y="0" type="line" identifier="9B9A4ZqBug"/>
      <point x="483" y="336" type="line" smooth="yes" identifier="ezlpPlHjXw"/>
      <point x="483" y="461" identifier="AEY2TuqACi"/>
      <point x="423" y="528" identifier="wgDSoSNAr1"/>
      <point x="309" y="528" type="curve" smooth="yes" identifier="YmecKGlbjU"/>
      <point x="218" y="528" identifier="O9VfU46Wad"/>
      <point x="169" y="486" identifier="TXJiOBdcsT"/>
      <point x="151" y="442" type="curve" identifier="YJpyDphizC"/>
      <point x="148" y="442" type="line" identifier="lZfzfl48GB"/>
      <point x="148" y="740" type="line" identifier="ZOo0ToakP1"/>
      <point x="127" y="740" type="line" identifier="1vHsbaGBQQ"/>
    </contour>
  </outline>
</glyph>
<glyph name="i" format="2">
  <advance width="600"/>
  <unicode hex="0069"/>
  <anchor x="332.0" y="0.0" name="bottom"/>
  <anchor x="535.0" y="0.0" name="bottomright"/>
  <outline>
    <contour>
      <point x="332" y="691" type="curve" smooth="yes" identifier="lwdh8DQQBB"/>
      <point x="353" y="691" identifier="rKhNkdmFZx"/>
      <point x="361" y="701" identifier="ugRodyx9F3"/>
      <point x="361" y="714" type="curve" smooth="yes" identifier="OBXAClSvVZ"/>
      <point x="361" y="722" type="line" smooth="yes" identifier="Sk9Fxi5VHd"/>
      <point x="361" y="735" identifier="iGeb6GpaYL"/>
      <point x="353" y="745" identifier="Lab77a3DtS"/>
      <point x="332" y="745" type="curve" smooth="yes" identifier="aN9ZYErDNt"/>
      <point x="311" y="745" identifier="dvpONfs0wP"/>
      <point x="303" y="735" identifier="9hJuEm794s"/>
      <point x="303" y="722" type="curve" smooth="yes" identifier="Nede4ZyW2m"/>
      <point x="303" y="714" type="line" smooth="yes" identifier="UZoElCmdsw"/>
      <point x="303" y="701" identifier="hjhY5dqlhL"/>
      <point x="311" y="691" identifier="BKtijAoDRp"/>
    </contour>
    <contour>
      <point x="117" y="0" type="line" identifier="dToYUjxC4Z"/>
      <point x="535" y="0" type="line" identifier="aRN2Q5DPRo"/>
      <point x="535" y="19" type="line" identifier="PJpX7VgZy5"/>
      <point x="343" y="19" type="line" identifier="pPcfmZVJQK"/>
      <point x="343" y="516" type="line" identifier="TBvaNQjOk7"/>
      <point x="117" y="516" type="line" identifier="HoDonoxRrw"/>
      <point x="117" y="497" type="line" identifier="Fsc84zHZq8"/>
      <point x="322" y="497" type="line" identifier="z54jo34R5B"/>
      <point x="322" y="19" type="line" identifier="xGYjPNCvuY"/>
      <point x="117" y="19" type="line" identifier="nKcJHjRN2F"/>
    </contour>
  </outline>
</glyph>
<glyph name="j" format="2">
  <advance width="600"/>
  <unicode hex="006A"/>
  <outline>
    <contour>
      <point x="111" y="-200" type="line" identifier="8r6qncz2al"/>
      <point x="398" y="-200" type="line" smooth="yes" identifier="uC8Rxp24R8"/>
      <point x="418" y="-200" identifier="TxOQymrnLr"/>
      <point x="427" y="-191" identifier="awbpfMMvLi"/>
      <point x="427" y="-171" type="curve" smooth="yes" identifier="72EtgnpIXT"/>
      <point x="427" y="516" type="line" identifier="PTmYUXpVOC"/>
      <point x="96" y="516" type="line" identifier="Z8c9siKAbD"/>
      <point x="96" y="497" type="line" identifier="QakzY9cTVg"/>
      <point x="406" y="497" type="line" identifier="TiFQiMNWJC"/>
      <point x="406" y="-181" type="line" identifier="wCh0FaKGdt"/>
      <point x="111" y="-181" type="line" identifier="t4ij0DxZTu"/>
    </contour>
    <contour>
      <point x="417" y="691" type="curve" smooth="yes" identifier="M4gIhsgy9Q"/>
      <point x="438" y="691" identifier="xLfQYsY8LS"/>
      <point x="446" y="701" identifier="NlHld0IxDT"/>
      <point x="446" y="714" type="curve" smooth="yes" identifier="wF4w9TmzdO"/>
      <point x="446" y="722" type="line" smooth="yes" identifier="9xjToVdTHz"/>
      <point x="446" y="735" identifier="Obp0YotOC6"/>
      <point x="438" y="745" identifier="9nje2eazX3"/>
      <point x="417" y="745" type="curve" smooth="yes" identifier="wqi0kGBaWc"/>
      <point x="396" y="745" identifier="9loXPmUkGz"/>
      <point x="388" y="735" identifier="LW5E2nNjXT"/>
      <point x="388" y="722" type="curve" smooth="yes" identifier="SjTPRrQvce"/>
      <point x="388" y="714" type="line" smooth="yes" identifier="MUVL9FwjvQ"/>
      <point x="388" y="701" identifier="w4Ul1vxXnv"/>
      <point x="396" y="691" identifier="pRSe3oUdsS"/>
    </contour>
  </outline>
</glyph>
<glyph name="k" format="2">
  <advance width="600"/>
  <unicode hex="006B"/>
  <anchor x="337.0" y="0.0" name="bottom"/>
  <outline>
    <contour>
      <point x="139" y="0" type="line" identifier="lGt82AKjtA"/>
      <point x="160" y="0" type="line" identifier="91lqbu7e4u"/>
      <point x="160" y="192" type="line" identifier="gJLD8Mnjws"/>
      <point x="285" y="300" type="line" identifier="cldiTzuEYx"/>
      <point x="535" y="0" type="line" identifier="tcnLY1MMGZ"/>
      <point x="561" y="0" type="line" identifier="GuECP4LJoo"/>
      <point x="301" y="314" type="line" identifier="xAzAWzNxmd"/>
      <point x="533" y="516" type="line" identifier="KysxHcGD8v"/>
      <point x="505" y="516" type="line" identifier="q69C4Aw2hT"/>
      <point x="281" y="322" type="line" identifier="Re8tk9m9Ku"/>
      <point x="163" y="219" type="line" identifier="NdaGvSHSHy"/>
      <point x="160" y="219" type="line" identifier="9gVJ9aMzX0"/>
      <point x="160" y="740" type="line" identifier="xgkkEOQqOF"/>
      <point x="139" y="740" type="line" identifier="nvHdaONiGS"/>
    </contour>
  </outline>
</glyph>
<glyph name="l" format="2">
  <advance width="600"/>
  <unicode hex="006C"/>
  <anchor x="300.0" y="0.0" name="bottom"/>
  <anchor x="300.0" y="698.0" name="top"/>
  <anchor x="416.0" y="740.0" name="topright"/>
  <outline>
    <contour>
      <point x="91" y="0" type="line" identifier="poNTg1KPIU"/>
      <point x="510" y="0" type="line" identifier="CFU0pOQ1v2"/>
      <point x="510" y="19" type="line" identifier="8eiAo4djLg"/>
      <point x="311" y="19" type="line" identifier="LBeQJIl5PD"/>
      <point x="311" y="740" type="line" identifier="CmlzWNL2sK"/>
      <point x="91" y="740" type="line" identifier="mE4PR3LMZ1"/>
      <point x="91" y="721" type="line" identifier="oTTHqxnQdF"/>
      <point x="290" y="721" type="line" identifier="4RBSpuYpQx"/>
      <point x="290" y="19" type="line" identifier="zvvFujqlf9"/>
      <point x="91" y="19" type="line" identifier="mzbkJDoxTv"/>
    </contour>
  </outline>
</glyph>
<glyph name="m" format="2">
  <advance width="600"/>
  <unicode hex="006D"/>
  <anchor x="300.0" y="0.0" name="bottom"/>
  <anchor x="300.0" y="516.0" name="top"/>
  <outline>
    <contour>
      <point x="94" y="0" type="line" identifier="sRZdih03hD"/>
      <point x="94" y="384" type="line" smooth="yes" identifier="GqqXmlvl68"/>
      <point x="94" y="468" identifier="rgdBwFPRDu"/>
      <point x="145" y="509" identifier="fpOaGm3bTQ"/>
      <point x="201" y="509" type="curve" smooth="yes" identifier="KCwuD4mN3N"/>
      <point x="258" y="509" identifier="3jrR5wcOjN"/>
      <point x="290" y="474" identifier="DfVCW00Wg4"/>
      <point x="290" y="397" type="curve" smooth="yes" identifier="SjvDgUUzVI"/>
      <point x="290" y="0" type="line" identifier="qf3jhF9KkU"/>
      <point x="311" y="0" type="line" identifier="VnNQ9fg1k3"/>
      <point x="311" y="384" type="line" smooth="yes" identifier="RdkwkHqZbX"/>
      <point x="311" y="468" identifier="CZNXMeiGY1"/>
      <point x="361" y="509" identifier="1iTb0so9X7"/>
      <point x="418" y="509" type="curve" smooth="yes" identifier="16QGk48va8"/>
      <point x="475" y="509" identifier="Wm4PXb3vSG"/>
      <point x="507" y="474" identifier="iQD1kuNNjN"/>
      <point x="507" y="397" type="curve" smooth="yes" identifier="04ZJvZnqB9"/>
      <point x="507" y="0" type="line" identifier="aQtIGI5doi"/>
      <point x="528" y="0" type="line" identifier="b404aYGWoO"/>
      <point x="528" y="400" type="line" smooth="yes" identifier="n2YRyzrCNH"/>
      <point x="528" y="483" identifier="3HLm7DnkXw"/>
      <point x="491" y="528" identifier="f99YSJAcbj"/>
      <point x="420" y="528" type="curve" smooth="yes" identifier="VxoR6duZ4a"/>
      <point x="358" y="528" identifier="ZVmPXk67sf"/>
      <point x="323" y="492" identifier="kwPgCwywZl"/>
      <point x="308" y="446" type="curve" identifier="vXKggVa7xj"/>
      <point x="306" y="446" type="line" identifier="EMTyR2jKfU"/>
      <point x="296" y="499" identifier="0JBFVJCQlS"/>
      <point x="260" y="528" identifier="uyPDQoqym4"/>
      <point x="203" y="528" type="curve" smooth="yes" identifier="Q04ZyUFiGp"/>
      <point x="145" y="528" identifier="1kFOUpQq0q"/>
      <point x="112" y="497" identifier="XcIA3riTCG"/>
      <point x="97" y="455" type="curve" identifier="E5hTjmAe1O"/>
      <point x="94" y="455" type="line" identifier="BSgJ4wAFmF"/>
      <point x="94" y="516" type="line" identifier="MZnLh9Lzut"/>
      <point x="73" y="516" type="line" identifier="c2JvTjC1rF"/>
      <point x="73" y="0" type="line" identifier="flFkgPaADg"/>
    </contour>
  </outline>
</glyph>
<glyph name="n" format="2">
  <advance width="600"/>
  <unicode hex="006E"/>
  <anchor x="305.0" y="0.0" name="bottom"/>
  <anchor x="305.0" y="516.0" name="top"/>
  <outline>
    <contour>
      <point x="148" y="0" type="line" identifier="TcJweo58QW"/>
      <point x="148" y="372" type="line" smooth="yes" identifier="m8yDAiALpz"/>
      <point x="148" y="464" identifier="Q6eA7yu5wP"/>
      <point x="223" y="509" identifier="vPkBwn8r7x"/>
      <point x="306" y="509" type="curve" smooth="yes" identifier="3KgB8Zm85m"/>
      <point x="406" y="509" identifier="8hKU92Rj4d"/>
      <point x="462" y="456" identifier="r08OUaae7m"/>
      <point x="462" y="333" type="curve" smooth="yes" identifier="aZVboljnjc"/>
      <point x="462" y="0" type="line" identifier="eGgR0wvhyg"/>
      <point x="483" y="0" type="line" identifier="49YOuPLBy3"/>
      <point x="483" y="336" type="line" smooth="yes" identifier="54ITOAlpHJ"/>
      <point x="483" y="461" identifier="FXxELhNvTt"/>
      <point x="423" y="528" identifier="xlbN4X9WAT"/>
      <point x="309" y="528" type="curve" smooth="yes" identifier="BrPK78xRP7"/>
      <point x="218" y="528" identifier="plqWhbwQuv"/>
      <point x="169" y="486" identifier="obXBvanP4P"/>
      <point x="151" y="442" type="curve" identifier="2IAbpnVB9L"/>
      <point x="148" y="442" type="line" identifier="vyhVGng7GG"/>
      <point x="148" y="516" type="line" identifier="K2W8UJ7zhY"/>
      <point x="127" y="516" type="line" identifier="Col2LZCazy"/>
      <point x="127" y="0" type="line" identifier="GvVkNXJYKK"/>
    </contour>
  </outline>
</glyph>
<glyph name="o" format="2">
  <advance width="600"/>
  <unicode hex="006F"/>
  <anchor x="300.0" y="0.0" name="bottom"/>
  <anchor x="300.0" y="516.0" name="top"/>
  <outline>
    <contour>
      <point x="300" y="-12" type="curve" smooth="yes" identifier="bUF28xZGNP"/>
      <point x="432" y="-12" identifier="YzeRhEfXqa"/>
      <point x="510" y="79" identifier="pP4lQgMz02"/>
      <point x="510" y="258" type="curve" smooth="yes" identifier="OT4qYGZKHo"/>
      <point x="510" y="437" identifier="8lBcUiOnD8"/>
      <point x="432" y="528" identifier="HkBTxXhjxY"/>
      <point x="300" y="528" type="curve" smooth="yes" identifier="oaVLwO7RB2"/>
      <point x="168" y="528" identifier="4NnxFIXXze"/>
      <point x="90" y="437" identifier="htXTWWtPEH"/>
      <point x="90" y="258" type="curve" smooth="yes" identifier="2viHPge8JC"/>
      <point x="90" y="79" identifier="mEcdQzgQGb"/>
      <point x="168" y="-12" identifier="25W1Eimqae"/>
    </contour>
    <contour>
      <point x="300" y="7" type="curve" smooth="yes" identifier="129MVbiEKN"/>
      <point x="180" y="7" identifier="X5NmuvnXv0"/>
      <point x="113" y="94" identifier="kuSK16mLly"/>
      <point x="113" y="234" type="curve" smooth="yes" identifier="MzaOCcWTxy"/>
      <point x="113" y="282" type="line" smooth="yes" identifier="SqkHV5Epq9"/>
      <point x="113" y="422" identifier="6miswYlQLJ"/>
      <point x="180" y="509" identifier="pmOzLpcyzc"/>
      <point x="300" y="509" type="curve" smooth="yes" identifier="qS5lsijoW0"/>
      <point x="420" y="509" identifier="IcrdOkI2Ue"/>
      <point x="487" y="422" identifier="NQkL6Gicyt"/>
      <point x="487" y="282" type="curve" smooth="yes" identifier="tx4kG3KGxE"/>
      <point x="487" y="234" type="line" smooth="yes" identifier="7XzOqvCqqf"/>
      <point x="487" y="94" identifier="b1Zvd2AEHg"/>
      <point x="420" y="7" identifier="eQirih0e1x"/>
    </contour>
  </outline>
</glyph>
<glyph name="p" format="2">
  <advance width="600"/>
  <unicode hex="0070"/>
  <anchor x="310.0" y="516.0" name="top"/>
  <outline>
    <contour>
      <point x="125" y="-200" type="line" identifier="w7QELRUkv6"/>
      <point x="146" y="-200" type="line" identifier="WvjTMnsSw5"/>
      <point x="146" y="78" type="line" identifier="AKi970jnAz"/>
      <point x="149" y="78" type="line" identifier="cOiOlbL2Dt"/>
      <point x="170" y="34" identifier="HeCl2oigZo"/>
      <point x="223" y="-12" identifier="jkkZ129ljm"/>
      <point x="310" y="-12" type="curve" smooth="yes" identifier="s50ETXTPsK"/>
      <point x="442" y="-12" identifier="0AE1AVNWYs"/>
      <point x="520" y="79" identifier="Z7KauDViyz"/>
      <point x="520" y="258" type="curve" smooth="yes" identifier="bRhmwN1NK7"/>
      <point x="520" y="437" identifier="p0ps711t26"/>
      <point x="442" y="528" identifier="ya5uoTHWjn"/>
      <point x="310" y="528" type="curve" smooth="yes" identifier="nySpWW1SDt"/>
      <point x="223" y="528" identifier="bgmF4lK8h0"/>
      <point x="170" y="482" identifier="QFdCGOSWlM"/>
      <point x="149" y="438" type="curve" identifier="4xcbygkvfS"/>
      <point x="146" y="438" type="line" identifier="raBr0KMWOu"/>
      <point x="146" y="516" type="line" identifier="3iZBOgUosX"/>
      <point x="125" y="516" type="line" identifier="WmrxHyqtX6"/>
    </contour>
    <contour>
      <point x="310" y="7" type="curve" smooth="yes" identifier="Gjr5vW0jHk"/>
      <point x="224" y="7" identifier="MYaj3yMmh6"/>
      <point x="146" y="62" identifier="fzptN30B2u"/>
      <point x="146" y="143" type="curve" smooth="yes" identifier="C1V3sAtWpa"/>
      <point x="146" y="373" type="line" smooth="yes" identifier="wswKBYBrra"/>
      <point x="146" y="454" identifier="JQShx5A9bJ"/>
      <point x="224" y="509" identifier="d0zbMDSpUo"/>
      <point x="310" y="509" type="curve" smooth="yes" identifier="Jy9jY4Czjr"/>
      <point x="430" y="509" identifier="VCKQHus4ar"/>
      <point x="497" y="422" identifier="qK8bGv6Zp8"/>
      <point x="497" y="282" type="curve" smooth="yes" identifier="60eRxob4sU"/>
      <point x="497" y="234" type="line" smooth="yes" identifier="ekN6ikJu4x"/>
      <point x="497" y="94" identifier="1fJoJcSABk"/>
      <point x="430" y="7" identifier="nIENHbMsJ9"/>
    </contour>
  </outline>
</glyph>
<glyph name="q" format="2">
  <advance width="600"/>
  <unicode hex="0071"/>
  <anchor x="290.0" y="516.0" name="top"/>
  <outline>
    <contour>
      <point x="454" y="-200" type="line" identifier="BmauaYiosB"/>
      <point x="475" y="-200" type="line" identifier="7U2ZTPUJvH"/>
      <point x="475" y="516" type="line" identifier="xZr76Z6xjb"/>
      <point x="454" y="516" type="line" identifier="tsmJmrpikS"/>
      <point x="454" y="438" type="line" identifier="9qaXS2G4RG"/>
      <point x="451" y="438" type="line" identifier="mhxaHa2J53"/>
      <point x="430" y="482" identifier="Z4NbQbk2k5"/>
      <point x="377" y="528" identifier="keik8tbezX"/>
      <point x="290" y="528" type="curve" smooth="yes" identifier="i1STahteZy"/>
      <point x="158" y="528" identifier="wDJLfVDGuT"/>
      <point x="80" y="437" identifier="aOBwom6CJj"/>
      <point x="80" y="258" type="curve" smooth="yes" identifier="11G3Drw3Ey"/>
      <point x="80" y="79" identifier="e9OjSH9lVn"/>
      <point x="158" y="-12" identifier="c5KN5LlVU6"/>
      <point x="290" y="-12" type="curve" smooth="yes" identifier="TrFe3jkUWH"/>
      <point x="377" y="-12" identifier="raX1Y9LB1L"/>
      <point x="430" y="34" identifier="MUvENU5d0x"/>
      <point x="451" y="78" type="curve" identifier="u3qbRDzMXe"/>
      <point x="454" y="78" type="line" identifier="xzyYoK2DrI"/>
    </contour>
    <contour>
      <point x="290" y="7" type="curve" smooth="yes" identifier="1nxBC4ewej"/>
      <point x="170" y="7" identifier="HjJdSJmFpR"/>
      <point x="103" y="94" identifier="TmnJKTpoVl"/>
      <point x="103" y="234" type="curve" smooth="yes" identifier="9VUV1GqBao"/>
      <point x="103" y="282" type="line" smooth="yes" identifier="7isgPAcT2n"/>
      <point x="103" y="422" identifier="O80Z0niDvw"/>
      <point x="170" y="509" identifier="zLtopue6s3"/>
      <point x="290" y="509" type="curve" smooth="yes" identifier="DuTsClG180"/>
      <point x="376" y="509" identifier="w9VIL67ar0"/>
      <point x="454" y="454" identifier="JBUjbXXAoB"/>
      <point x="454" y="373" type="curve" smooth="yes" identifier="uqtt4h059B"/>
      <point x="454" y="143" type="line" smooth="yes" identifier="bSDXTNt676"/>
      <point x="454" y="62" identifier="oh2mhLyWIh"/>
      <point x="376" y="7" identifier="ol5z6mUFuU"/>
    </contour>
  </outline>
</glyph>
<glyph name="r" format="2">
  <advance width="600"/>
  <unicode hex="0072"/>
  <anchor x="269.0" y="0.0" name="bottom"/>
  <anchor x="378.0" y="516.0" name="top"/>
  <outline>
    <contour>
      <point x="80" y="0" type="line" identifier="829xupiO0q"/>
      <point x="477" y="0" type="line" identifier="BswUtpufGQ"/>
      <point x="477" y="19" type="line" identifier="lBazWJPQuF"/>
      <point x="279" y="19" type="line" identifier="OvyvuasFUm"/>
      <point x="279" y="331" type="line" smooth="yes" identifier="aQprdmycO0"/>
      <point x="279" y="445" identifier="v5nUJCTtR0"/>
      <point x="355" y="497" identifier="oX2DWp2G27"/>
      <point x="437" y="497" type="curve" smooth="yes" identifier="MYJEud7akR"/>
      <point x="556" y="497" type="line" identifier="FcuOhe2Sfp"/>
      <point x="556" y="516" type="line" identifier="AfdB42xCZf"/>
      <point x="441" y="516" type="line" smooth="yes" identifier="ZSQXvdbGaN"/>
      <point x="347" y="516" identifier="sowlw5Cz2X"/>
      <point x="305" y="471" identifier="C01jQeQcwc"/>
      <point x="282" y="416" type="curve" identifier="JnR6AjXnuJ"/>
      <point x="279" y="416" type="line" identifier="maqcreTq7N"/>
      <point x="279" y="516" type="line" identifier="8m73Z4FnRy"/>
      <point x="80" y="516" type="line" identifier="qAAD0cKbCJ"/>
      <point x="80" y="497" type="line" identifier="rG2njaPcuI"/>
      <point x="258" y="497" type="line" identifier="jUHtg0vZgP"/>
      <point x="258" y="19" type="line" identifier="2ppBXOOzbt"/>
      <point x="80" y="19" type="line" identifier="XWPrC6Zhsu"/>
    </contour>
  </outline>
</glyph>
<glyph name="s" format="2">
  <advance width="600"/>
  <unicode hex="0073"/>
  <anchor x="308.0" y="0.0" name="bottom"/>
  <anchor x="300.0" y="516.0" name="top"/>
  <outline>
    <contour>
      <point x="318" y="-12" type="curve" smooth="yes" identifier="vGnTtKVP7q"/>
      <point x="430" y="-12" identifier="9HvS5gAyiA"/>
      <point x="517" y="34" identifier="tOo8Df8Fpd"/>
      <point x="517" y="139" type="curve" smooth="yes" identifier="Wo8YCrNZn6"/>
      <point x="517" y="231" identifier="d0RDqD2lvg"/>
      <point x="450" y="256" identifier="Dn3a4PZTkx"/>
      <point x="357" y="269" type="curve" smooth="yes" identifier="XxgUsAI4Xo"/>
      <point x="277" y="280" type="line" smooth="yes" identifier="pqmPkgBLme"/>
      <point x="189" y="292" identifier="cENwhn0cyv"/>
      <point x="136" y="314" identifier="i9HmE0sAzm"/>
      <point x="136" y="391" type="curve" smooth="yes" identifier="ZWTI92v7GP"/>
      <point x="136" y="474" identifier="xCAWSLo2sJ"/>
      <point x="200" y="509" identifier="U8oVu5jJ4H"/>
      <point x="297" y="509" type="curve" smooth="yes" identifier="bEZ3fumDML"/>
      <point x="395" y="509" identifier="oGuOZiXZcY"/>
      <point x="445" y="472" identifier="0wyL5PDACE"/>
      <point x="481" y="432" type="curve" identifier="3aWjETwwOH"/>
      <point x="495" y="447" type="line" identifier="DWFcCyG4bu"/>
      <point x="457" y="488" identifier="TgVtOOONAl"/>
      <point x="400" y="528" identifier="hJxRfLeQMP"/>
      <point x="298" y="528" type="curve" smooth="yes" identifier="5NbLlJjnMU"/>
      <point x="198" y="528" identifier="AkSO1izOa0"/>
      <point x="115" y="491" identifier="eqcb4S7gf0"/>
      <point x="115" y="390" type="curve" smooth="yes" identifier="ugMehuVcD7"/>
      <point x="115" y="298" identifier="HEJ7VkABid"/>
      <point x="182" y="273" identifier="BQHIbxamZM"/>
      <point x="275" y="260" type="curve" smooth="yes" identifier="vNTdoeP311"/>
      <point x="355" y="249" type="line" smooth="yes" identifier="jSN9gj09jy"/>
      <point x="443" y="237" identifier="MMrKOoMZgn"/>
      <point x="496" y="215" identifier="ldXLxSC1eW"/>
      <point x="496" y="138" type="curve" smooth="yes" identifier="UJee4YtnIm"/>
      <point x="496" y="49" identifier="oolMZm8P4A"/>
      <point x="425" y="7" identifier="5Kr6ADGImd"/>
      <point x="317" y="7" type="curve" smooth="yes" identifier="YtpWGcEAoE"/>
      <point x="226" y="7" identifier="naVYMspp3j"/>
      <point x="159" y="36" identifier="uI8tf5Pvbk"/>
      <point x="106" y="103" type="curve" identifier="LPuKlFgFNP"/>
      <point x="91" y="90" type="line" identifier="GcvPYNdQ3F"/>
      <point x="146" y="21" identifier="N2B5QFCw2a"/>
      <point x="220" y="-12" identifier="7wNsvE1WDt"/>
    </contour>
  </outline>
</glyph>
<glyph name="t" format="2">
  <advance width="600"/>
  <unicode hex="0074"/>
  <anchor x="378.0" y="0.0" name="bottom"/>
  <anchor x="389.0" y="760.0" name="topright"/>
  <outline>
    <contour>
      <point x="522" y="0" type="line" identifier="xQNebQrrOK"/>
      <point x="522" y="19" type="line" identifier="dXjwq36pxi"/>
      <point x="258" y="19" type="line" identifier="kRhIeHyZbn"/>
      <point x="258" y="497" type="line" identifier="xEcKGRVrx2"/>
      <point x="522" y="497" type="line" identifier="c1w0LBO1YI"/>
      <point x="522" y="516" type="line" identifier="lu79JAdSqZ"/>
      <point x="258" y="516" type="line" identifier="J2rP4g3JsP"/>
      <point x="258" y="698" type="line" identifier="Y4M1e4gZkk"/>
      <point x="237" y="698" type="line" identifier="NdPEb8UvwC"/>
      <point x="237" y="545" type="line" smooth="yes" identifier="xXTUqj734K"/>
      <point x="237" y="525" identifier="cGh5vAnJ4c"/>
      <point x="228" y="516" identifier="gQF1UoGPT5"/>
      <point x="208" y="516" type="curve" smooth="yes" identifier="q9stXduZlg"/>
      <point x="36" y="516" type="line" identifier="kZMCVO0FyZ"/>
      <point x="36" y="497" type="line" identifier="fqosNPAsCe"/>
      <point x="237" y="497" type="line" identifier="xCvzyRXSJz"/>
      <point x="237" y="29" type="line" smooth="yes" identifier="7udb6sq0lg"/>
      <point x="237" y="9" identifier="b2ELSYtJX6"/>
      <point x="246" y="0" identifier="lPdNOD1epC"/>
      <point x="266" y="0" type="curve" smooth="yes" identifier="9ulCZUEMVe"/>
    </contour>
  </outline>
</glyph>
<glyph name="u" format="2">
  <advance width="600"/>
  <unicode hex="0075"/>
  <anchor x="296.0" y="0.0" name="bottom"/>
  <anchor x="473.0" y="0.0" name="bottomright"/>
  <anchor x="296.0" y="516.0" name="top"/>
  <outline>
    <contour>
      <point x="452" y="0" type="line" identifier="qhKJVtv0d3"/>
      <point x="473" y="0" type="line" identifier="aKjBL5xxrg"/>
      <point x="473" y="516" type="line" identifier="JGXSXbC1Vi"/>
      <point x="452" y="516" type="line" identifier="jaVBmjWpNk"/>
      <point x="452" y="144" type="line" smooth="yes" identifier="pmRKemujBN"/>
      <point x="452" y="52" identifier="ShxvaTRss3"/>
      <point x="377" y="7" identifier="CUGBKMXj8b"/>
      <point x="294" y="7" type="curve" smooth="yes" identifier="tiM8y8lrb5"/>
      <point x="194" y="7" identifier="QOF1e1ccTQ"/>
      <point x="138" y="60" identifier="agm5Eq2xCk"/>
      <point x="138" y="183" type="curve" smooth="yes" identifier="WR0qWGCior"/>
      <point x="138" y="516" type="line" identifier="Lp15ojI1wd"/>
      <point x="117" y="516" type="line" identifier="8BycQxghDg"/>
      <point x="117" y="180" type="line" smooth="yes" identifier="gXyyAYsCLJ"/>
      <point x="117" y="55" identifier="dyaYPWauzh"/>
      <point x="177" y="-12" identifier="GTzwVlg1zG"/>
      <point x="291" y="-12" type="curve" smooth="yes" identifier="rajWwEThXp"/>
      <point x="382" y="-12" identifier="N8rS1g0RHQ"/>
      <point x="431" y="30" identifier="HbjjFNKl3h"/>
      <point x="449" y="74" type="curve" identifier="k8ceAMzUC1"/>
      <point x="452" y="74" type="line" identifier="XXjH3W4u6O"/>
    </contour>
  </outline>
</glyph>
<glyph name="v" format="2">
  <advance width="600"/>
  <unicode hex="0076"/>
  <anchor x="300.0" y="0.0" name="bottom"/>
  <anchor x="300.0" y="516.0" name="top"/>
  <outline>
    <contour>
      <point x="313" y="0" type="line" identifier="jNnWbx8TUJ"/>
      <point x="507" y="516" type="line" identifier="PT2JeYhh31"/>
      <point x="486" y="516" type="line" identifier="wXzXLQ2Ah7"/>
      <point x="302" y="24" type="line" identifier="bIrxsaHhdt"/>
      <point x="299" y="24" type="line" identifier="quYfcXQtMz"/>
      <point x="115" y="516" type="line" identifier="CYPWoPEGzD"/>
      <point x="93" y="516" type="line" identifier="BkWFuT3JNt"/>
      <point x="287" y="0" type="line" identifier="3KuxogVlru"/>
    </contour>
  </outline>
</glyph>
<glyph name="w" format="2">
  <advance width="600"/>
  <unicode hex="0077"/>
  <anchor x="300.0" y="0.0" name="bottom"/>
  <anchor x="300.0" y="516.0" name="top"/>
  <outline>
    <contour>
      <point x="135" y="0" type="line" identifier="3dhvXHMeup"/>
      <point x="169" y="0" type="line" identifier="d3PYhbyNtf"/>
      <point x="299" y="496" type="line" identifier="RgOqb183xT"/>
      <point x="302" y="496" type="line" identifier="VDUNZeCHFX"/>
      <point x="431" y="0" type="line" identifier="DprVZlYc5S"/>
      <point x="465" y="0" type="line" identifier="JnPD96Xaff"/>
      <point x="562" y="516" type="line" identifier="2jJZuYdd7s"/>
      <point x="543" y="516" type="line" identifier="N9PU4pWYTk"/>
      <point x="449" y="19" type="line" identifier="2T1b686UZ7"/>
      <point x="446" y="19" type="line" identifier="BnMusIO3MY"/>
      <point x="316" y="516" type="line" identifier="JRgp89eS4p"/>
      <point x="285" y="516" type="line" identifier="hCVTkLzyZ1"/>
      <point x="155" y="19" type="line" identifier="fI6R3nKnI1"/>
      <point x="152" y="19" type="line" identifier="knbJYjbTw0"/>
      <point x="58" y="516" type="line" identifier="6vByJGR2OP"/>
      <point x="38" y="516" type="line" identifier="TyJaD0ySvW"/>
    </contour>
  </outline>
</glyph>
<glyph name="x" format="2">
  <advance width="600"/>
  <unicode hex="0078"/>
  <anchor x="300.0" y="0.0" name="bottom"/>
  <anchor x="300.0" y="516.0" name="top"/>
  <outline>
    <contour>
      <point x="114" y="0" type="line" identifier="VcynrYNhSF"/>
      <point x="299" y="243" type="line" identifier="fs6bwLmXKR"/>
      <point x="301" y="243" type="line" identifier="AUHeG4ppRM"/>
      <point x="485" y="0" type="line" identifier="Vn4RaRHFEB"/>
      <point x="511" y="0" type="line" identifier="k5JmTAeHFp"/>
      <point x="313" y="260" type="line" identifier="PDqeeORbFX"/>
      <point x="508" y="516" type="line" identifier="o4Gz4oijbL"/>
      <point x="483" y="516" type="line" identifier="aafUuTxLKC"/>
      <point x="301" y="277" type="line" identifier="u7DSlskkNX"/>
      <point x="299" y="277" type="line" identifier="zl6z9iZEXQ"/>
      <point x="118" y="516" type="line" identifier="AAM4Nc1oAm"/>
      <point x="92" y="516" type="line" identifier="tRpkeRazs9"/>
      <point x="287" y="259" type="line" identifier="xBO4BbAFdS"/>
      <point x="89" y="0" type="line" identifier="zWHWfz1SL3"/>
    </contour>
  </outline>
</glyph>
<glyph name="y" format="2">
  <advance width="600"/>
  <unicode hex="0079"/>
  <anchor x="440.0" y="0.0" name="bottom"/>
  <anchor x="297.0" y="516.0" name="top"/>
  <outline>
    <contour>
      <point x="302" y="49" type="line" identifier="P2ZSaKm8zB"/>
      <point x="299" y="49" type="line" identifier="Mae7X24HyM"/>
      <point x="106" y="516" type="line" identifier="N22TKXRDAs"/>
      <point x="83" y="516" type="line" identifier="yBz6EvN47B"/>
      <point x="289" y="19" type="line" identifier="QjiilxnfXd"/>
      <point x="205" y="-181" type="line" identifier="2DlmwlOEIH"/>
      <point x="94" y="-181" type="line" identifier="LH9g4HYqJR"/>
      <point x="94" y="-200" type="line" identifier="BPpqTQHnf0"/>
      <point x="196" y="-200" type="line" smooth="yes" identifier="26dUHAVguq"/>
      <point x="211" y="-200" identifier="tkqWZwI2sz"/>
      <point x="221" y="-194" identifier="YmC2cII8x7"/>
      <point x="227" y="-181" type="curve" smooth="yes" identifier="T6SvSIpEfA"/>
      <point x="517" y="516" type="line" identifier="cYZs1OnZ1t"/>
      <point x="495" y="516" type="line" identifier="O7cNpcdxXI"/>
    </contour>
  </outline>
</glyph>
<glyph name="z" format="2">
  <advance width="600"/>
  <unicode hex="007A"/>
  <anchor x="300.0" y="0.0" name="bottom"/>
  <anchor x="300.0" y="516.0" name="top"/>
  <outline>
    <contour>
      <point x="498" y="0" type="line" identifier="UU6K0dqUex"/>
      <point x="498" y="19" type="line" identifier="yljynyOeTo"/>
      <point x="125" y="19" type="line" identifier="NRyfTAilSH"/>
      <point x="488" y="495" type="line" identifier="SmWqOxMDUX"/>
      <point x="488" y="516" type="line" identifier="fINsCaUrSw"/>
      <point x="112" y="516" type="line" identifier="mMyTlsRrSm"/>
      <point x="112" y="497" type="line" identifier="No280dccLl"/>
      <point x="465" y="497" type="line" identifier="TehMmtFCVj"/>
      <point x="102" y="21" type="line" identifier="6xueghadFW"/>
      <point x="102" y="0" type="line" identifier="5QiKxq5wME"/>
    </contour>
  </outline>
</glyph>
<glyph name="braceleft" format="2">
  <advance width="600"/>
  <unicode hex="007B"/>
  <outline>
    <contour>
      <point x="484" y="-138" type="line" identifier="Dk1ASz5jP6"/>
      <point x="484" y="-120" type="line" identifier="jVk4XRkuHT"/>
      <point x="285" y="-120" type="line" identifier="tl0CKChMjg"/>
      <point x="285" y="-2" type="line" smooth="yes" identifier="QvG8Wa3jSn"/>
      <point x="285" y="74" identifier="4lT7NQtVrt"/>
      <point x="314" y="102" identifier="HKvtSDl1qZ"/>
      <point x="328" y="120" type="curve" smooth="yes" identifier="Y2oss0IjC5"/>
      <point x="362" y="162" identifier="0wTcxSw0RM"/>
      <point x="371" y="185" identifier="7si3eUTZpm"/>
      <point x="371" y="211" type="curve" smooth="yes" identifier="OmFfSGXuOF"/>
      <point x="371" y="271" identifier="Tbbx8cseJw"/>
      <point x="321" y="305" identifier="RcZz7eLFd0"/>
      <point x="252" y="310" type="curve" identifier="Uhh6VGNT4X"/>
      <point x="252" y="312" type="line" identifier="h7eabypwde"/>
      <point x="321" y="317" identifier="97wsGApcGd"/>
      <point x="371" y="351" identifier="MNtHHPb0qh"/>
      <point x="371" y="411" type="curve" smooth="yes" identifier="srpk1qLOMz"/>
      <point x="371" y="437" identifier="QD4Zw7QBzO"/>
      <point x="362" y="460" identifier="SPHDcOq4LW"/>
      <point x="328" y="502" type="curve" smooth="yes" identifier="eluJNNBCJn"/>
      <point x="314" y="520" identifier="Kh0ZYzgFkr"/>
      <point x="285" y="548" identifier="xMQ1qeCMif"/>
      <point x="285" y="624" type="curve" smooth="yes" identifier="My7n71wwa5"/>
      <point x="285" y="742" type="line" identifier="6cHeUbLBj5"/>
      <point x="484" y="742" type="line" identifier="P4lRmlCH9q"/>
      <point x="484" y="760" type="line" identifier="2TSHV08ZKg"/>
      <point x="294" y="760" type="line" smooth="yes" identifier="cQlgw0dQou"/>
      <point x="274" y="760" identifier="iiclYpW2zV"/>
      <point x="265" y="751" identifier="7h0neIwbOk"/>
      <point x="265" y="731" type="curve" smooth="yes" identifier="r1jIIfqZK3"/>
      <point x="265" y="624" type="line" smooth="yes" identifier="iYkiLleQlk"/>
      <point x="265" y="546" identifier="Ap5SVqmDsL"/>
      <point x="297" y="512" identifier="gsINcjIRA9"/>
      <point x="312" y="493" type="curve" smooth="yes" identifier="MlAuUhV4vQ"/>
      <point x="344" y="453" identifier="u6Np4c5bwt"/>
      <point x="351" y="435" identifier="kCwDNFSFfn"/>
      <point x="351" y="412" type="curve" smooth="yes" identifier="EQkg87g3BI"/>
      <point x="351" y="349" identifier="5Cy1LRlZ0J"/>
      <point x="292" y="320" identifier="16QRQOnQyI"/>
      <point x="184" y="320" type="curve" smooth="yes" identifier="sfhCv7lVEU"/>
      <point x="116" y="320" type="line" identifier="C4VHBNF76q"/>
      <point x="116" y="302" type="line" identifier="wLjxdQ729e"/>
      <point x="184" y="302" type="line" smooth="yes" identifier="48P7Z3akTX"/>
      <point x="292" y="302" identifier="klq3TImAo2"/>
      <point x="351" y="273" identifier="R9tdChegQC"/>
      <point x="351" y="210" type="curve" smooth="yes" identifier="zf5hGXDnU9"/>
      <point x="351" y="187" identifier="Os7bQ7ACcu"/>
      <point x="344" y="169" identifier="dRUbOqmAss"/>
      <point x="312" y="129" type="curve" smooth="yes" identifier="MRhet5kcOF"/>
      <point x="297" y="110" identifier="atswRTqSYl"/>
      <point x="265" y="76" identifier="deeRsKNLgz"/>
      <point x="265" y="-2" type="curve" smooth="yes" identifier="yWSwGXRUJk"/>
      <point x="265" y="-109" type="line" smooth="yes" identifier="cnugJ4fJws"/>
      <point x="265" y="-129" identifier="jFWyVOjIkL"/>
      <point x="274" y="-138" identifier="F1oNKzNCe7"/>
      <point x="294" y="-138" type="curve" smooth="yes" identifier="xB7nFmtA0s"/>
    </contour>
  </outline>
</glyph>
<glyph name="bar" format="2">
  <advance width="600"/>
  <unicode hex="007C"/>
  <outline>
    <contour>
      <point x="310" y="-138" type="line" identifier="f56fKlzLUP"/>
      <point x="310" y="760" type="line" identifier="AnwrmDLFLn"/>
      <point x="290" y="760" type="line" identifier="q0hhjpndnt"/>
      <point x="290" y="-138" type="line" identifier="oEuneq8rNG"/>
    </contour>
  </outline>
</glyph>
<glyph name="braceright" format="2">
  <advance width="600"/>
  <unicode hex="007D"/>
  <outline>
    <contour>
      <point x="116" y="760" type="line" identifier="ae0mQ378Mh"/>
      <point x="116" y="742" type="line" identifier="rttXLV5WuS"/>
      <point x="315" y="742" type="line" identifier="UB9z73fGIc"/>
      <point x="315" y="624" type="line" smooth="yes" identifier="mGfNInXMRS"/>
      <point x="315" y="548" identifier="qOwHvaAwrY"/>
      <point x="286" y="520" identifier="AZOaP5DHIQ"/>
      <point x="272" y="502" type="curve" smooth="yes" identifier="ZJceGKgKas"/>
      <point x="238" y="460" identifier="ok0ZcKoIso"/>
      <point x="229" y="437" identifier="daHpvkrZfr"/>
      <point x="229" y="411" type="curve" smooth="yes" identifier="Ykj2ELsVzS"/>
      <point x="229" y="351" identifier="l7t26oyc0m"/>
      <point x="279" y="317" identifier="eZeMA9uGYN"/>
      <point x="348" y="312" type="curve" identifier="qCDMhvju2W"/>
      <point x="348" y="310" type="line" identifier="6chIusQl4i"/>
      <point x="279" y="305" identifier="d0s9oOUxw6"/>
      <point x="229" y="271" identifier="8KVGESYwjP"/>
      <point x="229" y="211" type="curve" smooth="yes" identifier="K1Z9OCGO4T"/>
      <point x="229" y="185" identifier="QP22IxDuKU"/>
      <point x="238" y="162" identifier="oRQ3XSdD2q"/>
      <point x="272" y="120" type="curve" smooth="yes" identifier="bWFepnX7kF"/>
      <point x="286" y="102" identifier="pscSVKwviN"/>
      <point x="315" y="74" identifier="UE2tNXVODV"/>
      <point x="315" y="-2" type="curve" smooth="yes" identifier="pmhX4L0HXK"/>
      <point x="315" y="-120" type="line" identifier="AQwKid4LSN"/>
      <point x="116" y="-120" type="line" identifier="PVoNLsyIeU"/>
      <point x="116" y="-138" type="line" identifier="Q6VvD1jcvI"/>
      <point x="306" y="-138" type="line" smooth="yes" identifier="014K23a9k6"/>
      <point x="326" y="-138" identifier="QvdwrYmvfz"/>
      <point x="335" y="-129" identifier="ywmMUdFocZ"/>
      <point x="335" y="-109" type="curve" smooth="yes" identifier="2My0k3Mggd"/>
      <point x="335" y="-2" type="line" smooth="yes" identifier="xY71ljR1Ak"/>
      <point x="335" y="76" identifier="m2xigCttTR"/>
      <point x="303" y="110" identifier="DlsYaZj6MF"/>
      <point x="288" y="129" type="curve" smooth="yes" identifier="uwhyhP0ykz"/>
      <point x="256" y="169" identifier="vVRKld1MX2"/>
      <point x="249" y="187" identifier="gPh5XhrvWR"/>
      <point x="249" y="210" type="curve" smooth="yes" identifier="jXBnpgxb2G"/>
      <point x="249" y="273" identifier="WiyPuiX4UJ"/>
      <point x="308" y="302" identifier="ASD1SeS3tD"/>
      <point x="416" y="302" type="curve" smooth="yes" identifier="YyTCmIb9xZ"/>
      <point x="484" y="302" type="line" identifier="g3C0196GIc"/>
      <point x="484" y="320" type="line" identifier="E06r4M4Lt6"/>
      <point x="416" y="320" type="line" smooth="yes" identifier="jpONxLZjuz"/>
      <point x="308" y="320" identifier="BTb6h3AvRj"/>
      <point x="249" y="349" identifier="0zTA3iHvAT"/>
      <point x="249" y="412" type="curve" smooth="yes" identifier="R7586wzvrL"/>
      <point x="249" y="435" identifier="TBCRJ5tWzt"/>
      <point x="256" y="453" identifier="rtrZPNTGMX"/>
      <point x="288" y="493" type="curve" smooth="yes" identifier="u9xF0lUCCd"/>
      <point x="303" y="512" identifier="5f9eNUCYsP"/>
      <point x="335" y="546" identifier="UjqBXtXyQG"/>
      <point x="335" y="624" type="curve" smooth="yes" identifier="JFqLKkHTK4"/>
      <point x="335" y="731" type="line" smooth="yes" identifier="0a14ah7H2a"/>
      <point x="335" y="751" identifier="XDGhsSMfWT"/>
      <point x="326" y="760" identifier="y8039VqRbx"/>
      <point x="306" y="760" type="curve" smooth="yes" identifier="4ETWHNuprD"/>
    </contour>
  </outline>
</glyph>
<glyph name="asciitilde" format="2">
  <advance width="600"/>
  <unicode hex="007E"/>
  <outline>
    <contour>
      <point x="415" y="217" type="curve" smooth="yes" identifier="sLSntUORwO"/>
      <point x="471" y="217" identifier="lAzEIw3Xy0"/>
      <point x="522" y="261" identifier="DrCTOTdnk9"/>
      <point x="542" y="381" type="curve" identifier="y8UbQ1AGrV"/>
      <point x="524" y="385" type="line" identifier="cganmejfGO"/>
      <point x="505" y="275" identifier="e80xmpN1of"/>
      <point x="462" y="237" identifier="2IPyGXeKHC"/>
      <point x="416" y="237" type="curve" smooth="yes" identifier="1FZGpDLgdo"/>
      <point x="382" y="237" identifier="WIrWdVIdUG"/>
      <point x="351" y="262" identifier="UqA5TFcihE"/>
      <point x="308" y="310" type="curve" smooth="yes" identifier="U06I6iKU1v"/>
      <point x="256" y="369" identifier="pWk3VBVcIi"/>
      <point x="224" y="391" identifier="omXQreJ28S"/>
      <point x="185" y="391" type="curve" smooth="yes" identifier="EzBLF1GaIU"/>
      <point x="129" y="391" identifier="2cb5Qm5PcN"/>
      <point x="78" y="347" identifier="35bFSU48zh"/>
      <point x="58" y="227" type="curve" identifier="0lYgzKRLJy"/>
      <point x="76" y="223" type="line" identifier="LiIMhIfdDI"/>
      <point x="95" y="333" identifier="ZHB7pVTf6T"/>
      <point x="138" y="371" identifier="SSo8HXlpP6"/>
      <point x="184" y="371" type="curve" smooth="yes" identifier="zXa1azGfeW"/>
      <point x="218" y="371" identifier="knWJjfOckZ"/>
      <point x="249" y="346" identifier="34oDZIf68b"/>
      <point x="292" y="298" type="curve" smooth="yes" identifier="dSR1w2THYl"/>
      <point x="344" y="239" identifier="qlsMSaEYf2"/>
      <point x="376" y="217" identifier="YYvEpWk3lS"/>
    </contour>
  </outline>
</glyph>
<glyph name="exclamdown" format="2">
  <advance width="600"/>
  <unicode hex="00A1"/>
  <outline>
    <contour>
      <point x="311" y="-182" type="line" identifier="8OpvYi5tX2"/>
      <point x="311" y="101" type="line" identifier="zfisR5pybh"/>
      <point x="306" y="340" type="line" identifier="7WljJdn1aj"/>
      <point x="294" y="340" type="line" identifier="OGCbYwdzyn"/>
      <point x="289" y="101" type="line" identifier="njs5LbGCQc"/>
      <point x="289" y="-182" type="line" identifier="fU92XZoMsz"/>
    </contour>
    <contour>
      <point x="300" y="459" type="curve" smooth="yes" identifier="orYt3C2DpG"/>
      <point x="322" y="459" identifier="lsTBZJ3wHs"/>
      <point x="334" y="469" identifier="WvjPsutsYk"/>
      <point x="334" y="486" type="curve" smooth="yes" identifier="b8oSlunv9y"/>
      <point x="334" y="494" type="line" smooth="yes" identifier="cThrAZP8xf"/>
      <point x="334" y="511" identifier="DPKTTmCw6F"/>
      <point x="322" y="521" identifier="mawSlEP0a9"/>
      <point x="300" y="521" type="curve" smooth="yes" identifier="sB6jQv4sSM"/>
      <point x="278" y="521" identifier="D3URKVYahj"/>
      <point x="266" y="511" identifier="vnEZFx4aWl"/>
      <point x="266" y="494" type="curve" smooth="yes" identifier="6CNSbZx2N2"/>
      <point x="266" y="486" type="line" smooth="yes" identifier="D8Ce41REGU"/>
      <point x="266" y="469" identifier="gp7R0KDcZy"/>
      <point x="278" y="459" identifier="aI234yhyj4"/>
    </contour>
  </outline>
</glyph>
<glyph name="cent" format="2">
  <advance width="600"/>
  <unicode hex="00A2"/>
  <outline>
    <contour>
      <point x="322" y="-114" type="line" identifier="Wo0vnZRWQu"/>
      <point x="322" y="-12" type="line" identifier="gCgp6iVC0p"/>
      <point x="415" y="-12" identifier="HLUDhessGS"/>
      <point x="477" y="40" identifier="4BaEF5wAVD"/>
      <point x="503" y="102" type="curve" identifier="eV0Y2OshvX"/>
      <point x="485" y="110" type="line" identifier="RuNf3fSADU"/>
      <point x="457" y="48" identifier="AFGRtmjvBh"/>
      <point x="402" y="7" identifier="g3cHtK0NHr"/>
      <point x="322" y="7" type="curve" identifier="JbrdppyLPT"/>
      <point x="322" y="509" type="line" identifier="JDEeDYisFK"/>
      <point x="398" y="509" identifier="JMROI11II3"/>
      <point x="452" y="474" identifier="hER1b1ol2U"/>
      <point x="477" y="410" type="curve" identifier="UVeCFC8LPu"/>
      <point x="496" y="416" type="line" identifier="33TAdrVvgd"/>
      <point x="473" y="481" identifier="h74MImIgUn"/>
      <point x="412" y="528" identifier="py4jLYHZ0U"/>
      <point x="322" y="528" type="curve" identifier="wny3Ivszo4"/>
      <point x="322" y="630" type="line" identifier="afPYkKJEX2"/>
      <point x="302" y="630" type="line" identifier="RAM2WXn0Al"/>
      <point x="302" y="527" type="line" identifier="3gXEsxJdzy"/>
      <point x="181" y="518" identifier="F49l7HVqVj"/>
      <point x="110" y="428" identifier="UTXj8e3v5O"/>
      <point x="110" y="258" type="curve" smooth="yes" identifier="yQ9UwsrR1A"/>
      <point x="110" y="88" identifier="dAt76ooNRL"/>
      <point x="181" y="-2" identifier="fy1FG86LZB"/>
      <point x="302" y="-11" type="curve" identifier="L5VI4Tfj2n"/>
      <point x="302" y="-114" type="line" identifier="xrS38CnWrM"/>
    </contour>
    <contour>
      <point x="133" y="234" type="curve" identifier="NS6Ugk0Huz"/>
      <point x="133" y="282" type="line" smooth="yes" identifier="t5z3Ndj6g1"/>
      <point x="133" y="414" identifier="jSdRFKq3M3"/>
      <point x="193" y="499" identifier="HfafVDZYAM"/>
      <point x="302" y="508" type="curve" identifier="bQgh56LgQR"/>
      <point x="302" y="8" type="line" identifier="PlSViT5j74"/>
      <point x="193" y="17" identifier="UMuvc2V1sw"/>
      <point x="133" y="102" identifier="8Na9UAw4fk"/>
    </contour>
  </outline>
</glyph>
<glyph name="sterling" format="2">
  <advance width="600"/>
  <unicode hex="00A3"/>
  <outline>
    <contour>
      <point x="525" y="0" type="line" identifier="yhfOPWhy3r"/>
      <point x="525" y="20" type="line" identifier="cmzOZ5aQ9P"/>
      <point x="104" y="20" type="line" identifier="2vLY1yK6Gv"/>
      <point x="104" y="22" type="line" identifier="Fv5HmMzGRD"/>
      <point x="165" y="69" identifier="ZqR4K2sLbA"/>
      <point x="198" y="141" identifier="IQK8hiY1uo"/>
      <point x="198" y="221" type="curve" smooth="yes" identifier="zSfBE8oPGV"/>
      <point x="198" y="254" identifier="waGxPRYDaD"/>
      <point x="192" y="283" identifier="S9oEzl994g"/>
      <point x="184" y="311" type="curve" identifier="gY1WaTTtbp"/>
      <point x="401" y="311" type="line" identifier="G9jne2AebU"/>
      <point x="401" y="331" type="line" identifier="Sa6ieC5X2G"/>
      <point x="178" y="331" type="line" identifier="o6rn7ufsLB"/>
      <point x="158" y="389" identifier="TrTUqZbU29"/>
      <point x="131" y="442" identifier="C1Jrf7aBIG"/>
      <point x="131" y="510" type="curve" smooth="yes" identifier="DyP2t1jpD7"/>
      <point x="131" y="623" identifier="Ew8i6aGLQq"/>
      <point x="206" y="690" identifier="DKNK2kAtpF"/>
      <point x="322" y="690" type="curve" smooth="yes" identifier="tSia0FTcHw"/>
      <point x="400" y="690" identifier="XTt0jSS1vI"/>
      <point x="464" y="660" identifier="xSQAeSMsNz"/>
      <point x="507" y="587" type="curve" identifier="U6mnEdeaLi"/>
      <point x="526" y="597" type="line" identifier="bSr5nhA93b"/>
      <point x="481" y="674" identifier="NQyop8kxnW"/>
      <point x="408" y="710" identifier="funmQ7BQWd"/>
      <point x="321" y="710" type="curve" smooth="yes" identifier="VX7fbAhj3s"/>
      <point x="196" y="710" identifier="GnaoMJVCbL"/>
      <point x="109" y="635" identifier="F2iOd5SRRP"/>
      <point x="109" y="510" type="curve" smooth="yes" identifier="dNd6b9O49D"/>
      <point x="109" y="441" identifier="eEKMA3ss5l"/>
      <point x="136" y="388" identifier="k2i3PICrp3"/>
      <point x="155" y="331" type="curve" identifier="UDSOBEkRnv"/>
      <point x="67" y="331" type="line" identifier="13vBhRZIN3"/>
      <point x="67" y="311" type="line" identifier="UKYtBk5J59"/>
      <point x="162" y="311" type="line" identifier="Nj2gaIddZq"/>
      <point x="170" y="283" identifier="alE9d9zmKb"/>
      <point x="176" y="253" identifier="DScnmpZktd"/>
      <point x="176" y="220" type="curve" smooth="yes" identifier="Z36QeRiGOL"/>
      <point x="176" y="134" identifier="DvpQEC3cu7"/>
      <point x="136" y="67" identifier="6VVa3l4Cp3"/>
      <point x="80" y="25" type="curve" identifier="6nY5HDUKpZ"/>
      <point x="80" y="0" type="line" identifier="iHyt4iroUR"/>
    </contour>
  </outline>
</glyph>
<glyph name="currency" format="2">
  <advance width="600"/>
  <unicode hex="00A4"/>
  <outline>
    <contour>
      <point x="300" y="129" type="curve" smooth="yes" identifier="xIqqT6jAQ1"/>
      <point x="345" y="129" identifier="TjezZ2ASyN"/>
      <point x="381" y="140" identifier="I5nDnKj4jS"/>
      <point x="411" y="162" type="curve" identifier="JA3j7tJKch"/>
      <point x="502" y="47" type="line" identifier="7rAFHucVY6"/>
      <point x="520" y="60" type="line" identifier="nr4AWVxQYq"/>
      <point x="428" y="177" type="line" identifier="FzZI9RjmC6"/>
      <point x="464" y="213" identifier="sXjrtXP9K2"/>
      <point x="483" y="271" identifier="DyaUXfW98Y"/>
      <point x="483" y="349" type="curve" smooth="yes" identifier="mh2Q9W1Yho"/>
      <point x="483" y="427" identifier="fPz9V71VVp"/>
      <point x="464" y="485" identifier="8JlCHKjvlZ"/>
      <point x="428" y="521" type="curve" identifier="sOsiCdMvAW"/>
      <point x="520" y="638" type="line" identifier="C4SICUnzFf"/>
      <point x="502" y="651" type="line" identifier="byZ3oucDmU"/>
      <point x="411" y="536" type="line" identifier="FgF3R8Dmwo"/>
      <point x="381" y="558" identifier="KddioD6rVO"/>
      <point x="345" y="569" identifier="Ws3REWh1Kp"/>
      <point x="300" y="569" type="curve" smooth="yes" identifier="zfafjrRkyE"/>
      <point x="255" y="569" identifier="dQk4YlugKN"/>
      <point x="219" y="558" identifier="SJooSiW5M5"/>
      <point x="189" y="536" type="curve" identifier="Zr40cLrqYF"/>
      <point x="98" y="651" type="line" identifier="cKSen6nyRd"/>
      <point x="80" y="638" type="line" identifier="HM9JDV6r0Q"/>
      <point x="172" y="521" type="line" identifier="Kjf4I2mJB2"/>
      <point x="136" y="485" identifier="oBZjBKasZr"/>
      <point x="117" y="427" identifier="fd7Us8nKE8"/>
      <point x="117" y="349" type="curve" smooth="yes" identifier="lOaST9RA4m"/>
      <point x="117" y="271" identifier="jN4XCpTmIV"/>
      <point x="136" y="213" identifier="yqAWrjru04"/>
      <point x="172" y="177" type="curve" identifier="4gACtqwDaA"/>
      <point x="80" y="60" type="line" identifier="X2rgEhnog1"/>
      <point x="98" y="47" type="line" identifier="vIsFalzTOK"/>
      <point x="189" y="162" type="line" identifier="cnNb99clJC"/>
      <point x="219" y="140" identifier="MXanm2ZlBU"/>
      <point x="255" y="129" identifier="Z6zhaOU8GA"/>
    </contour>
    <contour>
      <point x="300" y="148" type="curve" smooth="yes" identifier="DaRtg45d1T"/>
      <point x="198" y="148" identifier="WncnQwAY9B"/>
      <point x="140" y="218" identifier="YPNIEgjRzW"/>
      <point x="140" y="330" type="curve" smooth="yes" identifier="7kuudM1PU0"/>
      <point x="140" y="368" type="line" smooth="yes" identifier="VHqmjN0xx9"/>
      <point x="140" y="480" identifier="yfpepHYTLl"/>
      <point x="198" y="550" identifier="qdPSETfINj"/>
      <point x="300" y="550" type="curve" smooth="yes" identifier="wSmjoPLtfa"/>
      <point x="402" y="550" identifier="qetsVWakvi"/>
      <point x="460" y="480" identifier="43STzt9aMO"/>
      <point x="460" y="368" type="curve" smooth="yes" identifier="pQTWjiBMao"/>
      <point x="460" y="330" type="line" smooth="yes" identifier="d1xnbPK38I"/>
      <point x="460" y="218" identifier="6kYX5SbO6a"/>
      <point x="402" y="148" identifier="GjScl1BGTN"/>
    </contour>
  </outline>
</glyph>
<glyph name="yen" format="2">
  <advance width="600"/>
  <unicode hex="00A5"/>
  <outline>
    <contour>
      <point x="91" y="0" type="line" identifier="OYVEptXeDv"/>
      <point x="509" y="0" type="line" identifier="O67aOOiyPZ"/>
      <point x="509" y="19" type="line" identifier="3EUdin6e5p"/>
      <point x="311" y="19" type="line" identifier="uQ32DEeAa6"/>
      <point x="311" y="294" type="line" identifier="tzd9oczgJN"/>
      <point x="509" y="294" type="line" identifier="O3lk6I3owT"/>
      <point x="509" y="313" type="line" identifier="Pu2Zkk3iwB"/>
      <point x="323" y="313" type="line" identifier="UzGiCEgh94"/>
      <point x="572" y="698" type="line" identifier="6PxKa7OiGW"/>
      <point x="548" y="698" type="line" identifier="z29Drpx0im"/>
      <point x="302" y="317" type="line" identifier="VjRrtN3REp"/>
      <point x="299" y="317" type="line" identifier="Dg2FIl0rQc"/>
      <point x="53" y="698" type="line" identifier="H43BHitgFo"/>
      <point x="28" y="698" type="line" identifier="1dlwXgOWPS"/>
      <point x="277" y="313" type="line" identifier="iFveiXeP81"/>
      <point x="91" y="313" type="line" identifier="qIq18AzLhj"/>
      <point x="91" y="294" type="line" identifier="wCzsiG9DNn"/>
      <point x="289" y="294" type="line" identifier="ZY4RSRtF93"/>
      <point x="289" y="19" type="line" identifier="xbQYAQLeyV"/>
      <point x="91" y="19" type="line" identifier="ZtWYiJlsYP"/>
    </contour>
  </outline>
</glyph>
<glyph name="brokenbar" format="2">
  <advance width="600"/>
  <unicode hex="00A6"/>
  <outline>
    <contour>
      <point x="310" y="401" type="line" identifier="BBSYQ4ubou"/>
      <point x="310" y="760" type="line" identifier="3uxze3myVk"/>
      <point x="290" y="760" type="line" identifier="2DgGJaLGKB"/>
      <point x="290" y="401" type="line" identifier="Aof2Bht8dW"/>
    </contour>
    <contour>
      <point x="310" y="-138" type="line" identifier="otXqnJ2fki"/>
      <point x="310" y="221" type="line" identifier="fmAvjJWFay"/>
      <point x="290" y="221" type="line" identifier="1GjhF59vih"/>
      <point x="290" y="-138" type="line" identifier="TAXs1J4rP7"/>
    </contour>
  </outline>
</glyph>
<glyph name="section" format="2">
  <advance width="600"/>
  <unicode hex="00A7"/>
  <outline>
    <contour>
      <point x="460" y="-13" type="curve" smooth="yes" identifier="JchH2T08hl"/>
      <point x="460" y="39" identifier="TvmWQueox5"/>
      <point x="433" y="79" identifier="Lnpd1oI39c"/>
      <point x="386" y="107" type="curve" identifier="HuE5yEr34p"/>
      <point x="386" y="110" type="line" identifier="wl9mvcKpS9"/>
      <point x="456" y="136" identifier="HW8iIGA2YO"/>
      <point x="501" y="184" identifier="zKM1ZcK95l"/>
      <point x="501" y="260" type="curve" smooth="yes" identifier="h1Go6rATv2"/>
      <point x="501" y="351" identifier="03W3Ts6H8v"/>
      <point x="444" y="390" identifier="ojsdc5UkVK"/>
      <point x="352" y="419" type="curve" smooth="yes" identifier="Xnv8zQ5nCP"/>
      <point x="285" y="441" type="line" smooth="yes" identifier="LqFo7Qbbmf"/>
      <point x="220" y="462" identifier="CPcjcrU4cV"/>
      <point x="161" y="493" identifier="bAG1vNKxy8"/>
      <point x="161" y="569" type="curve" smooth="yes" identifier="NlpP5rFVJE"/>
      <point x="161" y="649" identifier="3LC7u1rDXb"/>
      <point x="218" y="691" identifier="sWlAKOuDEE"/>
      <point x="312" y="691" type="curve" smooth="yes" identifier="O2B3iqs59j"/>
      <point x="380" y="691" identifier="KNDlpNyRUC"/>
      <point x="423" y="668" identifier="oUCj9oLSSb"/>
      <point x="454" y="639" type="curve" identifier="WdXW7vfFCs"/>
      <point x="467" y="654" type="line" identifier="Wk7sZyNiiH"/>
      <point x="434" y="686" identifier="4vuLy6n7Hw"/>
      <point x="384" y="710" identifier="26KA4mcpZo"/>
      <point x="313" y="710" type="curve" smooth="yes" identifier="bTU4P3axrs"/>
      <point x="217" y="710" identifier="nOkVgqo5Da"/>
      <point x="140" y="666" identifier="0Zm0mvtvVD"/>
      <point x="140" y="569" type="curve" smooth="yes" identifier="Ics2J1jKcZ"/>
      <point x="140" y="517" identifier="q76dfbhogo"/>
      <point x="167" y="477" identifier="uHP316lwUF"/>
      <point x="214" y="449" type="curve" identifier="2py2FAtuHK"/>
      <point x="214" y="446" type="line" identifier="3sVBwt9ftQ"/>
      <point x="145" y="420" identifier="bfhuBM8JWN"/>
      <point x="99" y="372" identifier="foj1uIUtti"/>
      <point x="99" y="296" type="curve" smooth="yes" identifier="7O1IRJWffO"/>
      <point x="99" y="205" identifier="K52FcVRtJV"/>
      <point x="157" y="166" identifier="ou1YiH68xM"/>
      <point x="248" y="137" type="curve" smooth="yes" identifier="36HRp9M4HO"/>
      <point x="315" y="115" type="line" smooth="yes" identifier="hxYGQ3buHi"/>
      <point x="380" y="94" identifier="jq864DTbrd"/>
      <point x="439" y="63" identifier="TmNGuJgr3m"/>
      <point x="439" y="-13" type="curve" smooth="yes" identifier="iH5IxdTWGt"/>
      <point x="439" y="-93" identifier="8rvXKmiiiZ"/>
      <point x="382" y="-135" identifier="FXK8vDR3GQ"/>
      <point x="288" y="-135" type="curve" smooth="yes" identifier="OdjxpYlYPs"/>
      <point x="220" y="-135" identifier="ZSRbeMvvAp"/>
      <point x="177" y="-112" identifier="FwbodSmPT4"/>
      <point x="146" y="-83" type="curve" identifier="BodsRzBnLT"/>
      <point x="133" y="-98" type="line" identifier="mcovuTMFf0"/>
      <point x="166" y="-130" identifier="WnUduILKUO"/>
      <point x="219" y="-154" identifier="4WpuA2BkIV"/>
      <point x="287" y="-154" type="curve" smooth="yes" identifier="tSX1OgbPSj"/>
      <point x="383" y="-154" identifier="h08BfKBB28"/>
      <point x="460" y="-110" identifier="xdzEe0zXb6"/>
    </contour>
    <contour>
      <point x="480" y="259" type="curve" smooth="yes" identifier="S9BEqrSmxF"/>
      <point x="480" y="188" identifier="qfj1seYcXu"/>
      <point x="436" y="144" identifier="a9lObxIbVf"/>
      <point x="368" y="116" type="curve" identifier="HVUri7N23E"/>
      <point x="352" y="123" identifier="3zAQyqtDIb"/>
      <point x="338" y="129" identifier="JEWoCW1VVO"/>
      <point x="322" y="134" type="curve" smooth="yes" identifier="XdHWgHu3Dx"/>
      <point x="256" y="155" type="line" smooth="yes" identifier="8DnBj6QTkj"/>
      <point x="167" y="182" identifier="d5PhtygQ89"/>
      <point x="120" y="218" identifier="ZDUfoOzcSH"/>
      <point x="120" y="297" type="curve" smooth="yes" identifier="V8CmKCd6pE"/>
      <point x="120" y="368" identifier="zXePwrhHjZ"/>
      <point x="165" y="412" identifier="eTSJ8lzaHX"/>
      <point x="232" y="440" type="curve" identifier="h0fXQnHhZQ"/>
      <point x="248" y="433" identifier="9UOXdXapNA"/>
      <point x="262" y="427" identifier="CeSN9uI71n"/>
      <point x="278" y="422" type="curve" smooth="yes" identifier="I9qyay3Vho"/>
      <point x="344" y="401" type="line" identifier="kWOVeodAy0"/>
      <point x="434" y="374" identifier="gkp3opA2S7"/>
      <point x="480" y="338" identifier="QolCNIXCga"/>
    </contour>
  </outline>
</glyph>
<glyph name="dieresis" format="2">
  <advance width="600"/>
  <unicode hex="00A8"/>
  <anchor x="300.0" y="516.0" name="_top"/>
  <outline>
    <contour>
      <point x="209" y="649" type="curve" smooth="yes" identifier="PESrqtdYsB"/>
      <point x="230" y="649" identifier="s7TZ0yX6pK"/>
      <point x="238" y="659" identifier="OiAJF8VMxZ"/>
      <point x="238" y="672" type="curve" smooth="yes" identifier="7FxoJlVTTH"/>
      <point x="238" y="680" type="line" smooth="yes" identifier="awqw8oAQAs"/>
      <point x="238" y="693" identifier="868rZUaFh1"/>
      <point x="230" y="703" identifier="t9mha3Ohxm"/>
      <point x="209" y="703" type="curve" smooth="yes" identifier="5u0I0RKQ1o"/>
      <point x="188" y="703" identifier="n8zyWtWK9S"/>
      <point x="180" y="693" identifier="UJc8NmnyeJ"/>
      <point x="180" y="680" type="curve" smooth="yes" identifier="0nuCO2IKs3"/>
      <point x="180" y="672" type="line" smooth="yes" identifier="AH9GWaALO2"/>
      <point x="180" y="659" identifier="rYQFU6M2UB"/>
      <point x="188" y="649" identifier="XJX1CjRhY0"/>
    </contour>
    <contour>
      <point x="391" y="649" type="curve" smooth="yes" identifier="b3UiV1VfGC"/>
      <point x="412" y="649" identifier="SnHjxBFFOg"/>
      <point x="420" y="659" identifier="yPXctJK8uP"/>
      <point x="420" y="672" type="curve" smooth="yes" identifier="FhCrbQ8zOY"/>
      <point x="420" y="680" type="line" smooth="yes" identifier="sDjWFbdLH5"/>
      <point x="420" y="693" identifier="v8VsxIyj0U"/>
      <point x="412" y="703" identifier="o0ws7lJHaW"/>
      <point x="391" y="703" type="curve" smooth="yes" identifier="Ku0neCrR2k"/>
      <point x="370" y="703" identifier="k8LcTZh4VL"/>
      <point x="362" y="693" identifier="UnoGsIpdpl"/>
      <point x="362" y="680" type="curve" smooth="yes" identifier="IwcJKhQATC"/>
      <point x="362" y="672" type="line" smooth="yes" identifier="18sDRFCub7"/>
      <point x="362" y="659" identifier="36bNw9OKDi"/>
      <point x="370" y="649" identifier="aimGlaQmfB"/>
    </contour>
  </outline>
</glyph>
<glyph name="copyright" format="2">
  <advance width="600"/>
  <unicode hex="00A9"/>
  <outline>
    <contour>
      <point x="300" y="18" type="curve" smooth="yes" identifier="xilsGLpxeA"/>
      <point x="464" y="18" identifier="oLL0MK88Ru"/>
      <point x="595" y="145" identifier="D3bxyWW2IO"/>
      <point x="595" y="349" type="curve" smooth="yes" identifier="XYYFr2qboP"/>
      <point x="595" y="553" identifier="1vHErK9oOG"/>
      <point x="464" y="680" identifier="htKaaYvXmh"/>
      <point x="300" y="680" type="curve" smooth="yes" identifier="Ppw2Zh7u5r"/>
      <point x="136" y="680" identifier="h63hznrJKU"/>
      <point x="5" y="553" identifier="BTZ41A9Qnf"/>
      <point x="5" y="349" type="curve" smooth="yes" identifier="xnTFdZz5DN"/>
      <point x="5" y="145" identifier="VwXFnoenSU"/>
      <point x="136" y="18" identifier="91Cjj1ivgD"/>
    </contour>
    <contour>
      <point x="300" y="35" type="curve" smooth="yes" identifier="U54Z0e6dMI"/>
      <point x="143" y="35" identifier="0EhK81W9w4"/>
      <point x="25" y="162" identifier="AhkMLyzFwD"/>
      <point x="25" y="332" type="curve" smooth="yes" identifier="zAneAcrjDr"/>
      <point x="25" y="366" type="line" smooth="yes" identifier="9duF7So40O"/>
      <point x="25" y="536" identifier="RPQRZQD5jv"/>
      <point x="143" y="663" identifier="wMsYBXA6Xe"/>
      <point x="300" y="663" type="curve" smooth="yes" identifier="WgxyTuMIVH"/>
      <point x="457" y="663" identifier="smVOh9ZsDV"/>
      <point x="575" y="536" identifier="6zQ8zsgl51"/>
      <point x="575" y="366" type="curve" smooth="yes" identifier="HBpsTST0Je"/>
      <point x="575" y="332" type="line" smooth="yes" identifier="D9TbSkClZt"/>
      <point x="575" y="162" identifier="cbYWLgCDN4"/>
      <point x="457" y="35" identifier="fm4xT1JAw0"/>
    </contour>
    <contour>
      <point x="301" y="188" type="curve" smooth="yes" identifier="hexXnfdzd7"/>
      <point x="354" y="188" identifier="TSupAlRjM3"/>
      <point x="392" y="217" identifier="053aKWTJbG"/>
      <point x="408" y="253" type="curve" identifier="bPpPz5srGP"/>
      <point x="393" y="261" type="line" identifier="voLTbjcHyY"/>
      <point x="377" y="227" identifier="IyWAkWJxJ1"/>
      <point x="346" y="205" identifier="6p7xLQTqBs"/>
      <point x="302" y="205" type="curve" smooth="yes" identifier="tgv0Awa9Rc"/>
      <point x="237" y="205" identifier="XcX7bb1CFZ"/>
      <point x="193" y="248" identifier="jmCIr6LcoV"/>
      <point x="193" y="339" type="curve" smooth="yes" identifier="hAGZfmTVzC"/>
      <point x="193" y="359" type="line" smooth="yes" identifier="rMCabgFJkG"/>
      <point x="193" y="447" identifier="xfvr5E0N3j"/>
      <point x="236" y="493" identifier="KfW66QEyTA"/>
      <point x="302" y="493" type="curve" smooth="yes" identifier="Q413By45O2"/>
      <point x="345" y="493" identifier="FCFJzGtvIh"/>
      <point x="375" y="474" identifier="99h3Qvjqxq"/>
      <point x="388" y="442" type="curve" identifier="WLnB3oiE2Y"/>
      <point x="404" y="447" type="line" identifier="hy6JrfbTs6"/>
      <point x="391" y="484" identifier="2IHmNdbAUe"/>
      <point x="356" y="510" identifier="4n0BsDVmtw"/>
      <point x="302" y="510" type="curve" smooth="yes" identifier="ENzi3KV9WN"/>
      <point x="224" y="510" identifier="IEnv8UO9AZ"/>
      <point x="173" y="454" identifier="kWnyWrhT2E"/>
      <point x="173" y="349" type="curve" smooth="yes" identifier="w0Ab1Kg3mT"/>
      <point x="173" y="244" identifier="sjfnFgMgDL"/>
      <point x="224" y="188" identifier="BALKG839zW"/>
    </contour>
  </outline>
</glyph>
<glyph name="ordfeminine" format="2">
  <advance width="600"/>
  <unicode hex="00AA"/>
  <outline>
    <contour>
      <point x="446" y="374" type="line" identifier="RNmNNl7zZ5"/>
      <point x="446" y="391" type="line" identifier="fqrGHAgQNg"/>
      <point x="399" y="391" type="line" identifier="2Kx0AqRAN8"/>
      <point x="399" y="607" type="line" smooth="yes" identifier="AWLtExhc7J"/>
      <point x="399" y="672" identifier="MuVH3u0399"/>
      <point x="357" y="710" identifier="2HpsT2RpAp"/>
      <point x="281" y="710" type="curve" smooth="yes" identifier="kj0W9v70B0"/>
      <point x="221" y="710" identifier="iEH8vqtnuB"/>
      <point x="186" y="684" identifier="5pwpoJY4a5"/>
      <point x="167" y="643" type="curve" identifier="79KBHjZ9Gg"/>
      <point x="182" y="635" type="line" identifier="hO2yGyWIWk"/>
      <point x="201" y="676" identifier="E6PszpxcW4"/>
      <point x="237" y="693" identifier="Fv3ObCun9x"/>
      <point x="281" y="693" type="curve" smooth="yes" identifier="4lS0148pQ3"/>
      <point x="344" y="693" identifier="VV7mV1LHoH"/>
      <point x="380" y="664" identifier="l1UHU9QVIg"/>
      <point x="380" y="604" type="curve" smooth="yes" identifier="K39k4kTwKQ"/>
      <point x="380" y="548" type="line" identifier="zqNwlHrBZF"/>
      <point x="284" y="548" type="line" smooth="yes" identifier="7M0SySipxo"/>
      <point x="190" y="548" identifier="ewM2Av52LJ"/>
      <point x="157" y="511" identifier="h2fGfh9MZV"/>
      <point x="157" y="458" type="curve" smooth="yes" identifier="cPTScQG4Xy"/>
      <point x="157" y="402" identifier="Sfdnzb6DMn"/>
      <point x="194" y="367" identifier="BPPb8vXWPj"/>
      <point x="266" y="367" type="curve" smooth="yes" identifier="1d8lvTtlhU"/>
      <point x="330" y="367" identifier="YTRlTKyITP"/>
      <point x="363" y="394" identifier="yFIDAHI3U0"/>
      <point x="378" y="422" type="curve" identifier="0EDstIkTqL"/>
      <point x="380" y="422" type="line" identifier="6CPd6DFJxY"/>
      <point x="380" y="393" type="line" smooth="yes" identifier="IUEIfT0avD"/>
      <point x="380" y="380" identifier="M5TAciND22"/>
      <point x="386" y="374" identifier="m7JfZX6taF"/>
      <point x="398" y="374" type="curve" smooth="yes" identifier="3BAfYIPEYz"/>
    </contour>
    <contour>
      <point x="380" y="531" type="line" identifier="9p8VmwJl6Z"/>
      <point x="380" y="473" type="line" smooth="yes" identifier="tuphKjdR3r"/>
      <point x="380" y="414" identifier="Czt2M3yYkZ"/>
      <point x="327" y="384" identifier="xtQeTkGwBz"/>
      <point x="266" y="384" type="curve" smooth="yes" identifier="bO8BQbEOuK"/>
      <point x="214" y="384" identifier="9wwSj7p9Ei"/>
      <point x="178" y="408" identifier="hLpYR0vnQo"/>
      <point x="178" y="452" type="curve" smooth="yes" identifier="evGPcQZfi5"/>
      <point x="178" y="465" type="line" smooth="yes" identifier="MU5rcmozoR"/>
      <point x="178" y="504" identifier="vtE3SNxUPf"/>
      <point x="207" y="531" identifier="8E4qzERbiU"/>
      <point x="283" y="531" type="curve" smooth="yes" identifier="YX81OfsqPg"/>
    </contour>
  </outline>
</glyph>
<glyph name="logicalnot" format="2">
  <advance width="600"/>
  <unicode hex="00AC"/>
  <outline>
    <contour>
      <point x="522" y="104" type="line" identifier="YhsIchA8vq"/>
      <point x="522" y="315" type="line" identifier="2aw8Ibuo1z"/>
      <point x="62" y="315" type="line" identifier="BExkMTlX3m"/>
      <point x="62" y="296" type="line" identifier="5HNAwqhvvC"/>
      <point x="501" y="296" type="line" identifier="jmnx24JnoX"/>
      <point x="501" y="104" type="line" identifier="J8G0Q4mO6e"/>
    </contour>
  </outline>
</glyph>
<glyph name="registered" format="2">
  <advance width="600"/>
  <unicode hex="00AE"/>
  <outline>
    <contour>
      <point x="300" y="346" type="curve" smooth="yes" identifier="To9fpTbT9j"/>
      <point x="401" y="346" identifier="KgkKnWn1bk"/>
      <point x="481" y="423" identifier="Iez0dpkqdB"/>
      <point x="481" y="528" type="curve" smooth="yes" identifier="NeY1yKAkDF"/>
      <point x="481" y="633" identifier="11YDMZ0KEw"/>
      <point x="401" y="710" identifier="ru76ksDScO"/>
      <point x="300" y="710" type="curve" smooth="yes" identifier="h13clii74S"/>
      <point x="199" y="710" identifier="YU54WTkuAG"/>
      <point x="119" y="633" identifier="aHIjiR9n7G"/>
      <point x="119" y="528" type="curve" smooth="yes" identifier="WkAyYvequd"/>
      <point x="119" y="423" identifier="Q6BZIW41iK"/>
      <point x="199" y="346" identifier="beDOG1fh88"/>
    </contour>
    <contour>
      <point x="300" y="361" type="curve" smooth="yes" identifier="yYASWY3ShI"/>
      <point x="210" y="361" identifier="RTjUCHd3ks"/>
      <point x="138" y="432" identifier="yJnffdbfHn"/>
      <point x="138" y="520" type="curve" smooth="yes" identifier="6GHIIKtyo8"/>
      <point x="138" y="536" type="line" smooth="yes" identifier="dERNaBAN7y"/>
      <point x="138" y="624" identifier="U54qF2eQfo"/>
      <point x="210" y="695" identifier="ZILgVpEuJu"/>
      <point x="300" y="695" type="curve" smooth="yes" identifier="XNJJT9k5Gy"/>
      <point x="390" y="695" identifier="Q3E8Vq7qei"/>
      <point x="462" y="624" identifier="N8fLqRyCm3"/>
      <point x="462" y="536" type="curve" smooth="yes" identifier="e7fhVwSuVO"/>
      <point x="462" y="520" type="line" smooth="yes" identifier="FmC6Z5AWnl"/>
      <point x="462" y="432" identifier="o5KYr4XrrQ"/>
      <point x="390" y="361" identifier="qe0YsHjdZA"/>
    </contour>
    <contour>
      <point x="263" y="514" type="line" identifier="Bd0p5FM9qC"/>
      <point x="307" y="514" type="line" identifier="El58cjp3Ij"/>
      <point x="358" y="436" type="line" identifier="ybsuX3gzWB"/>
      <point x="376" y="436" type="line" identifier="wI4RAUhJwl"/>
      <point x="323" y="515" type="line" identifier="Uzj4dhvdkO"/>
      <point x="351" y="516" identifier="3Iqj4bzDZX"/>
      <point x="371" y="534" identifier="9oK2EWcvgL"/>
      <point x="371" y="566" type="curve" smooth="yes" identifier="hQ4jWtbPLS"/>
      <point x="371" y="604" identifier="qWCFR7E4W6"/>
      <point x="350" y="621" identifier="Iyrn95QyTg"/>
      <point x="315" y="621" type="curve" smooth="yes" identifier="7fpaKF4MsA"/>
      <point x="248" y="621" type="line" identifier="V7FfXggQPA"/>
      <point x="248" y="436" type="line" identifier="A07VNLGmRN"/>
      <point x="263" y="436" type="line" identifier="umCx94P53Y"/>
    </contour>
    <contour>
      <point x="263" y="527" type="line" identifier="A5nLfaiPwA"/>
      <point x="263" y="608" type="line" identifier="M6q2VAtxAq"/>
      <point x="314" y="608" type="line" smooth="yes" identifier="PkrM9duAdX"/>
      <point x="344" y="608" identifier="bIluD0EuIT"/>
      <point x="355" y="597" identifier="zBIiwqczq3"/>
      <point x="355" y="571" type="curve" smooth="yes" identifier="ymZvYdpOgu"/>
      <point x="355" y="564" type="line" smooth="yes" identifier="ErsVGz7Hlc"/>
      <point x="355" y="538" identifier="ptrojQJPB9"/>
      <point x="344" y="527" identifier="PkFMT7Wgof"/>
      <point x="314" y="527" type="curve" smooth="yes" identifier="U32xuVUEoo"/>
    </contour>
  </outline>
</glyph>
<glyph name="macron" format="2">
  <advance width="600"/>
  <unicode hex="00AF"/>
  <anchor x="300.0" y="516.0" name="_top"/>
  <outline>
    <contour>
      <point x="171" y="668" type="line" identifier="6y4BOSZ3aN"/>
      <point x="429" y="668" type="line" identifier="XcKbplBzb0"/>
      <point x="429" y="686" type="line" identifier="3Crf3GY7qc"/>
      <point x="171" y="686" type="line" identifier="JUewajfv0O"/>
    </contour>
  </outline>
</glyph>
<glyph name="degree" format="2">
  <advance width="600"/>
  <unicode hex="00B0"/>
  <outline>
    <contour>
      <point x="300" y="404" type="curve" smooth="yes" identifier="YJUNj3872S"/>
      <point x="387" y="404" identifier="dgEZJpUtMl"/>
      <point x="453" y="469" identifier="t7wsNwZPSF"/>
      <point x="453" y="557" type="curve" smooth="yes" identifier="TuvByNLeQ3"/>
      <point x="453" y="645" identifier="sUb70N1ncP"/>
      <point x="387" y="710" identifier="b51B17m85g"/>
      <point x="300" y="710" type="curve" smooth="yes" identifier="HcPLkgy91Z"/>
      <point x="213" y="710" identifier="MuE2lmb9ok"/>
      <point x="147" y="645" identifier="JEGj0pRnai"/>
      <point x="147" y="557" type="curve" smooth="yes" identifier="fgb9dRbcai"/>
      <point x="147" y="469" identifier="XMYFGR6ZeC"/>
      <point x="213" y="404" identifier="GNcLnqO2dB"/>
    </contour>
    <contour>
      <point x="300" y="423" type="curve" smooth="yes" identifier="QmjHyAo5E5"/>
      <point x="222" y="423" identifier="CNQfahx53g"/>
      <point x="168" y="481" identifier="X8uOsohYAp"/>
      <point x="168" y="557" type="curve" smooth="yes" identifier="oK2uP5AUMI"/>
      <point x="168" y="633" identifier="VfK6UmphRR"/>
      <point x="222" y="691" identifier="P0Ej1QWo7U"/>
      <point x="300" y="691" type="curve" smooth="yes" identifier="9pe7fAHodK"/>
      <point x="378" y="691" identifier="L9ueino0pL"/>
      <point x="432" y="633" identifier="OrEavc6dEs"/>
      <point x="432" y="557" type="curve" smooth="yes" identifier="AKinyl0Fk3"/>
      <point x="432" y="481" identifier="RzzWrnsPLB"/>
      <point x="378" y="423" identifier="dM7vkkyEb0"/>
    </contour>
  </outline>
</glyph>
<glyph name="plusminus" format="2">
  <advance width="600"/>
  <unicode hex="00B1"/>
  <outline>
    <contour>
      <point x="311" y="115" type="line" identifier="ozWiZo0Crb"/>
      <point x="311" y="349" type="line" identifier="9kAI9XWQxI"/>
      <point x="539" y="349" type="line" identifier="iipNVOc4yM"/>
      <point x="539" y="368" type="line" identifier="sLHLD6ruvG"/>
      <point x="311" y="368" type="line" identifier="CJGe53nX4b"/>
      <point x="311" y="602" type="line" identifier="0h3oUJJZmN"/>
      <point x="290" y="602" type="line" identifier="Z4hNTiGSbz"/>
      <point x="290" y="368" type="line" identifier="NdWz5qNHks"/>
      <point x="62" y="368" type="line" identifier="Bb5PjLZK4K"/>
      <point x="62" y="349" type="line" identifier="cTjeC8CLnu"/>
      <point x="290" y="349" type="line" identifier="5HRR1RxkSh"/>
      <point x="290" y="115" type="line" identifier="6CKvpm538S"/>
    </contour>
    <contour>
      <point x="538" y="0" type="line" identifier="lk8S9tzjTD"/>
      <point x="538" y="19" type="line" identifier="wIqcKZ6dhq"/>
      <point x="62" y="19" type="line" identifier="NrZiWeapMz"/>
      <point x="62" y="0" type="line" identifier="bOw7I0ipzG"/>
    </contour>
  </outline>
</glyph>
<glyph name="twosuperior" format="2">
  <advance width="600"/>
  <unicode hex="00B2"/>
  <outline>
    <contour>
      <point x="428" y="346" type="line" identifier="KAokMb6WKc"/>
      <point x="192" y="346" type="line" identifier="n1IY6LoV9D"/>
      <point x="322" y="452" type="line" smooth="yes" identifier="vh5ANyMmjd"/>
      <point x="385" y="503" identifier="NrA8mJ0RIe"/>
      <point x="415" y="549" identifier="GvSsBiYxlp"/>
      <point x="415" y="599" type="curve" smooth="yes" identifier="RsEJaQ6C0X"/>
      <point x="415" y="657" identifier="N5lt0zU84P"/>
      <point x="376" y="704" identifier="FNJ5gBa8kH"/>
      <point x="300" y="704" type="curve" smooth="yes" identifier="5KO3xl48ch"/>
      <point x="227" y="704" identifier="67nUlbcnNz"/>
      <point x="185" y="663" identifier="sUmbPRDHki"/>
      <point x="169" y="614" type="curve" identifier="nCs0sCjdUw"/>
      <point x="186" y="609" type="line" identifier="PxOK5zlIts"/>
      <point x="203" y="656" identifier="DyXG69Ej93"/>
      <point x="238" y="687" identifier="F2W5a2TANQ"/>
      <point x="300" y="687" type="curve" smooth="yes" identifier="ocbMIQHMb9"/>
      <point x="363" y="687" identifier="I1xxN6cyiP"/>
      <point x="395" y="651" identifier="Pidp2S3Mun"/>
      <point x="395" y="602" type="curve" smooth="yes" identifier="8trqUHQ3eH"/>
      <point x="395" y="592" type="line" smooth="yes" identifier="KUC3TGC1va"/>
      <point x="395" y="553" identifier="PoijirLxNo"/>
      <point x="368" y="511" identifier="Y7UxomYHuY"/>
      <point x="311" y="464" type="curve" smooth="yes" identifier="lHJQnobRNO"/>
      <point x="172" y="349" type="line" identifier="Y6Df0mscsF"/>
      <point x="172" y="329" type="line" identifier="1YPXwEi7wN"/>
      <point x="428" y="329" type="line" identifier="a7KNCPIZIt"/>
    </contour>
  </outline>
</glyph>
<glyph name="threesuperior" format="2">
  <advance width="600"/>
  <unicode hex="00B3"/>
  <outline>
    <contour>
      <point x="242" y="529" type="line" identifier="1P7Zy2DIap"/>
      <point x="242" y="512" type="line" identifier="A6pQkRPBod"/>
      <point x="295" y="512" type="line" smooth="yes" identifier="AM6BX0mAvC"/>
      <point x="369" y="512" identifier="gqxF2VCtUJ"/>
      <point x="396" y="483" identifier="KHYTLqyomF"/>
      <point x="396" y="433" type="curve" smooth="yes" identifier="smOZ0cLY7W"/>
      <point x="396" y="427" type="line" smooth="yes" identifier="dKOOezrWHW"/>
      <point x="396" y="372" identifier="WsdpZJMtpm"/>
      <point x="360" y="340" identifier="serxTYYG52"/>
      <point x="291" y="340" type="curve" smooth="yes" identifier="4GkPD80wEc"/>
      <point x="236" y="340" identifier="tqXcGMgMee"/>
      <point x="209" y="360" identifier="eqMlzxrVJa"/>
      <point x="185" y="390" type="curve" identifier="x3wIEfxME7"/>
      <point x="171" y="379" type="line" identifier="BPpP6MbJma"/>
      <point x="194" y="348" identifier="2GvdK2NDPb"/>
      <point x="231" y="323" identifier="Vi65uBT6bH"/>
      <point x="291" y="323" type="curve" smooth="yes" identifier="DtlK27CEZy"/>
      <point x="371" y="323" identifier="ltiECVrizf"/>
      <point x="416" y="365" identifier="2l2DcDL501"/>
      <point x="416" y="431" type="curve" smooth="yes" identifier="KbiUyHNQIg"/>
      <point x="416" y="481" identifier="EwpgDgCAB6"/>
      <point x="390" y="512" identifier="r6jzqwNUDu"/>
      <point x="339" y="520" type="curve" identifier="nOxoV6EDOj"/>
      <point x="339" y="523" type="line" identifier="dlynMLpdBg"/>
      <point x="382" y="533" identifier="NNRxkhcnhg"/>
      <point x="409" y="561" identifier="auiviw0oRR"/>
      <point x="409" y="609" type="curve" smooth="yes" identifier="kcJsXq86Hh"/>
      <point x="409" y="667" identifier="u4CjtyRBxP"/>
      <point x="368" y="704" identifier="isdHJd3h5y"/>
      <point x="297" y="704" type="curve" smooth="yes" identifier="O6WfYUAAAp"/>
      <point x="240" y="704" identifier="ZI6LbZQEOb"/>
      <point x="203" y="682" identifier="GZuJM4J91B"/>
      <point x="182" y="651" type="curve" identifier="mxjawi9WCW"/>
      <point x="196" y="641" type="line" identifier="YCP6QzB9wu"/>
      <point x="218" y="670" identifier="j0NwnHOWPO"/>
      <point x="245" y="687" identifier="uUQUVmPSIJ"/>
      <point x="297" y="687" type="curve" smooth="yes" identifier="B12ZWJicr8"/>
      <point x="357" y="687" identifier="MkoKWjrqUe"/>
      <point x="389" y="658" identifier="gnaoDr1HLW"/>
      <point x="389" y="614" type="curve" smooth="yes" identifier="RMxfxSpyLa"/>
      <point x="389" y="608" type="line" smooth="yes" identifier="iGaIelaRUx"/>
      <point x="389" y="559" identifier="18RBTsuKSU"/>
      <point x="362" y="529" identifier="PPTWRUEb2a"/>
      <point x="288" y="529" type="curve" smooth="yes" identifier="9KW7g0V4ZG"/>
    </contour>
  </outline>
</glyph>
<glyph name="acute" format="2">
  <advance width="600"/>
  <unicode hex="00B4"/>
  <anchor x="300.0" y="516.0" name="_top"/>
  <outline>
    <contour>
      <point x="397" y="749" type="line" identifier="ZA2YmT0KND"/>
      <point x="378" y="761" type="line" identifier="5sIfpXV71h"/>
      <point x="267" y="607" type="line" identifier="ZtTp5MhJdU"/>
      <point x="282" y="597" type="line" identifier="4TzZCxzovn"/>
    </contour>
  </outline>
</glyph>
<glyph name="mu" format="2">
  <advance width="600"/>
  <unicode hex="00B5"/>
  <outline>
    <contour>
      <point x="143" y="-200" type="line" identifier="ghriMKsyB9"/>
      <point x="143" y="-32" type="line" identifier="VmRJ1SnAjk"/>
      <point x="140" y="92" type="line" identifier="kKZBN8racH"/>
      <point x="143" y="92" type="line" identifier="ZZ3okkU6og"/>
      <point x="167" y="24" identifier="13THPheHBU"/>
      <point x="219" y="-12" identifier="u8xhuIw14q"/>
      <point x="296" y="-12" type="curve" smooth="yes" identifier="Nw2lNp4mKr"/>
      <point x="387" y="-12" identifier="8XZ4tzgRjz"/>
      <point x="436" y="30" identifier="hxOblCf1u1"/>
      <point x="454" y="74" type="curve" identifier="t9de2b9ATS"/>
      <point x="457" y="74" type="line" identifier="eSNZ5pjwIr"/>
      <point x="457" y="0" type="line" identifier="lp0D4LWNKQ"/>
      <point x="478" y="0" type="line" identifier="WYg0nYAqDk"/>
      <point x="478" y="516" type="line" identifier="yCRHbdZ5jP"/>
      <point x="457" y="516" type="line" identifier="yRKfS0qfD5"/>
      <point x="457" y="144" type="line" smooth="yes" identifier="Z77daBnAhA"/>
      <point x="457" y="52" identifier="N3iICKWwyF"/>
      <point x="381" y="7" identifier="4CSjZBlk7b"/>
      <point x="298" y="7" type="curve" smooth="yes" identifier="dbovXujHKN"/>
      <point x="199" y="7" identifier="9Ya68zhA0r"/>
      <point x="143" y="67" identifier="BFFjpELNxN"/>
      <point x="143" y="190" type="curve" smooth="yes" identifier="VnYddZfzMy"/>
      <point x="143" y="516" type="line" identifier="vPxNAHBiUk"/>
      <point x="122" y="516" type="line" identifier="yseJSKpEs5"/>
      <point x="122" y="-200" type="line" identifier="0nMvLlD6oP"/>
    </contour>
  </outline>
</glyph>
<glyph name="paragraph" format="2">
  <advance width="600"/>
  <unicode hex="00B6"/>
  <outline>
    <contour>
      <point x="302" y="-149" type="line" identifier="7cbcNLccuI"/>
      <point x="324" y="-149" type="line" identifier="fiM0HVRYXC"/>
      <point x="324" y="678" type="line" identifier="vxbdkY9zG6"/>
      <point x="450" y="678" type="line" identifier="dkbufyALQU"/>
      <point x="450" y="-149" type="line" identifier="WbzjzD23LO"/>
      <point x="472" y="-149" type="line" identifier="0Y1xCpQfGr"/>
      <point x="472" y="698" type="line" identifier="xbsGNdfD1X"/>
      <point x="292" y="698" type="line" smooth="yes" identifier="6PMSnDUe2G"/>
      <point x="158" y="698" identifier="8MwVKYLabl"/>
      <point x="67" y="603" identifier="WVJ0NNs2p4"/>
      <point x="67" y="472" type="curve" smooth="yes" identifier="MTRxNThx8c"/>
      <point x="67" y="341" identifier="hbwY3SyTnG"/>
      <point x="158" y="246" identifier="pW0xGJQgm1"/>
      <point x="302" y="246" type="curve" identifier="jJ5aefigtz"/>
    </contour>
  </outline>
</glyph>
<glyph name="periodcentered" format="2">
  <advance width="600"/>
  <unicode hex="00B7"/>
  <outline>
    <contour>
      <point x="300" y="273" type="curve" smooth="yes" identifier="wVLuPdroN7"/>
      <point x="322" y="273" identifier="NwS6QCUI1f"/>
      <point x="334" y="283" identifier="4iD4MRl4zr"/>
      <point x="334" y="300" type="curve" smooth="yes" identifier="wb6qAzsycb"/>
      <point x="334" y="308" type="line" smooth="yes" identifier="QwxsZ7iEe3"/>
      <point x="334" y="325" identifier="V4hGGIVlHB"/>
      <point x="322" y="335" identifier="E5qBKcgtF1"/>
      <point x="300" y="335" type="curve" smooth="yes" identifier="SOuoBSgnc7"/>
      <point x="278" y="335" identifier="K7T8m1B3u7"/>
      <point x="266" y="325" identifier="0wDXfwJI7E"/>
      <point x="266" y="308" type="curve" smooth="yes" identifier="KGMQnoqAYQ"/>
      <point x="266" y="300" type="line" smooth="yes" identifier="cmZKEuxiGQ"/>
      <point x="266" y="283" identifier="xIOwST6D0r"/>
      <point x="278" y="273" identifier="AJxTIjlMyI"/>
    </contour>
  </outline>
</glyph>
<glyph name="cedilla" format="2">
  <advance width="600"/>
  <unicode hex="00B8"/>
  <anchor x="300.0" y="0.0" name="_bottom"/>
  <outline>
    <contour>
      <point x="310" y="-202" type="curve" smooth="yes" identifier="vrhE28plKr"/>
      <point x="361" y="-202" identifier="IiwNxCm9m8"/>
      <point x="392" y="-169" identifier="rZnXEib8zW"/>
      <point x="392" y="-131" type="curve" smooth="yes" identifier="lIdlo3Y2Fv"/>
      <point x="392" y="-95" identifier="45IUxPwRzG"/>
      <point x="364" y="-72" identifier="h53P4SY7Mr"/>
      <point x="325" y="-72" type="curve" smooth="yes" identifier="2yLly59MXL"/>
      <point x="316" y="-72" identifier="tpfbp3izJU"/>
      <point x="304" y="-73" identifier="4VDJcSz6kz"/>
      <point x="295" y="-75" type="curve" identifier="K9Zg7f5jJp"/>
      <point x="293" y="-73" type="line" identifier="2MdfMIkAF9"/>
      <point x="312" y="3" type="line" identifier="QbMMkGZCcj"/>
      <point x="294" y="3" type="line" identifier="pdba6dBPdU"/>
      <point x="273" y="-84" type="line" identifier="ZEoVFRxA0A"/>
      <point x="310" y="-86" type="line" smooth="yes" identifier="d0Jexmdiyu"/>
      <point x="355" y="-88" identifier="3ZvPQK9JyJ"/>
      <point x="371" y="-107" identifier="mMRXefh5nL"/>
      <point x="371" y="-132" type="curve" smooth="yes" identifier="oiyzBdci7p"/>
      <point x="371" y="-166" identifier="lL1KwmKCiY"/>
      <point x="346" y="-184" identifier="gOQ6eWRGWp"/>
      <point x="310" y="-184" type="curve" smooth="yes" identifier="8iE7LZv2TY"/>
      <point x="280" y="-184" identifier="NbfI1MA63c"/>
      <point x="256" y="-174" identifier="klDY1B8e9B"/>
      <point x="242" y="-157" type="curve" identifier="mLC0gmDzUX"/>
      <point x="229" y="-170" type="line" identifier="859liBmn1W"/>
      <point x="241" y="-187" identifier="XbynnjcHvJ"/>
      <point x="272" y="-202" identifier="9Hszf0iMUN"/>
    </contour>
  </outline>
</glyph>
<glyph name="onesuperior" format="2">
  <advance width="600"/>
  <unicode hex="00B9"/>
  <outline>
    <contour>
      <point x="458" y="329" type="line" identifier="eCACmuQMFm"/>
      <point x="458" y="346" type="line" identifier="skb4THe32C"/>
      <point x="340" y="346" type="line" identifier="7LjhWpZ5le"/>
      <point x="340" y="698" type="line" identifier="j6kLzVdaFP"/>
      <point x="308" y="698" type="line" identifier="7bgyvi9i0D"/>
      <point x="181" y="591" type="line" identifier="BxvxBzC9UF"/>
      <point x="192" y="578" type="line" identifier="AVtJjqVS1Z"/>
      <point x="317" y="683" type="line" identifier="VwyaCBqK9F"/>
      <point x="321" y="683" type="line" identifier="IAz0itvWDh"/>
      <point x="321" y="346" type="line" identifier="jEvOeAr8IB"/>
      <point x="192" y="346" type="line" identifier="UcgNjKo6T1"/>
      <point x="192" y="329" type="line" identifier="bO89bMgKVy"/>
    </contour>
  </outline>
</glyph>
<glyph name="ordmasculine" format="2">
  <advance width="600"/>
  <unicode hex="00BA"/>
  <outline>
    <contour>
      <point x="300" y="367" type="curve" smooth="yes" identifier="YLWBMdnoQX"/>
      <point x="389" y="367" identifier="mQUmO24oOC"/>
      <point x="441" y="433" identifier="1WDWj5r31o"/>
      <point x="441" y="540" type="curve" smooth="yes" identifier="fbiG2AkZa1"/>
      <point x="441" y="644" identifier="hbDKELWKLT"/>
      <point x="389" y="710" identifier="axf8wcJGug"/>
      <point x="300" y="710" type="curve" smooth="yes" identifier="QCgqxdtDZW"/>
      <point x="211" y="710" identifier="d8vSlGVMB1"/>
      <point x="159" y="644" identifier="G6kWpLutoL"/>
      <point x="159" y="540" type="curve" smooth="yes" identifier="nZGl3ahA4s"/>
      <point x="159" y="433" identifier="1vtf7oQk2B"/>
      <point x="210" y="367" identifier="uINzQn4u1o"/>
    </contour>
    <contour>
      <point x="300" y="384" type="curve" smooth="yes" identifier="rIe6PWQISP"/>
      <point x="221" y="384" identifier="M9n3KlaxJI"/>
      <point x="180" y="447" identifier="GD4OShDECD"/>
      <point x="180" y="522" type="curve" smooth="yes" identifier="4XIITz1HR6"/>
      <point x="180" y="556" type="line" smooth="yes" identifier="11r86PUxYz"/>
      <point x="180" y="629" identifier="Ej3Pk8WO9m"/>
      <point x="221" y="693" identifier="w7u0wBPqnG"/>
      <point x="300" y="693" type="curve" smooth="yes" identifier="Sq3UmEKZBJ"/>
      <point x="379" y="693" identifier="s8cpleF8tf"/>
      <point x="420" y="629" identifier="fWbg1KgiEG"/>
      <point x="420" y="556" type="curve" smooth="yes" identifier="RKAh2eezp6"/>
      <point x="420" y="522" type="line" smooth="yes" identifier="ClSVURM9w1"/>
      <point x="420" y="447" identifier="P1afndAMtx"/>
      <point x="379" y="384" identifier="VRQHFSAn8T"/>
    </contour>
  </outline>
</glyph>
